<svg width="28" height="29" viewBox="0 0 28 29" fill="none" xmlns="http://www.w3.org/2000/svg">
<path fill-rule="evenodd" clip-rule="evenodd" d="M3.58972 17.3825C3.23213 18.2227 3.03236 19.1192 3 20.0288C3.04935 20.5898 3.24493 21.129 3.56807 21.595C4.17611 22.2836 4.90732 22.8581 5.7259 23.2903L11.0127 26.7333C11.6633 27.2397 12.3948 27.6377 13.1778 27.9112C13.6862 28.0296 14.2159 28.0296 14.7243 27.9112C15.5125 27.6411 16.2499 27.2458 16.9068 26.7414L22.2504 23.2963C23.0773 22.8629 23.8168 22.2861 24.433 21.594C24.7584 21.1255 24.9538 20.5823 25 20.0177C24.9649 19.1007 24.7598 18.1975 24.3948 17.3522L19.7214 2.96497C19.6171 2.49902 19.4285 2.05503 19.1647 1.65392C18.9725 1.42548 18.7242 1.24851 18.443 1.13958C17.9732 1.01498 17.4844 0.973312 16.9996 1.01654H10.9148C10.4298 0.973422 9.94091 1.01612 9.47144 1.14261C9.18958 1.25132 8.94105 1.42914 8.74975 1.65896C8.48704 2.0601 8.30021 2.50418 8.19818 2.97001L3.58972 17.3825ZM17.2398 4.07028C17.4572 4.40833 17.6112 4.78161 17.6945 5.17257L21.7071 18.0652C20.1999 17.3006 18.5822 16.7656 16.9099 16.4789L14.3026 7.8461C14.2866 7.79512 14.2583 7.74863 14.2201 7.71053C14.1819 7.67244 14.135 7.64385 14.0832 7.62716C14.0314 7.61046 13.9763 7.60616 13.9224 7.6146C13.8686 7.62304 13.8176 7.64398 13.7737 7.67567C13.7148 7.7178 13.6717 7.77768 13.651 7.8461L11.0736 16.4758C9.39338 16.762 7.76814 17.299 6.25479 18.0683L10.2838 5.1756C10.3663 4.78392 10.5207 4.41011 10.7395 4.0723C10.8991 3.88072 11.1055 3.73158 11.3396 3.63864C11.7339 3.53437 12.1442 3.50021 12.551 3.53779H15.4305C15.8375 3.50018 16.2482 3.53433 16.6429 3.63864C16.8777 3.73184 17.0845 3.88174 17.244 4.07432L17.2398 4.07028ZM14.1335 19.6143C15.3743 19.6846 16.6047 19.3578 17.6388 18.6834C17.7564 19.0454 17.7981 19.4269 17.7614 19.805C17.7247 20.1831 17.6104 20.5501 17.4254 20.884C17.045 21.5164 16.493 22.0334 15.8305 22.3776C15.1356 22.8092 14.5377 23.1844 14.5377 24.1798C14.5368 24.4991 14.6105 24.8143 14.7531 25.1015C14.2845 24.9112 13.8841 24.5892 13.6024 24.1764C13.3208 23.7636 13.1705 23.2783 13.1706 22.782V22.7205C13.1706 22.0317 13.1706 21.1835 12.1788 21.1835C12.0405 21.1834 11.9036 21.2098 11.7757 21.2612C11.5183 21.3654 11.3136 21.5653 11.2066 21.8169C11.1534 21.9418 11.1257 22.0758 11.1251 22.2112C10.4453 21.485 10.0802 20.529 10.1065 19.5447C10.1017 19.1187 10.1625 18.6944 10.2869 18.2861C10.6993 19.0495 12.2664 19.6173 14.1335 19.6173V19.6143Z" fill="#FF5D01"/>
</svg>
