<svg width="28" height="29" viewBox="0 0 28 29" fill="none" xmlns="http://www.w3.org/2000/svg">
<path fill-rule="evenodd" clip-rule="evenodd" d="M5.79964 3.02393C4.20212 3.02626 3.02233 4.4058 3.0774 5.89988C3.13031 7.3351 3.06722 9.19443 2.59441 10.7111C2.12019 12.2325 1.31599 13.1948 0 13.3202L0.00210975 14.7207C1.31852 14.8423 2.12557 15.8023 2.60437 17.3222C3.08174 18.8375 3.15044 20.6967 3.10191 22.1321C3.05128 23.6262 4.23523 25.0023 5.83275 25L22.2024 24.9761C23.7999 24.9737 24.9797 23.5942 24.9246 22.1002C24.8717 20.6649 24.9348 18.8056 25.4076 17.2889C25.8818 15.7675 26.684 14.8052 28 14.6798L27.9979 13.2793C26.6815 13.1577 25.8765 12.1977 25.3976 10.6778C24.9203 9.16249 24.8516 7.30335 24.9002 5.86799C24.9507 4.37375 23.7668 2.99767 22.1693 3L5.79964 3.02393ZM18.7559 16.5301C18.759 18.5875 17.2023 19.8371 14.6159 19.8409L9.73808 19.8481L9.72048 8.1598L14.5731 8.15271C16.7298 8.14956 18.1468 9.29773 18.1495 11.0635C18.1514 12.3028 17.2011 13.4139 15.9882 13.61L15.9883 13.6748C17.6398 13.8507 18.7535 14.9749 18.7559 16.5301ZM14.1204 9.63568L11.6098 9.63935L11.6151 13.1304L13.7297 13.1273C15.3641 13.1249 16.2645 12.4757 16.2628 11.3173C16.2611 10.2319 15.4852 9.63369 14.1204 9.63568ZM11.6172 14.5156L11.623 18.363L14.2262 18.3592C15.928 18.3568 16.8284 17.6831 16.8265 16.4195C16.8246 15.1559 15.8969 14.5093 14.1108 14.5119L11.6172 14.5156Z" fill="url(#paint0_linear_2033_952)"/>
<defs>
<linearGradient id="paint0_linear_2033_952" x1="1.8199" y1="2.77973" x2="30.4911" y2="16.1253" gradientUnits="userSpaceOnUse">
<stop stop-color="#9013FE"/>
<stop offset="1" stop-color="#6A10F3"/>
</linearGradient>
</defs>
</svg>
