<svg width="14" height="15" viewBox="0 0 14 15" fill="none" xmlns="http://www.w3.org/2000/svg">
<g clip-path="url(#clip0_2032_445)">
<path d="M9.73002 9.35642L9.71502 9.31642L9.70602 9.29442L9.73002 9.35642ZM9.73002 9.35642C9.68002 9.47142 9.62602 9.57942 9.55502 9.67942C9.45132 9.82529 9.32389 9.95272 9.17802 10.0564C9.07802 10.1264 8.97102 10.1814 8.85502 10.2314L8.81502 10.2154L8.79302 10.2074L8.75002 10.1904L8.53002 10.1054L8.47002 10.0824L8.34302 10.0334L8.16302 10.5004L9.73002 9.35642ZM1.77502 9.95642C1.76002 9.88642 1.72602 9.80042 1.68202 9.69342L1.67002 9.66342V9.66242C1.34358 8.85535 1.20467 7.98469 1.26376 7.11611C1.32285 6.24753 1.5784 5.40371 2.01114 4.64829C2.44387 3.89286 3.04249 3.24557 3.76185 2.75521C4.48121 2.26486 5.30253 1.94426 6.16385 1.81758C7.02517 1.69091 7.90402 1.76147 8.73409 2.02395C9.56417 2.28643 10.3238 2.73397 10.9557 3.33281C11.5876 3.93166 12.0753 4.66618 12.382 5.48096C12.6886 6.29575 12.8063 7.16954 12.726 8.03642L13.209 8.22442C13.3063 7.37949 13.23 6.5236 12.985 5.70915C12.74 4.8947 12.3313 4.13883 11.784 3.48782C11.2367 2.8368 10.5622 2.30435 9.802 1.92305C9.04175 1.54175 8.21167 1.31963 7.36259 1.27029C6.51351 1.22095 5.6633 1.34543 4.864 1.6361C4.0647 1.92677 3.33314 2.37752 2.7141 2.96076C2.09506 3.54399 1.60158 4.24744 1.26386 5.02802C0.926139 5.80861 0.75129 6.64991 0.750019 7.50042C0.747917 8.3557 0.921859 9.20226 1.26102 9.98742C1.29221 10.0689 1.30152 10.1572 1.28802 10.2434L1.28402 10.2704V10.2744L1.27102 10.3504L0.872019 12.7434C0.854019 12.8554 0.837019 12.9554 0.831019 13.0354C0.819902 13.1334 0.832949 13.2326 0.869019 13.3244C0.927772 13.4623 1.03735 13.5722 1.17502 13.6314C1.2669 13.6671 1.36611 13.6798 1.46402 13.6684C1.5622 13.6591 1.65995 13.6458 1.75702 13.6284L4.15002 13.2284L4.22502 13.2164L4.22902 13.2154L4.25602 13.2114C4.34257 13.1977 4.4312 13.2071 4.51302 13.2384L4.64902 13.2934C5.62226 13.6889 6.67967 13.832 7.72302 13.7094L7.53502 13.2254C6.61693 13.3123 5.69042 13.1765 4.83602 12.8294L4.80602 12.8174C4.70002 12.7744 4.61402 12.7404 4.54402 12.7244C4.4785 12.7089 4.41136 12.7011 4.34402 12.7014C4.27102 12.7014 4.19002 12.7144 4.09402 12.7314L4.06702 12.7354L1.99402 13.0814C1.91549 13.0945 1.83497 13.0886 1.75918 13.0642C1.68339 13.0399 1.61451 12.9978 1.55826 12.9414C1.50202 12.8851 1.46004 12.8161 1.43582 12.7403C1.4116 12.6645 1.40584 12.5839 1.41902 12.5054L1.76402 10.4324L1.76802 10.4064C1.78502 10.3094 1.79802 10.2284 1.79802 10.1564C1.79802 10.0834 1.79102 10.0264 1.77502 9.95642ZM1.77502 9.95642L2.26302 9.84642M9.37602 8.89142L9.53302 8.48342C9.56936 8.3892 9.63338 8.3082 9.71665 8.25107C9.79992 8.19394 9.89854 8.16336 9.99952 8.16336C10.1005 8.16336 10.1991 8.19394 10.2824 8.25107C10.3657 8.3082 10.4297 8.3892 10.466 8.48342V8.48442L10.623 8.89142L10.641 8.93642C10.724 9.15442 10.776 9.28442 10.851 9.38942C10.9222 9.48998 11.0097 9.57787 11.11 9.64942C11.216 9.72342 11.345 9.77642 11.564 9.85942L11.609 9.87742M9.37602 8.89142L9.58202 8.97042M9.37602 8.89142L9.35902 8.93642C9.27502 9.15442 9.22302 9.28442 9.14802 9.38942C9.07655 9.49006 8.98866 9.57796 8.88802 9.64942C8.78302 9.72342 8.65402 9.77642 8.43502 9.85942L8.39002 9.87742L7.98302 10.0334C7.88848 10.0696 7.80714 10.1336 7.74976 10.217C7.69238 10.3004 7.66165 10.3992 7.66165 10.5004C7.66165 10.6016 7.69238 10.7005 7.74976 10.7839C7.80714 10.8673 7.88848 10.9313 7.98302 10.9674L8.39002 11.1234M8.39002 11.1234L8.46902 10.9184M8.39002 11.1234L8.43502 11.1414C8.65402 11.2244 8.78302 11.2774 8.88902 11.3514C8.98902 11.4234 9.07602 11.5114 9.14802 11.6114C9.22302 11.7164 9.27502 11.8464 9.35902 12.0644M9.35902 12.0644L9.60502 11.9704M9.35902 12.0644L9.37602 12.1094L9.53302 12.5164C9.56936 12.6106 9.63338 12.6916 9.71665 12.7488C9.79992 12.8059 9.89854 12.8365 9.99952 12.8365C10.1005 12.8365 10.1991 12.8059 10.2824 12.7488C10.3657 12.6916 10.4297 12.6106 10.466 12.5164L10.623 12.1094L10.64 12.0644C10.724 11.8464 10.776 11.7164 10.851 11.6114C10.9225 11.5108 11.0104 11.4229 11.111 11.3514C11.216 11.2774 11.345 11.2244 11.563 11.1414L11.609 11.1234L12.016 10.9674C12.1106 10.9313 12.1919 10.8673 12.2493 10.7839C12.3067 10.7005 12.3374 10.6016 12.3374 10.5004C12.3374 10.3992 12.3067 10.3004 12.2493 10.217C12.1919 10.1336 12.1106 10.0696 12.016 10.0334L11.609 9.87742M11.609 9.87742L11.53 10.0824M8.75002 10.8104L8.79302 10.7934L8.74902 10.8104H8.75002ZM10 7.00042C10.03 7.00042 10.056 7.01842 10.066 7.04642L10.756 8.83942C10.852 9.08842 10.898 9.20942 10.968 9.30642C11.0299 9.39381 11.1059 9.4702 11.193 9.53242C11.291 9.60242 11.412 9.64842 11.66 9.74442L13.454 10.4344C13.4676 10.4395 13.4792 10.4486 13.4875 10.4605C13.4957 10.4723 13.5001 10.4865 13.5001 10.5009C13.5001 10.5154 13.4957 10.5295 13.4875 10.5414C13.4792 10.5533 13.4676 10.5624 13.454 10.5674L11.66 11.2574C11.412 11.3524 11.291 11.3994 11.193 11.4684C11.1059 11.5306 11.0299 11.607 10.968 11.6944C10.898 11.7914 10.852 11.9124 10.756 12.1614L10.066 13.9544C10.061 13.968 10.0519 13.9796 10.04 13.9879C10.0281 13.9961 10.014 14.0005 9.99952 14.0005C9.98506 14.0005 9.97094 13.9961 9.95905 13.9879C9.94717 13.9796 9.93809 13.968 9.93302 13.9544L9.24302 12.1614C9.14702 11.9124 9.10102 11.7914 9.03102 11.6944C8.96919 11.607 8.89313 11.5306 8.80602 11.4684C8.70802 11.3984 8.58702 11.3524 8.33902 11.2574L6.54502 10.5674C6.53113 10.5626 6.51911 10.5535 6.51059 10.5415C6.50208 10.5295 6.49751 10.5151 6.49751 10.5004C6.49751 10.4857 6.50208 10.4714 6.51059 10.4594C6.51911 10.4474 6.53113 10.4383 6.54502 10.4334L8.33902 9.74342C8.58702 9.64842 8.70802 9.60142 8.80602 9.53242C8.89313 9.4702 8.96919 9.39381 9.03102 9.30642C9.10102 9.20842 9.14702 9.08842 9.24302 8.83942L9.93302 7.04642C9.93814 7.03282 9.94731 7.02111 9.95929 7.01289C9.97127 7.00466 9.98549 7.00031 10 7.00042Z" stroke="black" stroke-linecap="round" stroke-linejoin="round"/>
</g>
<defs>
<clipPath id="clip0_2032_445">
<rect width="14" height="14" fill="white" transform="translate(0 0.5)"/>
</clipPath>
</defs>
</svg>
