<svg width="28" height="28" viewBox="0 0 28 28" fill="none" xmlns="http://www.w3.org/2000/svg">
<g clip-path="url(#clip0_2034_269)">
<path d="M0.977847 10.0687C1.02568 9.92525 3.04168 3.01041 11.0263 2.91358C11.0263 2.91358 14.3747 -0.87342 18.9363 2.91358C18.9363 2.91358 20.1742 3.93091 20.8532 6.04258C20.8532 6.04258 26.8428 6.95141 27.8123 11.9016C27.8123 11.9016 29.833 20.0531 22.9905 25.7802C22.9905 25.7802 22.0268 26.5514 21.3852 26.9096C21.3852 26.9096 19.9618 26.9119 19.6678 26.9096C19.0413 26.9049 18.6458 26.9096 18.0765 26.9096C18.0765 26.9096 17.2015 26.5969 17.1653 25.5971C17.1653 25.5971 17.0918 22.1204 17.1117 21.5196C17.1117 21.5196 17.1292 20.9572 16.3102 20.9922C16.3102 20.9922 15.5285 20.9024 15.4177 21.5744C15.4177 21.5744 15.399 25.1607 15.3815 25.7966C15.3815 25.7966 15.3267 26.8547 14.1437 26.9061C14.1437 26.9061 9.90285 27.0344 9.33935 26.8337C9.33935 26.8337 8.35701 26.6517 8.28351 25.7231C8.28351 25.7231 7.48201 20.9911 7.33735 19.5187C7.33735 19.5187 4.64351 18.0254 4.09751 17.6252C4.09751 17.6252 4.27951 22.4471 5.95368 24.4864C5.95368 24.4864 6.24535 24.7419 5.66201 25.1047C5.66201 25.1047 5.44385 25.2867 5.22451 25.1794C5.22451 25.1794 -1.95632 21.1684 0.688514 10.9309" fill="url(#paint0_linear_2034_269)"/>
<path d="M9.0166 16.6651C9.0166 16.6651 15.2816 20.2362 19.0721 14.5033C19.0721 14.5033 22.1416 10.4946 20.9189 6.21875C20.9189 6.21875 23.0714 9.81208 18.9064 15.3876C18.9064 15.3876 15.3749 20.3587 9.0166 16.6651Z" fill="#006699"/>
<path d="M6.53683 15.8226C6.53683 15.8226 6.98366 17.8911 5.60933 18.5421C5.60933 18.5421 2.48266 17.2541 2.79883 14.8752C2.79883 14.8752 2.89683 14.2814 3.47899 14.6454C3.47899 14.6454 4.86266 15.3979 5.95466 15.6149C5.95466 15.6149 6.50883 15.6662 6.53683 15.8226Z" fill="#CEE6FF"/>
<path d="M5.66895 12.327C5.66895 12.327 6.14028 10.3122 7.91945 10.4394C7.91945 10.4394 9.43145 10.4802 9.48511 12.5592C9.48511 12.5592 8.29395 9.45004 5.66895 12.327Z" fill="#006699"/>
</g>
<defs>
<linearGradient id="paint0_linear_2034_269" x1="14.0976" y1="2.00451" x2="14.0976" y2="26.2492" gradientUnits="userSpaceOnUse">
<stop offset="0.0181" stop-color="#3BB6FF"/>
<stop offset="0.3023" stop-color="#39AFFF"/>
<stop offset="0.5519" stop-color="#36A3FF"/>
<stop offset="0.7173" stop-color="#359FFF"/>
<stop offset="0.8316" stop-color="#3398FF"/>
<stop offset="0.9639" stop-color="#3297FF"/>
</linearGradient>
<clipPath id="clip0_2034_269">
<rect width="28" height="28" fill="white"/>
</clipPath>
</defs>
</svg>
