<svg width="28" height="29" viewBox="0 0 28 29" fill="none" xmlns="http://www.w3.org/2000/svg">
<g clip-path="url(#clip0_2033_944)">
<g clip-path="url(#clip1_2033_944)">
<path fill-rule="evenodd" clip-rule="evenodd" d="M26.8055 7.2267C26.8151 7.26339 26.82 7.30123 26.8201 7.33924V13.2472C26.8201 13.3231 26.8008 13.3976 26.764 13.4632C26.7273 13.5288 26.6746 13.5832 26.611 13.6209L21.8224 16.4759V22.1345C21.8224 22.2885 21.7433 22.4307 21.6144 22.5082L11.6184 28.4669C11.5955 28.4803 11.5706 28.4889 11.5456 28.4981C11.5362 28.5013 11.5274 28.5072 11.5175 28.5099C11.4476 28.529 11.3742 28.529 11.3043 28.5099C11.2929 28.5067 11.2825 28.5002 11.2716 28.4959C11.2487 28.4873 11.2248 28.4798 11.2029 28.4669L1.20904 22.5082C1.14555 22.4705 1.0928 22.416 1.0561 22.3504C1.0194 22.2848 1.00005 22.2104 1 22.1345V4.41055C1 4.37178 1.0052 4.33408 1.01456 4.29747C1.01768 4.28508 1.02496 4.27378 1.02912 4.26139C1.03692 4.23878 1.0442 4.21562 1.05564 4.19462C1.06344 4.18062 1.07488 4.16932 1.08424 4.15639C1.0962 4.13916 1.10712 4.12139 1.12116 4.10632C1.13312 4.09393 1.14872 4.08478 1.16224 4.07401C1.17732 4.06108 1.19084 4.04708 1.208 4.03685L6.20572 1.05755C6.26899 1.01984 6.34072 1 6.41372 1C6.48672 1 6.55845 1.01984 6.62172 1.05755L11.6189 4.03685H11.62C11.6366 4.04762 11.6506 4.06108 11.6657 4.07347C11.6792 4.08424 11.6943 4.09393 11.7063 4.10578C11.7208 4.12139 11.7312 4.13916 11.7437 4.15639C11.7526 4.16932 11.7645 4.18062 11.7718 4.19462C11.7838 4.21616 11.7905 4.23878 11.7988 4.26139C11.803 4.27378 11.8103 4.28508 11.8134 4.29801C11.823 4.3347 11.8279 4.37254 11.828 4.41055V15.4808L15.9921 12.9979V7.3387C15.9921 7.30101 15.9973 7.26278 16.0067 7.2267C16.0103 7.21378 16.0171 7.20247 16.0212 7.19008C16.0296 7.16747 16.0368 7.14432 16.0483 7.12332C16.0561 7.10932 16.0675 7.09801 16.0764 7.08508C16.0888 7.06785 16.0992 7.05008 16.1138 7.03501C16.1258 7.02262 16.1408 7.01347 16.1544 7.0027C16.17 6.98978 16.1835 6.97578 16.2001 6.96555L21.1984 3.98624C21.2616 3.94848 21.3333 3.92861 21.4064 3.92861C21.4794 3.92861 21.5511 3.94848 21.6144 3.98624L26.6116 6.96555C26.6292 6.97632 26.6428 6.98978 26.6584 7.00216C26.6714 7.01293 26.6864 7.02262 26.6984 7.03447C26.713 7.05008 26.7234 7.06785 26.7358 7.08508C26.7452 7.09801 26.7566 7.10932 26.7639 7.12332C26.7759 7.14432 26.7826 7.16747 26.791 7.19008C26.7956 7.20247 26.8024 7.21378 26.8055 7.2267ZM25.987 12.9979V8.08501L24.2383 9.12747L21.8224 10.5679V15.4808L25.9876 12.9979H25.987ZM20.9898 21.8852V16.9691L18.6134 18.3745L11.8274 22.3849V27.3474L20.9898 21.8852ZM1.83304 5.15632V21.8852L10.9944 27.3469V22.3855L6.20832 19.5806L6.20676 19.5795L6.20468 19.5785C6.18856 19.5688 6.17504 19.5548 6.15996 19.5429C6.14696 19.5322 6.13188 19.5235 6.12044 19.5117L6.1194 19.5101C6.10588 19.4966 6.09652 19.4799 6.08508 19.4649C6.07468 19.4503 6.0622 19.4379 6.05388 19.4229L6.05336 19.4212C6.044 19.4051 6.03828 19.3857 6.03152 19.3674C6.02476 19.3512 6.01592 19.3362 6.01176 19.3189C6.00656 19.2985 6.00552 19.2764 6.00344 19.2554C6.00136 19.2392 5.9972 19.2231 5.9972 19.2069V19.2059V7.63916L3.5818 6.19824L1.83304 5.15632ZM6.41424 1.92878L2.2506 4.41055L6.4132 6.89232L10.5763 4.41001L6.4132 1.92878H6.41424ZM8.57952 17.4171L10.9949 15.9772V5.15632L9.24616 6.19878L6.83024 7.63916V18.4601L8.57952 17.4171ZM21.4064 4.85747L17.2432 7.33924L21.4064 9.82101L25.569 7.3387L21.4064 4.85747ZM20.9898 10.5679L18.5739 9.12747L16.8252 8.08501V12.9979L19.2406 14.4378L20.9898 15.4808V10.5679ZM11.4104 21.6392L17.5168 18.0293L20.5692 16.2255L16.4092 13.7453L11.6194 16.6008L7.25404 19.2032L11.4104 21.6392Z" fill="#FF2D20"/>
</g>
</g>
<defs>
<clipPath id="clip0_2033_944">
<rect width="28" height="28" fill="white" transform="translate(0 0.5)"/>
</clipPath>
<clipPath id="clip1_2033_944">
<rect width="26" height="28" fill="white" transform="translate(1 1)"/>
</clipPath>
</defs>
</svg>
