<svg width="70" height="21" viewBox="0 0 70 21" fill="none" xmlns="http://www.w3.org/2000/svg">
<g clip-path="url(#clip0_2032_518)">
<path d="M36 21H32.9785V7.56485H27.1803C26.1535 7.56485 24.5246 8.5266 23.8438 9.28086C20.8167 12.6372 23.2192 18.0194 27.7064 17.9913V21C23.8607 21.0112 20.3989 18.1708 19.6576 14.4247C18.7292 9.7365 22.0053 5.20112 26.7668 4.63472C29.6392 4.29404 32.8463 4.72865 35.7566 4.552L35.9986 4.65996V21H36Z" fill="#212529"/>
<path d="M57.3939 4.50021C63.5563 4.45674 67.5782 11.1005 64.6958 16.5679C61.8218 22.0184 54.0831 22.4222 50.6379 17.3111C46.9841 11.8914 50.9025 4.54649 57.3925 4.50021H57.3939ZM56.9067 7.51082C52.7854 7.9357 50.7653 12.859 53.4265 16.0617C55.7784 18.8914 60.3491 18.4469 62.0528 15.1797C63.9888 11.4679 61.056 7.08314 56.9067 7.50942V7.51082Z" fill="#212529"/>
<path d="M49.6764 4.5V7.52008H40.7072V21H37.7646V4.5H49.6764Z" fill="#212529"/>
<path d="M69.8825 0H66.9707V20.9118H69.8825V0Z" fill="#212529"/>
<path d="M18.1748 7.02539H13.9641L12.1421 10.4618L18.1748 7.02539Z" fill="#EC5F73"/>
<path d="M18.1748 7.02445L12.1421 3.51172L13.9641 7.02445H18.1748Z" fill="#CF3A56"/>
<path d="M13.9746 6.98748L12.1419 10.4608V3.51172L13.9746 6.98748Z" fill="#F18984"/>
<path d="M16.3528 3.51172L17.0342 4.82222L18.1748 7.02445L17.2443 6.48251L13.6515 4.39113L12.7063 3.83934L12.1421 3.51172L16.3528 3.51172Z" fill="#F3DA2D"/>
<path d="M18.1748 0L12.1421 3.51273L16.3528 3.51273L18.1748 0Z" fill="#F4AE21"/>
<path d="M18.1748 0L16.3421 3.51149L18.1748 7.02545V0Z" fill="#EEC600"/>
<path d="M12.1416 10.4618L6.03251 7.02539L7.87835 10.4618H12.1416Z" fill="#337CC0"/>
<path d="M7.87588 10.4609L6.03251 13.9737L12.1416 10.4609H7.87588Z" fill="#4C9CBF"/>
<path d="M7.86523 10.4987L6.03251 7.02539V13.9745L7.86523 10.4987Z" fill="#63B8E8"/>
<path d="M6.03251 7.02539L12.1416 10.4618L10.2982 7.02539H6.03251Z" fill="#C994C2"/>
<path d="M10.2982 7.02445L12.1416 3.51172L6.03251 7.02445H10.2982Z" fill="#6D2269"/>
<path d="M10.3089 6.98748L12.1416 10.4608V3.51172L10.3089 6.98748Z" fill="#A43A8D"/>
<path d="M18.1748 13.9746H13.9641L12.1421 17.4873L18.1748 13.9746Z" fill="#DA2887"/>
<path d="M18.1748 13.9737L12.1421 10.4609L13.9641 13.9737H18.1748Z" fill="#B71666"/>
<path d="M13.9746 13.9737L12.1419 17.4864V10.4609L13.9746 13.9737Z" fill="#E96698"/>
<path d="M12.1421 17.4873H16.3528L18.1748 13.9746L12.1421 17.4873Z" fill="#443E8B"/>
<path d="M18.1748 21.001L16.3528 17.4883H12.1421L18.1748 21.001Z" fill="#9091C7"/>
<path d="M18.1748 13.9746L16.3421 17.4886L18.1748 21.0001V13.9746Z" fill="#6466AD"/>
<path d="M6.03251 13.9737L12.1416 10.4609L10.2982 13.9737H6.03251Z" fill="#AC1926"/>
<path d="M10.2982 13.9746L12.1416 17.4873L6.03251 13.9746H10.2982Z" fill="#EB5D0B"/>
<path d="M10.3089 13.9737L12.1416 10.4609V17.4864L10.3089 13.9737Z" fill="#E21617"/>
<path d="M0.000475481 10.4609L6.0332 13.9737L4.21117 10.4609H0.000475481Z" fill="#6BB644"/>
<path d="M4.21117 10.4618L6.0332 7.02539L0.000475481 10.4618H4.21117Z" fill="#3D7423"/>
<path d="M4.20048 10.4987L6.0332 13.9745V7.02539L4.20048 10.4987Z" fill="#4B8D2B"/>
<path d="M2.91176 0H0V5.82353H2.91176V0Z" fill="#212529"/>
<path d="M2.91176 15.1758H0V20.9993H2.91176V15.1758Z" fill="#212529"/>
</g>
<defs>
<clipPath id="clip0_2032_518">
<rect width="70" height="21" fill="white"/>
</clipPath>
</defs>
</svg>
