<svg width="16" height="17" viewBox="0 0 16 17" fill="none" xmlns="http://www.w3.org/2000/svg">
<path d="M5.70117 3.03516L5.68024 5.85244L7.97038 7.0886L5.70117 3.03516Z" fill="#EC5F73"/>
<path d="M5.70088 3.03504L3.3206 7.05395L5.67995 5.85232L5.70088 3.03504Z" fill="#CF3A56"/>
<path d="M5.65564 5.8454L7.97046 7.0889L3.32097 7.05436L5.65564 5.8454Z" fill="#F18984"/>
<path d="M3.34153 4.23666L4.22174 3.78724L5.70088 3.03504L5.33365 3.65496L3.9165 6.04841L3.54261 6.67808L3.3206 7.05395L3.34153 4.23666Z" fill="#F3DA2D"/>
<path d="M1.00098 3L3.32128 7.05383L3.34221 4.23654L1.00098 3Z" fill="#F4AE21"/>
<path d="M1.00098 3L3.34133 4.24369L5.70156 3.03492L1.00098 3Z" fill="#EEC600"/>
<path d="M7.97107 7.08935L5.64151 11.1597L7.94988 9.94179L7.97107 7.08935Z" fill="#337CC0"/>
<path d="M7.94852 9.94199L10.2897 11.1928L7.96973 7.08789L7.94852 9.94199Z" fill="#4C9CBF"/>
<path d="M7.97334 9.95086L5.6403 11.1598L10.2898 11.1944L7.97334 9.95086Z" fill="#63B8E8"/>
<path d="M5.64151 11.1597L7.97107 7.08935L5.66271 8.30562L5.64151 11.1597Z" fill="#C994C2"/>
<path d="M5.66242 8.3055L3.32129 7.05469L5.64122 11.1596L5.66242 8.3055Z" fill="#6D2269"/>
<path d="M5.63774 8.2982L7.97078 7.08923L3.32129 7.05469L5.63774 8.2982Z" fill="#A43A8D"/>
<path d="M10.3506 3.07031L10.3297 5.8876L12.6709 7.12414L10.3506 3.07031Z" fill="#DA2887"/>
<path d="M10.3503 3.07019L7.97002 7.0891L10.3294 5.88748L10.3503 3.07019Z" fill="#B71666"/>
<path d="M10.3298 5.88074L12.671 7.12444L7.97038 7.08952L10.3298 5.88074Z" fill="#E96698"/>
<path d="M12.6709 7.12414L12.6918 4.30685L10.3506 3.07031L12.6709 7.12414Z" fill="#443E8B"/>
<path d="M15.0515 3.10535L12.6921 4.30697L12.6712 7.12426L15.0515 3.10535Z" fill="#9091C7"/>
<path d="M10.3506 3.07031L12.6926 4.31402L15.0512 3.10523L10.3506 3.07031Z" fill="#6466AD"/>
<path d="M10.2897 11.1928L7.96973 7.08789L10.3109 8.33871L10.2897 11.1928Z" fill="#AC1926"/>
<path d="M10.3112 8.34078L12.6706 7.12488L10.2899 11.1949L10.3112 8.34078Z" fill="#EB5D0B"/>
<path d="M10.3109 8.33159L7.96973 7.08789L12.6703 7.12281L10.3109 8.33159Z" fill="#E21617"/>
<path d="M7.90947 15.2141L10.2897 11.1952L7.9304 12.3968L7.90947 15.2141Z" fill="#6BB644"/>
<path d="M7.93077 12.3963L5.64062 11.1602L7.90984 15.2136L7.93077 12.3963Z" fill="#3D7423"/>
<path d="M7.95544 12.4037L10.2901 11.1947L5.64062 11.1602L7.95544 12.4037Z" fill="#4B8D2B"/>
</svg>
