<svg width="151" height="150" viewBox="0 0 151 150" fill="none" xmlns="http://www.w3.org/2000/svg">
<circle cx="75" cy="75" r="75" fill="url(#paint0_linear_237_2356)"/>
<path d="M134.095 120.843C128.873 128.967 111.168 145.148 94.4998 147C81.0002 148.5 62.864 139.22 59.0002 123.5C55.1363 107.78 64.9721 87.5413 73.0458 78C69.2653 83.8542 67.0711 90.8289 67.0711 98.316C67.0711 119.027 83.8604 135.815 104.571 135.815C116.831 135.815 127.252 129.94 134.095 120.843Z" fill="url(#paint1_radial_237_2356)"/>
<path d="M134.372 120.834C141.83 111.796 150.14 94.9074 150.14 74.5265C150.14 52.5582 140.905 34.9276 128.451 22.0545C115.718 8.89205 94.5895 -1.03323 72.9011 0.0861285C80.1772 0.0861285 91.9092 12.6795 92.4906 29.8903C93.0955 47.7955 85.2153 59.4198 78.1429 69.8524C76.267 72.6197 74.4478 75.3032 72.8589 77.9977C69.0785 83.852 66.8843 90.8266 66.8843 98.3138C66.8843 119.024 83.6736 135.814 104.384 135.814C116.644 135.814 127.53 129.931 134.372 120.834Z" fill="url(#paint2_linear_237_2356)"/>
<defs>
<linearGradient id="paint0_linear_237_2356" x1="115.998" y1="85.6343" x2="1.42075e-05" y2="150" gradientUnits="userSpaceOnUse">
<stop stop-color="#393738"/>
<stop offset="1" stop-color="#727071"/>
</linearGradient>
<radialGradient id="paint1_radial_237_2356" cx="0" cy="0" r="1" gradientUnits="userSpaceOnUse" gradientTransform="translate(88.6029 98.2892) rotate(99.0494) scale(54.2669 52.7863)">
<stop offset="0.276042" stop-color="#272526"/>
<stop offset="1" stop-color="#686667"/>
</radialGradient>
<linearGradient id="paint2_linear_237_2356" x1="120.336" y1="13.4328" x2="77.7985" y2="123.974" gradientUnits="userSpaceOnUse">
<stop stop-color="#9D9D9D"/>
<stop offset="1" stop-color="#433F40"/>
</linearGradient>
</defs>
</svg>
