<svg width="29" height="29" viewBox="0 0 29 29" fill="none" xmlns="http://www.w3.org/2000/svg">
<path d="M26.0226 2.97776C27.2925 4.24761 27.9518 5.83829 28 7.74992V21.2501C27.9518 23.1612 27.2926 24.7524 26.0226 26.0222C24.7528 27.2921 23.1615 27.9514 21.25 28H7.75C5.83835 27.9515 4.24764 27.2922 2.97778 26.0222C1.70792 24.7525 1.04852 23.1613 1 21.2502V7.75003C1.04852 5.8384 1.70781 4.24771 2.97778 2.97786C4.24764 1.70791 5.83835 1.04852 7.75 1H21.25C23.1615 1.04852 24.7528 1.7078 26.0226 2.97776ZM24.1606 13.8411C23.7363 13.419 23.5157 12.8893 23.4982 12.2521V7.75003C23.4847 7.11278 23.266 6.58227 22.8421 6.15839C22.4181 5.73409 21.8871 5.51577 21.25 5.50237H19.0022V16.7481L9.99821 5.50216H7.75C7.11275 5.51566 6.58223 5.73398 6.15835 6.15829C5.73404 6.58227 5.51572 7.11278 5.50232 7.74982V12.2521C5.48471 12.8893 5.26417 13.419 4.83986 13.8411C4.41587 14.2626 3.88535 14.4823 3.24821 14.4998C3.88535 14.5178 4.41598 14.7375 4.83976 15.159C5.26417 15.5811 5.48471 16.1108 5.50221 16.748V21.2501C5.51572 21.8868 5.73404 22.4178 6.15835 22.8417C6.58234 23.2657 7.11285 23.4843 7.74989 23.4977H9.99821V12.2522L19.0022 23.498H21.25C21.8871 23.4845 22.4182 23.2658 22.8421 22.8419C23.2661 22.4179 23.4847 21.887 23.4981 21.2504V16.7481C23.5157 16.1109 23.7363 15.5812 24.1606 15.1591C24.5846 14.7376 25.1151 14.5179 25.7522 14.4999C25.1151 14.4823 24.5844 14.2627 24.1607 13.8412L24.1606 13.8411Z" fill="#3C5AFD"/>
</svg>
