<svg width="29" height="29" viewBox="0 0 29 29" fill="none" xmlns="http://www.w3.org/2000/svg">
<g clip-path="url(#clip0_2032_449)">
<g clip-path="url(#clip1_2032_449)">
<path d="M14.7344 28.4258C22.2986 28.4258 28.4307 22.2937 28.4307 14.7295C28.4307 7.16524 22.2986 1.0332 14.7344 1.0332C7.17012 1.0332 1.03809 7.16524 1.03809 14.7295C1.03809 22.2937 7.17012 28.4258 14.7344 28.4258Z" fill="#434343"/>
<path d="M23.7904 25.0038L11.5603 9.25H9.25586V20.2026H11.0994V11.591L22.3433 26.1184C22.8499 25.7794 23.3333 25.407 23.7904 25.0038Z" fill="url(#paint0_linear_2032_449)"/>
<path fill-rule="evenodd" clip-rule="evenodd" d="M18.5391 9.25H20.3651V20.207H18.5391V9.25Z" fill="url(#paint1_linear_2032_449)"/>
</g>
</g>
<defs>
<linearGradient id="paint0_linear_2032_449" x1="17.6259" y1="18.7615" x2="23.0283" y2="25.4575" gradientUnits="userSpaceOnUse">
<stop stop-color="white"/>
<stop offset="1" stop-color="white" stop-opacity="0"/>
</linearGradient>
<linearGradient id="paint1_linear_2032_449" x1="19.4521" y1="9.25023" x2="19.4215" y2="17.2968" gradientUnits="userSpaceOnUse">
<stop stop-color="white"/>
<stop offset="1" stop-color="white" stop-opacity="0"/>
</linearGradient>
<clipPath id="clip0_2032_449">
<rect width="29" height="28" fill="white" transform="translate(0 0.5)"/>
</clipPath>
<clipPath id="clip1_2032_449">
<rect width="27.5" height="27.5" fill="white" transform="translate(1 1)"/>
</clipPath>
</defs>
</svg>
