<svg width="28" height="29" viewBox="0 0 28 29" fill="none" xmlns="http://www.w3.org/2000/svg">
<path d="M15.68 24H26.04C26.3706 24 26.687 23.8818 26.9733 23.715C27.2597 23.5482 27.5548 23.3389 27.72 23.05C27.8852 22.7611 28.0001 22.4334 28 22.0999C27.9999 21.7664 27.8855 21.4388 27.72 21.1501L20.72 8.89502C20.5548 8.60619 20.3529 8.39674 20.0667 8.22997C19.7804 8.06328 19.3705 7.94497 19.04 7.94497C18.7095 7.94497 18.3929 8.06328 18.1067 8.22997C17.8204 8.39674 17.6185 8.60619 17.4533 8.89502L15.68 12.03L12.1333 5.94978C11.968 5.66101 11.7663 5.35672 11.48 5.19002C11.1937 5.02326 10.8773 5 10.5467 5C10.2161 5 9.89965 5.02326 9.61331 5.19002C9.32704 5.35672 9.03205 5.66101 8.86669 5.94978L0.186669 21.1501C0.0211855 21.4388 0.000146007 21.7664 7.24133e-07 22.0999C-0.000144559 22.4334 0.0214365 22.7611 0.186669 23.05C0.351902 23.3388 0.647032 23.5482 0.933332 23.715C1.21964 23.8818 1.53606 24 1.86667 24H8.4C10.9887 24 12.873 22.818 14.1867 20.58L17.36 14.975L19.04 12.03L24.1733 20.96H17.36L15.68 24ZM8.30669 20.96H3.73331L10.5467 8.99L14 14.975L11.7125 19.0338C10.8402 20.4859 9.8455 20.96 8.30669 20.96Z" fill="#00DC82"/>
</svg>
