<svg width="30" height="31" viewBox="0 0 30 31" fill="none" xmlns="http://www.w3.org/2000/svg">
<path fill-rule="evenodd" clip-rule="evenodd" d="M10.1825 4.4354L11.2989 11.151L8.5752 13.7943L19.6659 24.8163L19.6589 24.7528L19.6922 24.7857V24.8405L19.7656 24.8277L24.9614 29.9967L14.6222 26.1324C14.6222 26.1324 13.1403 26.1324 9.76886 26.2524C8.17633 26.3095 7.03581 25.5325 6.31002 24.3244L1.5627 16.4444C0.628384 14.881 0.876525 12.7514 2.16616 11.449L9.76187 2.02539L10.1825 4.4354ZM24.9615 29.9967L24.9638 29.999V30.0002L24.9615 29.9967Z" fill="#18B6F6"/>
<path fill-rule="evenodd" clip-rule="evenodd" d="M27.8103 11.2556C28.5489 12.6128 28.281 13.9631 27.533 15.5067L22.5958 24.4468L25.2578 29.6845C25.3778 29.9001 25.0842 30.1098 24.9037 29.935L20.5979 25.7294L19.7078 24.8627L19.6857 24.8405H19.702V24.8137L19.6857 24.8347L19.5377 23.6427L18.6663 15.6665L20.4813 13.6883V13.6848L13.5696 6.14265L9.78098 1.97651L1.64355 12.1002L6.19049 3.06927C6.90696 1.85186 8.21058 1.10044 9.62371 1.09112L17.1076 1.07132L19.6146 1.00026C21.0604 0.983946 22.4024 1.75051 23.1236 3.0052L25.9824 7.96454L26.0022 7.94241L26.2143 8.32918L26.7595 9.32175L27.8103 11.2556Z" fill="#AC7EF4"/>
</svg>
