<svg width="28" height="29" viewBox="0 0 28 29" fill="none" xmlns="http://www.w3.org/2000/svg">
<path d="M11.3975 14.003C11.3975 15.505 12.5652 16.7226 14.0057 16.7226C15.4462 16.7226 16.6139 15.505 16.6139 14.003C16.6139 12.501 15.4462 11.2834 14.0057 11.2834C12.5652 11.2834 11.3975 12.501 11.3975 14.003Z" fill="#61DAFB"/>
<path fill-rule="evenodd" clip-rule="evenodd" d="M5.88422 9.09934C2.32287 10.236 6.83591e-07 12.0689 6.83591e-07 14.003C6.83591e-07 15.9311 2.31145 17.764 5.84998 18.9007C5.02242 22.6736 5.38198 25.6789 6.98573 26.6429C7.36241 26.8691 7.79617 26.9762 8.27558 26.9762C9.84509 26.9762 11.8997 25.8217 13.9772 23.8103C16.0546 25.8336 18.1093 27 19.6788 27C20.1582 27 20.5919 26.8929 20.9629 26.6667C22.5724 25.7027 22.9376 22.6915 22.1158 18.9066C25.6771 17.77 28 15.9371 28 14.003C28 12.0748 25.6885 10.2479 22.1386 9.10529C22.9662 5.33234 22.6066 2.32708 21.0029 1.36301C20.6262 1.13687 20.1924 1.02976 19.713 1.02976V1.0238C18.1435 1.0238 16.0889 2.1783 14.0114 4.18975C11.934 2.1664 9.87933 1 8.30982 1V1.00596C7.83834 1.00681 7.40658 1.11398 7.0371 1.33921C5.42764 2.30327 5.06237 5.31449 5.88422 9.09934ZM8.31553 2.32708C9.50254 2.33024 11.2464 3.31783 13.104 5.1181C12.2992 5.9929 11.5002 6.99268 10.7297 8.09361C9.44558 8.23644 8.22421 8.45663 7.10559 8.74227C6.98002 8.14122 6.87729 7.55207 6.81451 6.99268C6.55198 4.71939 6.88871 2.95193 7.6649 2.48775C7.84183 2.38659 8.053 2.33303 8.31553 2.33303V2.32708ZM14.9189 5.12406C16.7795 3.3328 18.5316 2.35088 19.713 2.35088V2.35683C19.9755 2.35683 20.1981 2.40444 20.3693 2.51156C21.1398 2.98169 21.4709 4.74914 21.2026 7.02243C21.1341 7.57588 21.0371 8.15312 20.9058 8.74823C19.7872 8.45663 18.5658 8.23644 17.276 8.09361C16.5169 6.99268 15.7179 5.99886 14.9189 5.12406ZM8.20139 12.3843C7.90461 11.5928 7.64207 10.8013 7.4309 10.0336C8.17856 9.84321 8.96045 9.68849 9.77089 9.56351C9.49123 10.0158 9.21158 10.48 8.94904 10.9561C8.6808 11.4321 8.43539 11.9082 8.20139 12.3843ZM11.4203 18.6448C10.9466 17.9366 10.49 17.1749 10.0448 16.3715C9.6168 15.5919 9.22299 14.7945 8.86343 13.997C9.22299 13.1996 9.61679 12.4081 10.0505 11.6285C10.4957 10.8311 10.958 10.0753 11.4317 9.36713C12.2764 9.29572 13.1382 9.25406 14 9.25406C14.8675 9.25406 15.7293 9.29572 16.5797 9.37308C17.0534 10.0813 17.51 10.843 17.9552 11.6464C18.3832 12.426 18.7827 13.2234 19.1366 14.0208C18.777 14.8183 18.3832 15.6097 17.9494 16.3893C17.5043 17.1868 17.042 17.9426 16.5683 18.6507C15.7236 18.7221 14.8618 18.7638 14 18.7638C13.1325 18.7638 12.2707 18.7221 11.4203 18.6448ZM7.41378 17.9664C7.63065 17.1927 7.89319 16.3953 8.20139 15.5978C8.43539 16.0739 8.6808 16.556 8.94333 17.032C9.20587 17.5141 9.48553 17.9842 9.76518 18.4424C8.94904 18.3175 8.16143 18.1568 7.41378 17.9664ZM15.5752 20.0433C15.0501 20.7395 14.5194 21.3763 13.9886 21.9476C13.4635 21.3763 12.9327 20.7395 12.4191 20.0433C12.9384 20.073 13.4692 20.0849 14.0057 20.0849C14.5365 20.0849 15.0616 20.0671 15.5752 20.0433ZM20.5748 17.9723C19.8272 18.1627 19.0453 18.3175 18.2348 18.4424C18.5145 17.9902 18.7884 17.526 19.0567 17.0499C19.3249 16.5738 19.5703 16.0977 19.8043 15.6217C20.1011 16.4131 20.3636 17.2046 20.5748 17.9723ZM12.4305 7.96269C12.9556 7.26642 13.4863 6.62966 14.0171 6.05837C14.5422 6.62966 15.073 7.26642 15.5866 7.96269C15.0673 7.93294 14.5365 7.92103 14 7.92103C13.4692 7.92103 12.9442 7.93889 12.4305 7.96269ZM19.0624 10.9739C18.7998 10.4919 18.5202 10.0217 18.2405 9.56351C19.0567 9.68849 19.8443 9.84916 20.5919 10.0336C20.3751 10.8073 20.1125 11.6047 19.8043 12.4022C19.5703 11.9261 19.3249 11.45 19.0624 10.9739ZM26.733 14.003C26.733 14.9373 25.426 16.1156 23.4056 17.0142C22.9091 17.2344 22.3726 17.4367 21.8076 17.6212C21.488 16.4607 21.0656 15.2527 20.5406 14.0149C21.0713 12.7711 21.4994 11.5571 21.8247 10.3907C22.3783 10.5752 22.9148 10.7716 23.4056 10.9918C25.426 11.8844 26.733 13.0687 26.733 14.003ZM21.1855 21.0133C21.448 23.2866 21.1113 25.054 20.3351 25.5182C20.1639 25.6194 19.947 25.6729 19.6902 25.6789C18.5031 25.6789 16.7566 24.691 14.896 22.8878C15.7008 22.013 16.4998 21.0133 17.2703 19.9123C18.5544 19.7695 19.7758 19.5493 20.8944 19.2637C21.02 19.8647 21.1227 20.4539 21.1855 21.0133ZM7.63066 25.4944C6.86017 25.0243 6.52915 23.2568 6.79739 20.9835C6.86017 20.4301 6.9629 19.8528 7.09417 19.2518C8.2128 19.5434 9.43416 19.7636 10.724 19.9064C11.4831 21.0073 12.2821 22.0011 13.0811 22.8759C11.2205 24.6672 9.46841 25.6491 8.287 25.6491C8.02446 25.6491 7.80188 25.6015 7.63066 25.4944ZM6.181 17.6152C5.62739 17.4308 5.09091 17.2344 4.60008 17.0142C2.5797 16.1215 1.27273 14.9373 1.26702 14.003C1.26702 13.0687 2.57399 11.8904 4.59437 10.9918C5.09662 10.7716 5.6331 10.5692 6.19812 10.3848C6.51773 11.5452 6.94007 12.7533 7.46514 13.9911C6.93437 15.2348 6.50632 16.4488 6.181 17.6152Z" fill="#61DAFB"/>
</svg>
