<svg width="28" height="29" viewBox="0 0 28 29" fill="none" xmlns="http://www.w3.org/2000/svg">
<g clip-path="url(#clip0_2032_467)">
<path d="M8.38384 3.90222C7.94082 3.92631 7.5838 3.99673 7.224 4.13386C7.04457 4.2015 6.75046 4.34882 6.5886 4.45075C5.91157 4.87605 5.39548 5.51538 5.12634 6.25942C5.07269 6.40675 4.92748 6.87651 4.83406 7.19989C4.21161 9.36156 3.8583 11.7253 3.78246 14.227C3.77043 14.6254 3.77043 15.5742 3.78246 15.9662C3.83332 17.6248 3.99148 19.1221 4.2782 20.6491C4.39474 21.2671 4.58157 22.0973 4.68978 22.4744C4.91083 23.2407 5.36218 23.893 6.00407 24.3711C6.43414 24.6917 6.92249 24.9067 7.46357 25.0123C7.72439 25.0633 8.06841 25.0864 8.32188 25.0698C8.67237 25.0466 9.36791 24.953 9.93306 24.852C12.4802 24.3971 14.8332 23.5826 16.9669 22.417C18.3182 21.6785 19.4733 20.8789 20.5879 19.9088C21.6987 18.9433 22.6458 17.9046 23.4791 16.739C23.6724 16.4693 23.7695 16.3118 23.8666 16.1135C24.1164 15.602 24.2338 15.0934 24.2329 14.5245C24.2329 13.9944 24.133 13.5237 23.9175 13.0419C23.8139 12.8094 23.715 12.6426 23.4929 12.3257C22.6753 11.1591 21.768 10.1427 20.6619 9.15496C18.9471 7.62428 16.9104 6.36875 14.6361 5.4394C14.1432 5.23834 13.6576 5.06136 13.073 4.86956C11.8356 4.46464 10.3039 4.11348 9.00816 3.93835C8.80466 3.91055 8.52811 3.8948 8.38384 3.90222Z" fill="#0B84F3" fill-opacity="0.2"/>
<path d="M6.85891 1.03748C6.29591 1.06809 5.84221 1.15758 5.385 1.33185C5.15698 1.41781 4.78321 1.60503 4.57752 1.73456C3.71715 2.27503 3.0613 3.08749 2.71927 4.03303C2.6511 4.22025 2.46656 4.81723 2.34785 5.22818C1.55683 7.97529 1.10784 10.9791 1.01146 14.1583C0.99618 14.6646 0.99618 15.8704 1.01146 16.3685C1.07611 18.4762 1.27709 20.379 1.64146 22.3195C1.78955 23.1049 2.02697 24.1599 2.1645 24.6392C2.44541 25.613 3.01899 26.4419 3.83469 27.0495C4.38124 27.4569 5.00183 27.7301 5.68942 27.8643C6.02087 27.9291 6.45811 27.9585 6.78016 27.9373C7.22562 27.9079 8.10948 27.789 8.82765 27.6606C12.0646 27.0825 15.0547 26.0474 17.7663 24.5662C19.4835 23.6277 20.9516 22.6115 22.3679 21.3787C23.7795 20.1517 24.983 18.8318 26.0421 17.3505C26.2877 17.0078 26.4111 16.8077 26.5345 16.5557C26.8519 15.9057 27.0011 15.2593 27 14.5363C27 13.8628 26.873 13.2646 26.5992 12.6523C26.4676 12.3567 26.3418 12.1448 26.0597 11.7421C25.0207 10.2596 23.8676 8.96788 22.4619 7.71266C20.2827 5.76748 17.6946 4.17197 14.8044 2.99094C14.1779 2.73543 13.5609 2.51053 12.818 2.26678C11.2454 1.75222 9.29895 1.30595 7.65226 1.0834C7.39372 1.04808 7.04227 1.02806 6.85891 1.03748Z" fill="#0B84F3" fill-opacity="0.1"/>
<path d="M9.96203 6.87436C9.64337 6.89169 9.38667 6.94232 9.12794 7.04094C8.99889 7.08959 8.7874 7.19553 8.67097 7.26883C8.18408 7.5747 7.81297 8.03447 7.61943 8.56951C7.58081 8.67548 7.47643 9.01333 7.40921 9.24584C6.96159 10.8004 6.70751 12.5002 6.65297 14.2994C6.64432 14.5859 6.64432 15.2682 6.65297 15.5501C6.68955 16.7428 6.80329 17.8196 7.00948 18.9177C7.09329 19.3621 7.22764 19.9592 7.30547 20.2304C7.46445 20.7815 7.789 21.2506 8.2506 21.5944C8.55987 21.8249 8.91106 21.9796 9.30017 22.0555C9.48775 22.0921 9.7352 22.1088 9.91745 22.0968C10.1695 22.0801 10.6697 22.0128 11.0761 21.9402C12.9079 21.6131 14.6 21.0273 16.1344 20.1891C17.1062 19.658 17.9369 19.083 18.7384 18.3853C19.5373 17.691 20.2183 16.944 20.8176 16.1057C20.9566 15.9119 21.0265 15.7986 21.0963 15.656C21.2759 15.2882 21.3604 14.9224 21.3597 14.5133C21.3597 14.1321 21.2879 13.7936 21.1329 13.4471C21.0584 13.2798 20.9872 13.1599 20.8276 12.932C20.2396 12.0931 19.5871 11.3621 18.7916 10.6518C17.5585 9.55104 16.0938 8.64816 14.4583 7.97983C14.1038 7.83524 13.7546 7.70792 13.3342 7.57C12.4443 7.27883 11.3428 7.02628 10.4109 6.90034C10.2646 6.88036 10.0658 6.86903 9.96203 6.87436Z" fill="#0B84F3"/>
</g>
<defs>
<clipPath id="clip0_2032_467">
<rect width="26" height="27" fill="white" transform="translate(1 1)"/>
</clipPath>
</defs>
</svg>
