<svg width="28" height="28" viewBox="0 0 28 28" fill="none" xmlns="http://www.w3.org/2000/svg">
<g clip-path="url(#clip0_2033_955)">
<path fill-rule="evenodd" clip-rule="evenodd" d="M27.6371 13.7435C27.752 13.8566 27.8433 13.9916 27.9056 14.1404C27.9679 14.2891 28 14.4488 28 14.6102C28 14.7715 27.9679 14.9312 27.9056 15.08C27.8433 15.2287 27.752 15.3637 27.6371 15.4768L15.473 27.641C15.2431 27.8709 14.9313 28 14.6063 28C14.2812 28 13.9694 27.8709 13.7396 27.641C13.5097 27.4111 13.3806 27.0994 13.3806 26.7743C13.3806 26.4492 13.5097 26.1375 13.7396 25.9076L25.9037 13.7435C26.0169 13.6285 26.1518 13.5373 26.3006 13.475C26.4494 13.4127 26.6091 13.3806 26.7704 13.3806C26.9317 13.3806 27.0914 13.4127 27.2402 13.475C27.389 13.5373 27.5239 13.6285 27.6371 13.7435ZM25.2043 0.36289C25.3192 0.476077 25.4105 0.610992 25.4728 0.759785C25.5351 0.908578 25.5672 1.06828 25.5672 1.22959C25.5672 1.3909 25.5351 1.55059 25.4728 1.69939C25.4105 1.84818 25.3192 1.9831 25.2043 2.09628L2.09239 25.2082C1.97857 25.322 1.84345 25.4123 1.69475 25.4739C1.54604 25.5355 1.38665 25.5672 1.22569 25.5672C1.06473 25.5672 0.905352 25.5355 0.756644 25.4739C0.607936 25.4123 0.472816 25.322 0.359 25.2082C0.245184 25.0944 0.154896 24.9592 0.0932996 24.8105C0.0317027 24.6618 0 24.5024 0 24.3415C0 24.1805 0.0317027 24.0211 0.0932996 23.8724C0.154896 23.7237 0.245184 23.5886 0.359 23.4748L23.4709 0.36289C23.5841 0.247957 23.719 0.156685 23.8678 0.0943847C24.0166 0.0320842 24.1763 0 24.3376 0C24.4989 0 24.6586 0.0320842 24.8074 0.0943847C24.9562 0.156685 25.0911 0.247957 25.2043 0.36289Z" fill="#6BB644"/>
</g>
<defs>
<clipPath id="clip0_2033_955">
<rect width="28" height="28" fill="white"/>
</clipPath>
</defs>
</svg>
