<svg width="28" height="28" viewBox="0 0 28 28" fill="none" xmlns="http://www.w3.org/2000/svg">
<path fill-rule="evenodd" clip-rule="evenodd" d="M24.7149 13.7984C24.8052 13.8874 24.8769 13.9934 24.9258 14.1103C24.9748 14.2272 25 14.3527 25 14.4794C25 14.6061 24.9748 14.7316 24.9258 14.8485C24.8769 14.9654 24.8052 15.0714 24.7149 15.1604L15.1573 24.7179C14.9767 24.8985 14.7318 25 14.4763 25C14.2209 25 13.976 24.8985 13.7954 24.7179C13.6148 24.5373 13.5133 24.2924 13.5133 24.037C13.5133 23.7815 13.6148 23.5366 13.7954 23.356L23.3529 13.7984C23.4419 13.7081 23.5479 13.6364 23.6648 13.5875C23.7817 13.5385 23.9072 13.5133 24.0339 13.5133C24.1606 13.5133 24.2861 13.5385 24.403 13.5875C24.5199 13.6364 24.6259 13.7081 24.7149 13.7984ZM22.8034 3.28513C22.8937 3.37406 22.9654 3.48007 23.0143 3.59697C23.0633 3.71388 23.0885 3.83936 23.0885 3.9661C23.0885 4.09285 23.0633 4.21832 23.0143 4.33523C22.9654 4.45214 22.8937 4.55815 22.8034 4.64708L4.64402 22.8064C4.55459 22.8958 4.44843 22.9668 4.33159 23.0152C4.21474 23.0636 4.08951 23.0885 3.96304 23.0885C3.83658 23.0885 3.71135 23.0636 3.59451 23.0152C3.47766 22.9668 3.3715 22.8958 3.28207 22.8064C3.19264 22.717 3.1217 22.6108 3.07331 22.494C3.02491 22.3771 3 22.2519 3 22.1254C3 21.999 3.02491 21.8737 3.07331 21.7569C3.1217 21.6401 3.19264 21.5339 3.28207 21.4445L21.4414 3.28513C21.5303 3.19482 21.6363 3.12311 21.7533 3.07416C21.8702 3.02521 21.9956 3 22.1224 3C22.2491 3 22.3746 3.02521 22.4915 3.07416C22.6084 3.12311 22.7144 3.19482 22.8034 3.28513Z" fill="#6BB644"/>
</svg>
