<svg width="26" height="28" viewBox="0 0 26 28" fill="none" xmlns="http://www.w3.org/2000/svg">
<g clip-path="url(#clip0_2037_18712)">
<path d="M10.4609 6.5918C10.4609 5.86369 9.89257 5.27344 9.19141 5.27344L5.38281 5.27344C4.68165 5.27344 4.11328 5.86369 4.11328 6.5918C4.11328 7.3199 4.68165 7.91016 5.38281 7.91016H9.19141C9.89257 7.91016 10.4609 7.3199 10.4609 6.5918Z" fill="CurrentColor"/>
<path d="M9.19141 9.22852C9.89257 9.22852 10.4609 9.81875 10.4609 10.5469C10.4609 11.275 9.89257 11.8652 9.19141 11.8652H5.38281C4.68165 11.8652 4.11328 11.275 4.11328 10.5469C4.11328 9.81875 4.68165 9.22852 5.38281 9.22852H9.19141Z" fill="CurrentColor"/>
<path fill-rule="evenodd" clip-rule="evenodd" d="M21.8867 26.4551C23.9901 26.4551 25.6953 24.6844 25.6953 22.5L25.6953 3.95508C25.6953 1.77075 23.9901 0 21.8867 0L4.11328 0C2.00979 0 0.304684 1.77075 0.304684 3.95508L0.304684 22.5C0.304684 24.6844 2.00979 26.4551 4.11328 26.4551L21.8867 26.4551ZM23.1562 3.95508C23.1562 3.22697 22.5879 2.63672 21.8867 2.63672L14.2695 2.63672L14.2695 23.8184H21.8867C22.5879 23.8184 23.1562 23.2281 23.1562 22.5L23.1562 3.95508ZM11.7305 23.8184L11.7305 2.63672L4.11328 2.63672C3.41212 2.63672 2.84375 3.22697 2.84375 3.95508L2.84375 22.5C2.84375 23.2281 3.41212 23.8184 4.11328 23.8184L11.7305 23.8184Z" fill="CurrentColor"/>
</g>
<defs>
<clipPath id="clip0_2037_18712">
<rect width="26" height="27" fill="white" transform="matrix(-1 0 0 1 26 0.0450439)"/>
</clipPath>
</defs>
</svg>
