<svg width="24" height="25" viewBox="0 0 24 25" fill="none" xmlns="http://www.w3.org/2000/svg">
<path fill-rule="evenodd" clip-rule="evenodd" d="M11.5 6.50086C11.3949 6.501 11.2925 6.46802 11.2072 6.40663C11.122 6.34524 11.0582 6.25855 11.025 6.15886L10.762 5.36986C10.7129 5.22272 10.6302 5.08902 10.5205 4.97933C10.4108 4.86964 10.2771 4.78697 10.13 4.73786L9.341 4.47486C9.24133 4.44175 9.15461 4.37809 9.09316 4.29292C9.03171 4.20775 8.99863 4.10539 8.99863 4.00036C8.99863 3.89534 9.03171 3.79298 9.09316 3.70781C9.15461 3.62263 9.24133 3.55898 9.341 3.52587L10.13 3.26286C10.2771 3.21376 10.4108 3.13109 10.5205 3.0214C10.6302 2.91171 10.7129 2.77801 10.762 2.63086L11.026 1.84086C11.0593 1.74155 11.123 1.65523 11.2081 1.59406C11.2931 1.5329 11.3952 1.5 11.5 1.5C11.6048 1.5 11.7069 1.5329 11.7919 1.59406C11.877 1.65523 11.9407 1.74155 11.974 1.84086L12.238 2.63086C12.2871 2.77801 12.3698 2.91171 12.4795 3.0214C12.5891 3.13109 12.7229 3.21376 12.87 3.26286L13.659 3.52587C13.7587 3.55898 13.8454 3.62263 13.9068 3.70781C13.9683 3.79298 14.0014 3.89534 14.0014 4.00036C14.0014 4.10539 13.9683 4.20775 13.9068 4.29292C13.8454 4.37809 13.7587 4.44175 13.659 4.47486L12.87 4.73786C12.7229 4.78697 12.5891 4.86964 12.4795 4.97933C12.3698 5.08902 12.2871 5.22272 12.238 5.36986L11.974 6.15886C11.9408 6.25839 11.8772 6.34496 11.7922 6.40634C11.7071 6.46772 11.6049 6.50079 11.5 6.50086ZM6 13.5009C5.85129 13.5009 5.70685 13.4512 5.58963 13.3597C5.4724 13.2682 5.38911 13.1401 5.353 12.9959L5.123 12.0759C5.02025 11.6659 4.80826 11.2915 4.5096 10.9925C4.21095 10.6935 3.8368 10.4811 3.427 10.3779L2.507 10.1479C2.36255 10.1121 2.23424 10.029 2.14252 9.91186C2.05081 9.79468 2.00098 9.65017 2.00098 9.50136C2.00098 9.35256 2.05081 9.20805 2.14252 9.09087C2.23424 8.9737 2.36255 8.89061 2.507 8.85487L3.427 8.62486C3.83687 8.52187 4.21114 8.30967 4.50997 8.01084C4.8088 7.712 5.021 7.33773 5.124 6.92787L5.354 6.00786C5.39049 5.86408 5.47387 5.73657 5.59096 5.64549C5.70805 5.55441 5.85216 5.50496 6.0005 5.50496C6.14884 5.50496 6.29295 5.55441 6.41003 5.64549C6.52712 5.73657 6.6105 5.86408 6.647 6.00786L6.877 6.92787C6.97951 7.3378 7.19143 7.7122 7.49014 8.01109C7.78885 8.30997 8.16312 8.52211 8.573 8.62486L9.493 8.85487C9.6379 8.89024 9.76674 8.97323 9.85886 9.09055C9.95098 9.20786 10.001 9.35271 10.001 9.50187C10.001 9.65103 9.95098 9.79587 9.85886 9.91318C9.76674 10.0305 9.6379 10.1135 9.493 10.1489L8.573 10.3779C8.16289 10.4804 7.78835 10.6924 7.48944 10.9913C7.19053 11.2902 6.97849 11.6648 6.876 12.0749L6.646 12.9959C6.60992 13.14 6.52678 13.2679 6.40976 13.3594C6.29274 13.4508 6.14853 13.5006 6 13.5009ZM13.5 23.5009C13.3372 23.5006 13.1789 23.4474 13.049 23.3493C12.9191 23.2511 12.8247 23.1134 12.78 22.9569L11.967 20.1109C11.7919 19.4979 11.4636 18.9398 11.0128 18.489C10.5621 18.0383 10.0039 17.7099 9.391 17.5349L6.545 16.7219C6.3884 16.677 6.25067 16.5824 6.15262 16.4523C6.05457 16.3222 6.00154 16.1638 6.00154 16.0009C6.00154 15.838 6.05457 15.6795 6.15262 15.5494C6.25067 15.4193 6.3884 15.3247 6.545 15.2799L9.391 14.4669C10.0037 14.2917 10.5617 13.9632 11.0122 13.5125C11.4628 13.0618 11.791 12.5037 11.966 11.8909L12.78 9.04486C12.8249 8.88827 12.9195 8.75054 13.0496 8.65249C13.1796 8.55444 13.3381 8.50141 13.501 8.50141C13.6639 8.50141 13.8224 8.55444 13.9524 8.65249C14.0825 8.75054 14.1771 8.88827 14.222 9.04486L15.035 11.8909C15.21 12.5037 15.5382 13.0618 15.9887 13.5125C16.4393 13.9632 16.9973 14.2917 17.61 14.4669L20.456 15.2799C20.6126 15.3247 20.7503 15.4193 20.8484 15.5494C20.9464 15.6795 20.9995 15.838 20.9995 16.0009C20.9995 16.1638 20.9464 16.3222 20.8484 16.4523C20.7503 16.5824 20.6126 16.677 20.456 16.7219L17.61 17.5349C16.9972 17.71 16.4392 18.0384 15.9886 18.4891C15.5381 18.9399 15.2099 19.498 15.035 20.1109L14.222 22.9569C14.1772 23.1137 14.0825 23.2517 13.9522 23.3499C13.8219 23.448 13.6631 23.501 13.5 23.5009Z" fill="currentColor"/>
</svg>
