<svg width="28" height="29" viewBox="0 0 28 29" fill="none" xmlns="http://www.w3.org/2000/svg">
<path fill-rule="evenodd" clip-rule="evenodd" d="M12.7832 3.14849C16.2816 0.967639 21.1479 1.98096 23.5923 5.43949C24.7808 7.04759 25.2518 9.07425 24.8705 11.0568C24.7136 11.9821 24.3548 12.8632 23.8165 13.6562C24.6014 15.0881 24.8481 16.7403 24.5566 18.3484C24.2202 20.2649 23.0541 21.9611 21.3722 22.9965L15.2051 26.8515C11.7067 29.0324 6.86283 28.019 4.39602 24.5605C3.2299 22.9524 2.75896 20.9258 3.11777 18.9652C3.27475 18.04 3.63355 17.1588 4.17177 16.3658C3.38687 14.9339 3.14019 13.2818 3.43173 11.6736C3.76811 9.75714 4.93424 8.06092 6.61615 7.02557L12.7832 3.14849ZM6.93022 22.9743C8.09634 24.6264 10.1819 25.3974 12.1778 24.8908C12.6263 24.7586 13.0524 24.5824 13.4336 24.3401L19.6006 20.485C20.6098 19.8682 21.3274 18.8328 21.5292 17.6873C21.7311 16.4978 21.462 15.2862 20.7443 14.3169C19.5782 12.6648 17.4926 11.8938 15.4968 12.4004C15.0483 12.5326 14.6222 12.7088 14.2409 12.9512L11.8863 14.4271C11.7741 14.4932 11.6396 14.5372 11.505 14.5813C10.8995 14.7355 10.2716 14.5152 9.91281 14.0085C9.71098 13.7222 9.62128 13.3477 9.68856 12.9952C9.75583 12.6428 9.95766 12.3564 10.2716 12.1581L16.4162 8.30307C16.5283 8.23698 16.6629 8.19293 16.7975 8.14887C17.4029 7.99467 18.0309 8.21496 18.3897 8.72162C18.5691 8.98596 18.6588 9.3164 18.6363 9.6248L18.6139 9.84509L18.8382 9.91118C19.7128 10.1755 20.5201 10.572 21.2601 11.1007L21.5741 11.321L21.6862 10.9686C21.7535 10.7703 21.7983 10.5941 21.8432 10.3958C22.045 9.20625 21.7759 7.99467 21.0583 7.0254C19.8922 5.37324 17.8066 4.60223 15.8107 5.10889C15.3622 5.24106 14.9361 5.4173 14.5549 5.65961L8.38788 9.51466C7.37873 10.1315 6.66111 11.1668 6.45928 12.3123C6.23502 13.5019 6.52656 14.7135 7.22175 15.6827C8.38788 17.3349 10.4735 18.1059 12.4693 17.5992C12.9178 17.4891 13.3439 17.3129 13.7252 17.0705L16.0798 15.5946C16.192 15.5285 16.3265 15.4845 16.4611 15.4404C17.0666 15.2862 17.6945 15.5065 18.0533 16.0132C18.2551 16.2995 18.3448 16.674 18.2775 17.0265C18.2103 17.3789 18.0084 17.6653 17.6945 17.8636L11.5499 21.7186C11.4377 21.7847 11.3032 21.8288 11.1686 21.8728C10.5632 22.027 9.93524 21.7847 9.57643 21.278C9.39703 21.0137 9.30732 20.6833 9.32975 20.3749L9.35217 20.1546L9.12792 20.0885C8.25332 19.8241 7.446 19.4276 6.70596 18.8989L6.392 18.6786L6.27988 19.0311C6.25745 19.1302 6.23502 19.2239 6.2126 19.3175C6.19017 19.4111 6.16775 19.5047 6.14532 19.6039C5.94349 20.7934 6.2126 22.005 6.93022 22.9743Z" fill="#FF3E00"/>
</svg>
