<svg width="29" height="30" viewBox="0 0 29 30" fill="none" xmlns="http://www.w3.org/2000/svg">
<g clip-path="url(#clip0_2032_522)">
<g clip-path="url(#clip1_2032_522)">
<path fill-rule="evenodd" clip-rule="evenodd" d="M2.83203 0.5H26.168C27.7321 0.5 29 1.76794 29 3.33203V26.668C29 28.2321 27.7321 29.5 26.168 29.5H2.83203C1.26794 29.5 0 28.2321 0 26.668V3.33203C0 1.76794 1.26794 0.5 2.83203 0.5ZM17.9516 26.4122V23.5767C18.4657 24.008 19.0242 24.3314 19.627 24.547C20.2298 24.7626 20.8385 24.8704 21.4531 24.8704C21.8136 24.8704 22.1282 24.838 22.3972 24.7729C22.666 24.708 22.8906 24.6179 23.0709 24.5027C23.2511 24.3875 23.3856 24.2517 23.4742 24.0951C23.5628 23.9386 23.6072 23.7688 23.6072 23.5856C23.6072 23.3375 23.5363 23.116 23.3944 22.9211C23.2526 22.7261 23.059 22.5459 22.8138 22.3806C22.5686 22.2152 22.2775 22.0557 21.9407 21.9021C21.6038 21.7484 21.2403 21.5919 20.8503 21.4324C19.8575 21.0189 19.1173 20.5139 18.6298 19.9173C18.1422 19.3206 17.8984 18.5999 17.8984 17.7552C17.8984 17.0936 18.0314 16.525 18.2974 16.0495C18.5633 15.5739 18.9252 15.1826 19.3832 14.8754C19.8413 14.5682 20.3717 14.3423 20.9744 14.1976C21.5772 14.0529 22.2154 13.9805 22.8892 13.9805C23.551 13.9805 24.1376 14.0203 24.6488 14.1001C25.1599 14.1798 25.6312 14.3024 26.0626 14.4678V17.1172C25.8499 16.9695 25.6179 16.8396 25.3668 16.7273C25.1156 16.6151 24.8571 16.522 24.5912 16.4482C24.3252 16.3744 24.0607 16.3197 23.7977 16.2843C23.5347 16.2489 23.2851 16.2311 23.0487 16.2311C22.7237 16.2311 22.4282 16.2621 22.1622 16.3241C21.8963 16.3862 21.6718 16.4733 21.4885 16.5855C21.3054 16.6978 21.1635 16.8322 21.0631 16.9887C20.9626 17.1453 20.9123 17.321 20.9123 17.5159C20.9123 17.7286 20.9685 17.9191 21.0808 18.0875C21.1931 18.2558 21.3526 18.4153 21.5595 18.566C21.7663 18.7166 22.0175 18.8643 22.313 19.009C22.6084 19.1537 22.9423 19.3029 23.3146 19.4565C23.8229 19.6691 24.2794 19.8951 24.6842 20.1343C25.089 20.3736 25.4362 20.6438 25.7258 20.9451C26.0154 21.2464 26.237 21.5905 26.3906 21.9774C26.5443 22.3643 26.6211 22.8147 26.6211 23.3287C26.6211 24.0375 26.4866 24.6326 26.2178 25.1141C25.9489 25.5955 25.5839 25.9854 25.123 26.2837C24.6621 26.582 24.1257 26.7962 23.5141 26.9261C22.9024 27.0561 22.2568 27.1211 21.5772 27.1211C20.8798 27.1211 20.2165 27.062 19.5871 26.9439C18.9577 26.8257 18.4126 26.6485 17.9516 26.4122ZM16.8223 16.5906H13.1848V26.9512H10.3033V16.5906H6.68359V14.2637H16.8223V16.5906Z" fill="#3178C6"/>
</g>
</g>
<defs>
<clipPath id="clip0_2032_522">
<rect width="29" height="29" fill="white" transform="translate(0 0.5)"/>
</clipPath>
<clipPath id="clip1_2032_522">
<rect width="29" height="29" fill="white" transform="translate(0 0.5)"/>
</clipPath>
</defs>
</svg>
