<svg width="28" height="29" viewBox="0 0 28 29" fill="none" xmlns="http://www.w3.org/2000/svg">
<g clip-path="url(#clip0_2032_505)">
<path d="M27.9073 5.06934L14.7543 28.6334C14.4828 29.1199 13.7851 29.1228 13.5094 28.6386L0.095641 5.07161C-0.204653 4.54402 0.245651 3.90496 0.842397 4.01182L14.0095 6.36978C14.0935 6.38482 14.1795 6.38468 14.2635 6.36934L27.1552 4.0152C27.7499 3.9066 28.2024 4.54071 27.9073 5.06934Z" fill="url(#paint0_linear_2032_505)"/>
<path d="M19.7541 0.00707708L9.89859 1.96273C9.73661 1.99487 9.61667 2.13388 9.6069 2.30072L9.00065 12.6697C8.98639 12.9139 9.20787 13.1035 9.44325 13.0485L12.1872 12.4072C12.4439 12.3473 12.6759 12.5763 12.6231 12.8377L11.8079 16.8803C11.753 17.1524 12.0053 17.385 12.2676 17.3043L13.9624 16.7829C14.2251 16.7021 14.4776 16.9354 14.422 17.2077L13.1265 23.5578C13.0454 23.955 13.5671 24.1716 13.7847 23.831L13.9301 23.6036L21.9608 7.37335C22.0953 7.1016 21.8634 6.79173 21.5687 6.84933L18.7443 7.40135C18.4789 7.45317 18.2531 7.20286 18.328 6.93989L20.1714 0.468304C20.2464 0.204889 20.0198 -0.0456402 19.7541 0.00707708Z" fill="url(#paint1_linear_2032_505)"/>
</g>
<defs>
<linearGradient id="paint0_linear_2032_505" x1="-0.231867" y1="3.16967" x2="16.1779" y2="25.4137" gradientUnits="userSpaceOnUse">
<stop stop-color="#41D1FF"/>
<stop offset="1" stop-color="#BD34FE"/>
</linearGradient>
<linearGradient id="paint1_linear_2032_505" x1="12.6382" y1="0.538032" x2="15.7114" y2="21.3561" gradientUnits="userSpaceOnUse">
<stop stop-color="#FFEA83"/>
<stop offset="0.0833333" stop-color="#FFDD35"/>
<stop offset="1" stop-color="#FFA800"/>
</linearGradient>
<clipPath id="clip0_2032_505">
<rect width="28" height="28" fill="white" transform="translate(0 0.5)"/>
</clipPath>
</defs>
</svg>
