<svg width="512" height="512" viewBox="0 0 512 512" fill="none" xmlns="http://www.w3.org/2000/svg">
<rect width="512" height="508" rx="98" fill="#212529"/>
<g clip-path="url(#clip0_2009_2025)">
<path d="M190.23 81.9785V161.682L255.277 196.171L190.23 81.9785Z" fill="#EC5F73"/>
<path d="M190.232 81.9785L123.74 196.171L190.232 161.682V81.9785Z" fill="#CF3A56"/>
<path d="M189.532 161.479L255.278 196.17H123.74L189.532 161.479Z" fill="#F18984"/>
<path d="M123.74 116.467L148.546 103.569L190.232 81.9785L179.974 99.5928L140.386 167.599L129.942 185.491L123.74 196.171V116.467Z" fill="#F3DA2D"/>
<path d="M57.248 81.9785L123.74 196.171V116.467L57.248 81.9785Z" fill="#F4AE21"/>
<path d="M57.248 81.9785L123.716 116.67L190.231 81.9785H57.248Z" fill="#EEC600"/>
<path d="M255.277 196.172L190.23 311.809L255.277 276.87V196.172Z" fill="#337CC0"/>
<path d="M255.277 276.917L321.769 311.809L255.277 196.172V276.917Z" fill="#4C9CBF"/>
<path d="M255.976 277.117L190.23 311.808H321.768L255.976 277.117Z" fill="#63B8E8"/>
<path d="M190.23 311.809L255.277 196.172L190.23 231.065V311.809Z" fill="#C994C2"/>
<path d="M190.232 231.065L123.74 196.172L190.232 311.809V231.065Z" fill="#6D2269"/>
<path d="M189.532 230.863L255.278 196.172H123.74L189.532 230.863Z" fill="#A43A8D"/>
<path d="M321.77 81.9785V161.682L388.261 196.171L321.77 81.9785Z" fill="#DA2887"/>
<path d="M321.769 81.9785L255.277 196.171L321.769 161.682V81.9785Z" fill="#B71666"/>
<path d="M321.769 161.479L388.261 196.17H255.277L321.769 161.479Z" fill="#E96698"/>
<path d="M388.261 196.171V116.467L321.77 81.9785L388.261 196.171Z" fill="#443E8B"/>
<path d="M454.752 81.9785L388.261 116.467V196.171L454.752 81.9785Z" fill="#9091C7"/>
<path d="M321.77 81.9785L388.284 116.67L454.753 81.9785H321.77Z" fill="#6466AD"/>
<path d="M321.769 311.809L255.277 196.172L321.769 231.065V311.809Z" fill="#AC1926"/>
<path d="M321.77 231.065L388.261 196.172L321.77 311.809V231.065Z" fill="#EB5D0B"/>
<path d="M321.769 230.863L255.277 196.172H388.261L321.769 230.863Z" fill="#E21617"/>
<path d="M255.277 426.001L321.769 311.809L255.277 346.297V426.001Z" fill="#6BB644"/>
<path d="M255.277 346.297L190.23 311.809L255.277 426.001V346.297Z" fill="#3D7423"/>
<path d="M255.976 346.5L321.768 311.809H190.23L255.976 346.5Z" fill="#4B8D2B"/>
<path d="M472.123 468.121C475.724 471.098 482.006 480.467 485 488.979C485 488.979 483.233 475.031 480.365 469.742C477.498 464.453 471.576 459.669 471.636 452.254C471.636 452.254 477.678 461.131 483.78 462.832C483.78 462.832 481.092 460.579 478.285 455.476C475.477 450.367 474.93 444.413 470.716 439.303C471.996 440.885 479.012 442.832 481.212 441.795C472.917 439.184 469.616 426.353 465.894 422.944C465.894 422.944 471.203 425.801 474.984 424.406C474.984 424.406 468.028 422.519 462.594 413.343C457.165 404.16 453.257 404.831 448.436 396.924C448.436 396.924 454.658 403.063 457.952 402.399C452.524 399.967 446.542 379.415 439.093 370.113C441.961 371.269 448.676 378.02 451.844 383.369C450.01 373.521 439.82 365.309 437.199 361.966C437.199 361.966 441.901 364.764 443.915 365.309C440.314 362.332 435.552 355.275 435.066 352.664C437.019 351.754 439.7 347.494 440.314 342.936C440.927 338.378 442.574 335.82 447.636 331.873C447.636 331.873 442.694 332.358 441.167 335.155C440.434 327.494 442.328 321.049 443.788 317.52C443.788 317.52 444.402 322.444 448.243 325.607C448.243 325.607 446.596 320.377 446.475 317.215C446.355 314.052 449.343 306.271 449.163 303.533C448.983 300.796 444.161 293.746 444.828 291.008C446.295 291.859 448.609 294.962 449.65 298.304C450.563 283.227 434.579 274.529 434.579 274.529C434.579 274.529 437.993 275.141 442.448 273.194C442.448 273.194 433.358 272.769 428.29 267.845C423.222 262.921 417.674 261.459 413.459 260.974C416.08 259.818 422.795 260.064 427.13 262.496C420.055 254.35 409.005 258.303 403.456 255.38C403.456 255.38 410.352 252.403 411.325 250.15C408.271 252.157 402.783 250.821 398.695 251.911C394.607 253.008 394.607 252.642 387.165 258.177C387.285 255.26 392.84 247.174 397.781 246.383C392.353 245.472 382.95 250.702 377.522 256.17C379.716 252.888 378.136 247.964 375.935 245.107C375.935 245.107 376.909 253.134 372.881 254.954C368.853 256.782 362.264 259.758 357.323 265.473C352.562 265.353 346.42 261.174 346.42 261.174C346.42 261.174 354.229 259.712 359.357 262.064C352.522 253.227 341.538 257.685 335.357 252.901C338.204 253.466 345.853 250.954 345.853 250.954C345.853 250.954 330.315 250.303 327.181 246.25C327.181 246.25 334.016 248.197 339.144 246.25C339.144 246.25 333.649 245.28 327.181 242.237C327.181 242.237 332.429 239.193 333.896 235.187C326.821 240.17 303.507 238.323 303.507 238.323C303.507 238.323 307.535 232.27 311.683 231.054C297.772 230.203 289.35 239.685 280.681 244.31C280.681 244.31 286.376 237.619 285.442 231.904C284.749 235.067 281.048 240.17 272.625 243.333C272.625 243.333 276.406 237.133 275.066 231.054C272.992 238.349 264.323 245.765 260.788 245.645C258.454 245.566 255.007 239.293 255.007 239.293C255.007 239.293 251.546 245.592 249.212 245.672C245.671 245.791 237.008 238.376 234.934 231.08C233.594 237.16 237.375 243.36 237.375 243.36C228.952 240.197 225.251 235.094 224.558 231.931C223.624 237.645 229.319 244.336 229.319 244.336C220.657 239.718 212.234 230.23 198.317 231.08C202.465 232.296 206.493 238.349 206.493 238.349C206.493 238.349 183.179 240.197 176.104 235.213C177.571 239.227 182.819 242.263 182.819 242.263C176.351 245.306 170.856 246.276 170.856 246.276C175.984 248.223 182.819 246.276 182.819 246.276C179.685 250.33 164.147 250.981 164.147 250.981C164.147 250.981 171.796 253.493 174.643 252.928C168.462 257.712 158.725 252.569 151.897 261.406C157.025 259.054 163.58 261.2 163.58 261.2C163.58 261.2 157.438 265.373 152.677 265.499C147.736 259.785 141.147 256.802 137.119 254.981C133.091 253.154 134.065 245.134 134.065 245.134C131.871 247.991 130.284 252.914 132.478 256.197C127.05 250.722 117.647 245.492 112.219 246.409C117.16 247.2 122.715 255.287 122.835 258.204C115.393 252.669 115.393 253.034 111.305 251.938C107.217 250.841 101.722 252.184 98.6747 250.177C99.6483 252.429 106.544 255.406 106.544 255.406C100.989 258.323 89.9455 254.37 82.8701 262.523C87.2047 260.091 93.9133 259.845 96.5407 261.001C92.3329 261.486 86.7779 262.948 81.7098 267.872C76.6416 272.795 67.5523 273.221 67.5523 273.221C72.007 275.167 75.4213 274.556 75.4213 274.556C75.4213 274.556 59.4366 283.254 60.3502 298.331C61.3905 294.988 63.7046 291.885 65.1716 291.035C65.8452 293.772 61.0238 300.822 60.8371 303.56C60.657 306.298 63.6445 314.078 63.5245 317.241C63.4045 320.404 61.7573 325.633 61.7573 325.633C65.5984 322.471 66.2119 317.547 66.2119 317.547C67.679 321.075 69.5663 327.521 68.8327 335.182C67.3056 332.384 62.3642 331.899 62.3642 331.899C67.4256 335.853 69.0794 338.404 69.6863 342.963C70.2931 347.521 72.9806 351.78 74.9345 352.69C74.4477 355.302 69.6863 362.358 66.0852 365.335C68.0992 364.79 72.8005 361.993 72.8005 361.993C70.1798 365.335 59.9835 373.548 58.1563 383.395C61.3305 378.046 68.0391 371.295 70.9066 370.139C63.4645 379.442 57.4827 399.994 52.0478 402.425C55.3421 403.097 61.5639 396.95 61.5639 396.95C56.7425 404.857 52.8347 404.186 47.4065 413.369C41.9783 422.552 35.0162 424.433 35.0162 424.433C38.7973 425.828 44.1055 422.971 44.1055 422.971C40.3845 426.373 37.0902 439.204 28.7878 441.822C30.9817 442.858 38.0038 440.911 39.2841 439.33C35.0763 444.44 34.5228 450.393 31.7153 455.503C28.9078 460.613 26.2204 462.859 26.2204 462.859C32.3221 461.158 38.3639 452.28 38.3639 452.28C38.4239 459.696 32.5088 464.48 29.6347 469.769C26.7672 475.058 25 489.005 25 489.005C27.9875 480.493 34.276 471.131 37.8771 468.148C38.7907 470.885 31.8953 479.337 30.9217 484.321C29.9481 489.304 30.2482 504.567 30.2482 504.567C32.3221 488.334 37.6503 484.58 44.6057 476.433C41.5515 482.819 42.325 484.866 40.9846 489.543C39.6442 494.228 36.53 498.966 34.5761 499.577C36.9568 500.487 40.6179 498.361 41.5915 497.085C42.325 499.823 33.3558 513.318 38.4772 521.039C38.5373 515.444 44.1522 510.155 49.5805 506.992C45.3059 512.281 39.3308 521.703 39.0841 530.096C38.8373 538.488 44.2122 548.275 44.2122 548.275C42.8718 539.219 44.8858 530.827 44.8858 530.827C44.639 537.092 50.6208 544.687 50.6208 544.687C50.6208 544.687 45.9194 557.272 53.0615 572.655C52.0745 570.362 51.9211 557.133 54.4019 552.953C53.9551 559.033 55.3155 567.91 56.6625 574.841C58.0029 581.771 64.3514 584.688 64.3514 584.688C60.1435 580.07 61.4239 574.05 61.4239 574.05C64.8382 578.063 67.7124 583.107 67.7124 588.276C67.7124 593.446 65.0916 597.884 62.6442 599.645C66.3653 599.466 71.8603 596.542 73.2607 591.864C72.5271 598.004 77.0418 603.904 78.2021 606.881C79.3624 609.858 79.1757 618.735 79.1757 618.735C82.7167 611.924 83.7504 609.552 83.9371 604.024C84.1171 598.489 86.071 597.094 86.071 597.094C88.6918 605.16 82.53 618.742 91.3792 630.35C87.8382 615.273 94.3668 618.675 92.9064 609.127C95.227 613.386 93.5199 624.33 95.8939 630.775C98.2746 637.22 103.523 642.33 103.523 642.33C99.9817 635.034 101.629 617.765 104.136 612.296C103.283 620.137 104.383 629.871 107.004 634.915C109.625 639.965 109.505 649.932 109.505 649.932C112.559 644.822 113.106 631.692 113.106 631.692C114.633 639.533 115.793 658.264 120.548 660.875C118.107 655.467 119.934 645.493 119.934 645.493C122.255 649.506 121.401 656.882 124.816 665.434C127.97 673.334 132.625 677.108 132.625 677.108C128.537 669.387 131.157 661.42 131.157 661.42C133.718 666.709 133.718 671.633 138.966 678.749C144.215 685.866 148.729 686.896 148.729 686.896C143.054 682.152 143.174 672.484 143.174 672.484C147.996 676.617 152.997 681.906 151.777 690.178C150.556 698.444 152.264 704.099 155.438 707.873C153.424 700.883 156.351 696.019 159.466 693.826C162.567 691.647 163.674 691.275 164.654 687.56C166.608 690.723 170.816 702.092 167.641 708.717C171.976 704.458 174.05 695.341 172.463 689.746C175.45 693.574 176.491 716.318 189.121 721.607C184.913 716.743 183.139 708.232 186.373 698.81C190.401 702.152 191.502 710.604 191.435 712.797C194.056 709.694 192.349 699.6 192.349 699.6C194.969 703.793 198.27 715.348 196.983 724.345C200.277 720.451 200.464 710.179 198.57 705.315C202.905 708.478 203.025 717.169 206.439 724.345C209.854 731.521 214.735 736.265 219.07 736.385C215.835 734.319 212.541 725.195 212.541 725.195C219.496 728.538 223.831 734.013 224.318 737.236C224.625 730.73 219.556 723.674 216.996 722.338C221.45 723.009 228.526 728.418 230.786 733.282C233.047 738.146 234.201 744.286 242.75 747.814C237.868 743.375 238.115 738.392 238.842 731.581C245.984 738.631 253.506 743.781 253.506 754C254.186 751.555 256.474 745.9 255.48 739.222C254.313 731.375 248.565 727.302 252.226 716.039C252.633 727.634 261.909 730.631 262.315 741.09C265.65 734.279 270.484 727.428 271.511 726.418C272.245 733.229 272.025 743.362 267.144 747.801C275.686 744.272 276.846 738.133 279.107 733.269C281.368 728.405 288.443 722.996 292.898 722.325C290.337 723.661 285.269 730.717 285.576 737.222C286.062 734 290.397 728.524 297.352 725.182C297.352 725.182 294.058 734.305 290.824 736.372C295.158 736.252 300.04 731.508 303.454 724.332C306.868 717.156 306.995 708.464 311.323 705.301C309.429 710.165 309.616 720.438 312.91 724.332C311.63 715.335 314.924 703.78 317.545 699.587C317.545 699.587 315.838 709.68 318.458 712.783C318.398 710.597 319.499 702.145 323.52 698.796C326.754 708.218 324.987 716.73 320.772 721.594C333.403 716.305 334.443 693.567 337.431 689.733C335.843 695.328 337.917 704.444 342.252 708.704C339.078 702.079 343.292 690.703 345.24 687.547C346.213 691.255 346.847 692.198 348.714 695.494C350.301 698.291 352.435 698.471 350.421 705.468C357.256 699.022 352.255 686.378 366.719 672.47C366.719 672.47 366.839 682.138 361.164 686.882C361.164 686.882 365.679 685.846 370.927 678.736C376.175 671.62 376.175 666.696 378.736 661.407C378.736 661.407 381.357 669.374 377.269 677.095C377.269 677.095 381.923 673.321 385.078 665.42C388.492 656.869 387.638 649.493 389.959 645.48C389.959 645.48 391.793 655.453 389.346 660.862C394.107 658.251 395.267 639.52 396.788 631.679C396.788 631.679 397.335 644.815 400.389 649.918C400.389 649.918 400.269 639.945 402.89 634.901C405.51 629.852 406.611 620.124 405.757 612.283C408.258 617.758 409.905 635.021 406.371 642.317C406.371 642.317 411.619 637.207 413.999 630.762C416.38 624.317 414.673 613.373 416.987 609.114C415.52 618.662 422.048 615.253 418.514 630.337C427.363 618.722 421.202 605.147 423.822 597.08C423.822 597.08 425.776 598.476 425.956 604.011C426.136 609.546 427.177 611.918 430.718 618.722C430.718 618.722 430.538 609.845 431.691 606.868C432.845 603.891 437.366 597.991 436.633 591.851C438.033 596.535 443.528 599.452 447.249 599.632C444.808 597.871 442.181 593.432 442.181 588.263C442.181 583.093 445.048 578.05 448.469 574.037C448.469 574.037 449.75 580.057 445.542 584.675C445.542 584.675 451.89 581.758 453.231 574.827C454.571 567.897 455.938 559.02 455.491 552.94C457.972 557.113 457.819 570.342 456.832 572.641C463.974 557.259 459.273 544.674 459.273 544.674C459.273 544.674 465.254 537.072 465.008 530.813C465.008 530.813 467.021 539.205 465.681 548.262C465.681 548.262 471.049 538.474 470.809 530.082C470.562 521.69 464.587 512.268 460.313 506.979C465.741 510.142 471.356 515.431 471.416 521.026C476.544 513.305 467.575 499.803 468.302 497.072C469.275 498.348 472.936 500.474 475.317 499.564C473.363 498.952 470.256 494.215 468.909 489.53C467.568 484.846 468.342 482.799 465.288 476.42C472.243 484.567 477.571 488.314 479.645 504.554C479.645 504.554 479.952 489.291 478.972 484.307C477.998 479.324 471.103 470.872 472.016 468.134L472.123 468.121ZM158.045 685.839C157.865 679.148 154.384 670.822 150.603 665.713C159.332 671.307 160.853 677.507 158.045 685.839ZM352.041 685.839C349.234 677.507 350.761 671.307 359.484 665.713C355.703 670.822 352.221 679.148 352.041 685.839Z" fill="#212529"/>
<path d="M425.082 401.831C425.199 406.671 432.561 419.702 438.081 425.437C443.601 431.172 442.238 436.854 442.238 436.854C445.683 432.374 438.379 419.702 432.801 413.184C427.223 406.665 425.082 401.825 425.082 401.825V401.831Z" fill="white"/>
<path fill-rule="evenodd" clip-rule="evenodd" d="M324.174 399.65C320.827 397.814 317.403 396.214 313.933 394.777C316.929 397.044 319.822 399.441 322.514 401.982C323.857 403.255 325.16 404.549 326.334 405.907C326.834 406.482 327.307 407.063 327.755 407.651C336.511 419.963 335.279 432.367 333.586 449.389C333.529 449.947 333.474 450.512 333.418 451.081L333.416 451.103C333.378 451.492 333.34 451.883 333.301 452.276C332.178 451.27 330.985 450.375 329.824 449.565C329.541 449.367 329.259 449.171 328.979 448.977L328.971 448.971C327.659 448.06 326.376 447.168 325.128 446.201C323.61 445.032 322.138 443.778 320.698 442.472C321.781 444.085 322.91 445.679 324.129 447.22C325.119 448.478 326.183 449.698 327.225 450.892L327.244 450.914C327.371 451.059 327.497 451.205 327.624 451.35C327.724 451.465 327.824 451.58 327.923 451.694C329.182 453.151 330.304 454.568 331.18 456.123C331.926 457.41 332.542 458.775 333.113 460.192C340.072 479.748 339.839 485.705 333.664 492.256C333.327 489.349 332.931 486.462 332.496 483.589C331.984 486.456 331.433 489.31 330.823 492.138C330.563 493.353 330.278 494.549 329.986 495.744L329.967 495.757L329.746 496.58C328.423 501.453 326.873 505.999 325.134 510.094C323.908 512.988 322.514 515.809 320.99 518.468C318.33 523.118 315.256 527.266 311.85 530.806C311.195 531.485 310.475 532.191 309.645 532.968C305.552 536.783 300.856 540.003 295.693 542.53L295.155 542.779C292.476 544.059 289.661 545.182 286.716 546.129L286.502 546.195C284.4 546.861 282.253 547.449 280.113 547.939L279.438 548.076C277.577 548.487 275.611 548.847 273.607 549.154C272.835 549.271 272.044 549.376 271.253 549.48C266.414 550.101 261.296 550.414 256.049 550.414C203.094 550.414 188.623 519.689 182.351 496.58L182.131 495.757L182.111 495.744C181.819 494.555 181.54 493.353 181.274 492.138C180.665 489.31 180.113 486.456 179.601 483.589C179.16 486.462 178.764 489.349 178.433 492.256C172.258 485.705 172.025 479.748 178.978 460.192C179.543 458.781 180.165 457.41 180.911 456.123C181.787 454.575 182.909 453.151 184.167 451.694C184.284 451.56 184.401 451.425 184.519 451.29C184.634 451.158 184.75 451.024 184.867 450.891C185.908 449.697 186.972 448.478 187.962 447.22C189.181 445.679 190.31 444.085 191.393 442.472C189.953 443.771 188.481 445.025 186.963 446.201C185.715 447.168 184.432 448.059 183.121 448.97L183.12 448.971L183.12 448.971L183.096 448.988C182.954 449.086 182.812 449.185 182.67 449.284C182.536 449.377 182.401 449.471 182.267 449.565C181.106 450.375 179.919 451.27 178.79 452.276C178.75 451.876 178.711 451.478 178.673 451.081L178.673 451.079L178.672 451.074L178.672 451.07L178.671 451.069C178.616 450.504 178.562 449.943 178.505 449.389C176.805 432.361 175.573 419.957 184.342 407.638C184.79 407.057 185.263 406.476 185.756 405.907C186.93 404.549 188.234 403.249 189.577 401.982C192.269 399.441 195.155 397.044 198.158 394.777C194.688 396.214 191.263 397.814 187.916 399.65C187.119 400.094 186.321 400.545 185.536 401.015C186.392 389.643 194.682 377.455 207.051 369.467C208.374 384.48 218.839 388.508 233.792 394.263C234.166 394.407 234.543 394.553 234.923 394.699C239.775 396.568 243.307 399.26 246.337 401.568C249.829 404.227 252.652 406.378 256.055 406.175C259.453 406.378 262.274 404.229 265.763 401.571C268.794 399.263 272.33 396.569 277.188 394.699L277.691 394.505L278.298 394.272C293.261 388.518 303.73 384.493 305.059 369.467C317.429 377.462 325.718 389.65 326.574 401.015C325.783 400.545 324.992 400.094 324.194 399.65H324.174ZM323.351 493.393C322.968 498.415 321.885 503.419 320.185 508.219L320.159 508.239C319.206 510.969 318.045 513.641 316.761 516.247C314.315 520.486 311.507 524.274 308.413 527.494C307.816 528.115 307.154 528.762 306.389 529.474C302.64 532.968 298.333 535.92 293.617 538.233L293.52 538.278C293.371 538.344 293.228 538.409 293.085 538.474C290.614 539.656 288.013 540.695 285.373 541.551L285.042 541.649C283.077 542.276 281.06 542.831 279.043 543.288L278.874 543.321C278.712 543.353 278.556 543.386 278.4 543.419C276.643 543.804 274.781 544.144 272.868 544.438C272.135 544.549 271.382 544.647 270.623 544.745C265.979 545.339 261.069 545.639 256.016 545.639C234.806 545.639 218.876 540.832 207.304 530.956C202.647 526.978 198.658 522.106 195.291 516.267C193.994 513.647 192.833 510.969 191.873 508.219C190.174 503.412 189.09 498.409 188.708 493.393C189.642 498.344 191.25 503.105 193.41 507.573C195.557 512.047 198.21 516.247 201.181 520.172C203.419 523.131 205.838 525.933 208.4 528.592C207.473 527.174 206.571 525.744 205.721 524.287C203.38 520.238 201.447 515.96 199.903 511.583C198.392 507.181 197.523 502.602 197.114 498.037C198.074 502.53 199.462 506.874 201.44 510.95C203.451 514.999 205.786 518.853 208.491 522.439C210.625 525.248 212.915 527.912 215.334 530.453C214.53 529.167 213.738 527.867 212.999 526.541C210.969 522.824 209.256 518.944 207.907 514.96C206.603 510.956 205.832 506.809 205.507 502.681C206.376 506.75 207.68 510.656 209.444 514.34C211.261 518.004 213.388 521.472 215.788 524.732C217.818 527.429 220.004 529.99 222.313 532.432C221.606 531.244 220.919 530.035 220.277 528.807C218.532 525.437 217.059 521.943 215.905 518.357C214.815 514.745 214.141 511.041 213.901 507.338C214.685 510.969 215.892 514.444 217.449 517.743C219.07 521.015 220.971 524.111 223.092 527.037C225.005 529.65 227.1 532.112 229.299 534.47C228.683 533.353 228.093 532.223 227.541 531.074C226.095 528.056 224.843 524.941 223.909 521.747C223.014 518.533 222.449 515.254 222.294 511.982C223.001 515.182 224.091 518.239 225.459 521.146C226.873 524.039 228.553 526.763 230.395 529.363C232.192 531.903 234.196 534.287 236.285 536.587C235.759 535.522 235.253 534.444 234.78 533.353C233.632 530.675 232.614 527.952 231.907 525.137C231.206 522.328 230.765 519.467 230.687 516.626C231.316 519.402 232.283 522.047 233.47 524.562C234.663 527.083 236.129 529.447 237.686 531.727C239.262 534.007 240.968 536.169 242.778 538.259C242.801 538.286 242.825 538.313 242.849 538.339C242.894 538.39 242.94 538.44 242.985 538.491C243.055 538.567 243.125 538.644 243.193 538.722C242.765 537.71 242.356 536.691 241.98 535.659C240.267 531.028 239.093 526.116 239.08 521.276C240.209 525.986 242.362 530.238 244.951 534.157C246.241 536.123 247.629 538.01 249.095 539.846C249.255 540.045 249.42 540.242 249.583 540.438C249.698 540.577 249.813 540.714 249.926 540.852C249.627 539.898 249.355 538.938 249.095 537.971C248.07 534.013 247.338 529.931 247.48 525.92C248.447 529.8 250.198 533.334 252.163 536.678C252.728 537.619 253.311 538.54 253.915 539.447L256.029 523.327L258.144 539.447C258.747 538.54 259.337 537.619 259.895 536.678C261.86 533.334 263.612 529.807 264.578 525.92C264.721 529.931 263.988 534.013 262.963 537.971C262.704 538.938 262.425 539.898 262.133 540.852L262.134 540.85L262.136 540.848L262.137 540.847L262.139 540.844C262.416 540.513 262.693 540.183 262.963 539.846C264.429 538.01 265.817 536.123 267.108 534.157C269.696 530.238 271.849 525.986 272.978 521.276C272.958 526.123 271.791 531.028 270.079 535.659C269.702 536.691 269.287 537.71 268.866 538.722C268.934 538.644 269.003 538.567 269.073 538.491C269.143 538.414 269.213 538.337 269.281 538.259C271.09 536.169 272.803 534 274.372 531.727C275.936 529.447 277.402 527.083 278.589 524.562C279.776 522.047 280.742 519.402 281.371 516.626C281.293 519.467 280.859 522.328 280.152 525.137C279.445 527.952 278.426 530.675 277.278 533.353C276.805 534.444 276.299 535.522 275.774 536.587C277.862 534.294 279.866 531.903 281.663 529.363C283.505 526.763 285.185 524.033 286.599 521.146C287.968 518.239 289.057 515.189 289.764 511.982C289.609 515.254 289.045 518.533 288.149 521.747C287.215 524.941 285.964 528.05 284.517 531.074C283.966 532.223 283.375 533.353 282.759 534.47C284.958 532.112 287.053 529.65 288.967 527.037C291.081 524.105 292.988 521.015 294.61 517.743C296.166 514.451 297.373 510.969 298.158 507.338C297.918 511.035 297.243 514.745 296.154 518.357C294.999 521.943 293.52 525.437 291.782 528.807C291.14 530.035 290.452 531.237 289.745 532.432C292.054 529.99 294.24 527.429 296.27 524.732C298.67 521.466 300.798 517.997 302.614 514.34C304.378 510.656 305.675 506.743 306.551 502.681C306.227 506.809 305.455 510.95 304.151 514.96C302.802 518.944 301.09 522.824 299.059 526.541C298.32 527.867 297.535 529.167 296.724 530.453C299.144 527.912 301.433 525.248 303.567 522.439C306.266 518.853 308.607 514.999 310.618 510.95C312.596 506.874 313.984 502.53 314.944 498.037C314.536 502.596 313.667 507.181 312.155 511.583C310.612 515.966 308.679 520.238 306.337 524.287C305.487 525.751 304.586 527.174 303.658 528.592C306.22 525.933 308.64 523.131 310.877 520.172C313.855 516.247 316.501 512.047 318.648 507.573C320.814 503.105 322.417 498.344 323.351 493.393ZM320.698 484.986C339.612 483.314 328.767 467.534 324.259 464.268C328.455 470.486 330.985 479.088 320.698 484.986ZM259.207 410.159C256.438 410.878 261.186 421.956 261.186 421.956C261.186 421.956 262.71 409.251 259.207 410.159ZM267.426 417.638C265.733 416.593 260.609 408.807 263.093 407.553C265.274 406.455 266.418 412.597 267.015 415.805L267.015 415.806C267.199 416.795 267.331 417.504 267.426 417.638ZM273.659 413.327C270.273 411.231 264.76 406.809 266.972 404.947C268.706 403.482 271.337 408.767 272.78 411.666C273.178 412.464 273.485 413.082 273.659 413.327ZM270.857 402.341C272.491 400.114 278.699 407.305 279.899 409.01C278.225 407.975 276.468 407.175 274.932 406.475C271.813 405.054 269.605 404.048 270.857 402.341ZM274.736 399.741C275.864 397.168 284.53 402.426 286.132 404.699C282.81 402.646 279.658 402.2 277.48 401.891C275.222 401.572 274.009 401.4 274.736 399.741ZM293.553 398.683C290.744 399.5 280.327 400.819 282.195 397.41C282.71 396.475 285.877 397.168 288.993 397.849C290.668 398.215 292.328 398.578 293.553 398.683ZM297.444 392.844C295.609 393.935 288.5 396.776 289.2 394.026C289.39 393.271 291.75 393.18 294.071 393.091C295.322 393.042 296.561 392.995 297.444 392.844ZM314.257 387.449C313.79 386.763 313.316 386.071 312.81 385.404C312.274 384.633 311.702 383.894 311.125 383.15C310.969 382.948 310.813 382.746 310.657 382.543C310.226 381.988 309.775 381.45 309.319 380.905L309.317 380.903L309.315 380.9L309.313 380.898C308.988 380.51 308.66 380.119 308.335 379.715L308.341 379.702C310.618 380.721 312.596 382.328 314.335 384.105C315.178 385.019 316.015 385.953 316.748 386.959C317.5 387.971 318.168 388.99 318.804 390.127L321.327 394.647L317.111 391.675L314.957 390.153L312.752 388.651L310.521 387.161L308.225 385.685C309.146 385.764 310.06 385.96 310.949 386.208C311.831 386.469 312.707 386.776 313.556 387.135C313.712 387.201 313.868 387.272 314.024 387.343C314.101 387.378 314.179 387.414 314.257 387.449ZM224.999 464.052C214.445 464.052 200.545 464.712 190.394 474.033C197.534 461.921 214.624 460.523 227.047 459.507C229.296 459.323 231.393 459.152 233.249 458.931C243.575 457.71 252.864 452.981 255.374 449.317C255.543 449.075 255.789 448.958 256.042 448.958C256.295 448.958 256.548 449.075 256.71 449.317C259.22 452.981 268.509 457.71 278.835 458.931C280.692 459.152 282.789 459.323 285.039 459.507C297.463 460.523 314.556 461.922 321.69 474.033C311.539 464.705 297.639 464.052 287.086 464.052C281.301 464.052 277.495 463.345 273.542 462.611C268.989 461.765 264.239 460.883 256.042 461.002C247.844 460.883 243.092 461.766 238.538 462.611C234.584 463.346 230.78 464.052 224.999 464.052ZM191.387 484.986C181.099 479.088 183.629 470.479 187.826 464.268C183.318 467.534 172.472 483.314 191.387 484.986ZM252.877 410.159C249.374 409.251 250.898 421.956 250.898 421.956C250.898 421.956 255.646 410.878 252.877 410.159ZM248.992 407.553C251.476 408.807 246.352 416.593 244.659 417.638C244.753 417.504 244.885 416.795 245.069 415.806L245.07 415.805C245.667 412.597 246.81 406.455 248.992 407.553ZM245.113 404.947C247.325 406.815 241.811 411.237 238.425 413.327C238.599 413.082 238.906 412.464 239.304 411.666C240.747 408.767 243.379 403.482 245.113 404.947ZM232.185 409.01C233.385 407.305 239.593 400.12 241.227 402.341C242.479 404.048 240.271 405.054 237.152 406.475C235.616 407.175 233.859 407.975 232.185 409.01ZM225.952 404.699C227.554 402.432 236.22 397.174 237.349 399.741C238.074 401.395 236.865 401.567 234.611 401.886C232.432 402.194 229.277 402.641 225.952 404.699ZM229.889 397.403C231.757 400.806 221.34 399.493 218.532 398.677C219.757 398.572 221.418 398.209 223.094 397.842C226.21 397.161 229.379 396.469 229.889 397.403ZM222.891 394.026C223.598 396.769 216.482 393.935 214.646 392.844C215.53 392.995 216.768 393.042 218.018 393.091C220.338 393.18 222.697 393.271 222.891 394.026ZM278.874 470.225C281.449 470.179 284.018 470.192 286.606 470.277H286.599C296.977 470.63 307.213 472.491 317.052 475.509C313.887 475.372 310.741 475.192 307.608 475.012C301.913 474.686 296.263 474.362 290.627 474.307C291.14 475.973 292.463 478.461 295.92 480.767C295.92 480.767 290.543 480.525 288.642 477.978C288.642 480.767 290.776 483.634 290.776 483.634C290.776 483.634 287.455 482.439 286.742 479.807C286.742 479.807 284.05 484.666 284.686 487.455C283.62 486.42 283.509 485.087 283.388 483.626C283.257 482.057 283.115 480.341 281.76 478.69C282.63 482.994 282.234 486.423 279.069 490.166C279.069 490.166 280.333 484.986 278.595 481.72C278.595 481.72 278.439 487.854 275.034 491.283C276.539 483.471 274.956 477.096 271.551 475.502C273.635 478.982 273.073 481.148 272.594 482.992C272.328 484.017 272.087 484.943 272.342 485.94C269.813 485.385 269.177 482.674 269.177 482.674C269.177 482.674 267.354 489.134 270.442 494.072C267.828 492.798 264.98 490.486 265.454 487.22C265.454 487.22 261.731 490.884 261.653 493.915C260.755 491.856 261.292 490.159 261.858 488.372C262.386 486.701 262.94 484.953 262.366 482.759C261.497 486.423 257.696 489.532 257.696 489.532C257.696 489.532 257.936 487.782 256.827 484.993C256.827 484.993 255.089 489.056 256.036 493.118C256.036 493.118 248.615 482.759 249.212 478.572C247.18 483.177 248.008 486.616 248.716 489.56C249.414 492.461 249.996 494.881 247.61 497.462C248.03 494.808 246.546 492.514 245.327 490.63C245.172 490.39 245.021 490.157 244.879 489.931C244.253 488.929 244.068 487.738 243.873 486.485C243.532 484.299 243.163 481.929 240.371 480.068C242.447 483.236 242.33 489.572 239.716 492.981C240.073 490.95 238.944 485.391 234.91 482.4C234.91 482.4 234.371 487.834 236.966 490.486C229.06 488.039 227.503 482.35 226.202 477.599C226.149 477.403 226.096 477.21 226.043 477.018C225.609 479.592 226.418 482.061 227.197 484.437C228.082 487.135 228.928 489.714 227.866 492.191C227.236 487.997 222.644 483.229 217.5 480.44C217.465 480.97 217.423 481.477 217.382 481.968L217.382 481.97C217.146 484.801 216.955 487.092 218.37 490.081C215.583 488.461 215.144 486.261 214.68 483.938C214.301 482.038 213.905 480.055 212.195 478.239C212.195 478.239 212.272 480.995 211.008 482.988C211.008 480.223 210.161 478.34 209.433 476.72C209.139 476.067 208.865 475.457 208.673 474.849C207.666 474.903 206.658 474.96 205.648 475.017L205.638 475.017C202.123 475.215 198.59 475.415 195.025 475.496C204.846 472.348 215.1 470.512 225.479 470.225C228.067 470.146 230.642 470.153 233.21 470.199C235.824 470.251 238.464 470.447 241.072 470.813C242.601 471.015 244.109 471.285 245.589 471.549L245.59 471.55L245.591 471.55C246.639 471.738 247.674 471.923 248.693 472.08C251.151 472.485 253.577 472.694 256.042 472.713C258.507 472.687 260.926 472.485 263.391 472.08C264.407 471.924 265.437 471.738 266.479 471.551L266.48 471.551L266.481 471.551L266.482 471.551L266.483 471.55C267.967 471.283 269.478 471.012 271.013 470.813C273.62 470.46 276.253 470.257 278.874 470.225ZM203.866 385.692L201.57 387.168L201.577 387.181L199.345 388.67L197.14 390.172L194.986 391.694L190.77 394.666L193.294 390.146C193.929 389.01 194.604 387.984 195.35 386.978C196.083 385.973 196.919 385.039 197.763 384.124C199.501 382.341 201.479 380.734 203.756 379.722C203.458 380.088 203.159 380.443 202.863 380.795L202.863 380.796C202.373 381.378 201.891 381.952 201.434 382.55C201.324 382.692 201.213 382.835 201.103 382.977C200.48 383.779 199.859 384.579 199.28 385.411C198.774 386.077 198.301 386.763 197.834 387.455L198.534 387.142C199.378 386.783 200.253 386.476 201.142 386.214C202.031 385.966 202.945 385.77 203.866 385.692ZM192.768 462.295C189.207 460.44 201.615 442.929 207.966 439.46C203.094 444.215 200.215 450.673 198.047 455.537C196.015 460.095 194.607 463.253 192.768 462.295ZM187.741 457.599C184.18 455.744 198.009 438.233 204.359 434.764C199.686 439.324 196.498 445.452 194.009 450.237C191.472 455.116 189.66 458.598 187.741 457.599ZM182.422 445.444C178.881 443.948 192.632 429.794 198.943 426.992C194.3 430.674 191.132 435.625 188.658 439.492C186.134 443.436 184.332 446.252 182.422 445.444ZM182.422 419.062C178.881 417.566 192.632 403.412 198.943 400.61C194.3 404.293 191.132 409.244 188.658 413.11C186.134 417.054 184.332 419.87 182.422 419.062ZM181.333 428.99C177.791 427.494 191.542 413.34 197.853 410.538C193.21 414.221 190.042 419.172 187.568 423.038C185.044 426.982 183.242 429.798 181.333 428.99ZM181.333 437.788C177.791 436.293 191.542 422.138 197.853 419.336C193.21 423.019 190.042 427.97 187.568 431.836C185.044 435.78 183.242 438.596 181.333 437.788ZM200.312 460.715C197.516 459.147 207.239 445.868 212.149 443.262C208.428 446.882 206.182 451.786 204.483 455.497C202.865 459.03 201.742 461.482 200.312 460.715ZM207.894 459.121C205.663 457.743 213.421 447.625 217.267 445.666C214.397 448.443 212.617 452.189 211.261 455.043C209.942 457.82 209.024 459.752 207.894 459.121ZM215.477 457.534C213.803 456.364 219.615 449.31 222.411 447.971C220.378 449.927 219.062 452.548 218.049 454.566C217.026 456.605 216.311 458.029 215.477 457.534ZM223.092 455.933C221.762 454.83 226.387 449.859 228.514 448.951C227.032 450.358 226.01 452.221 225.208 453.681C224.347 455.251 223.74 456.356 223.092 455.933ZM230.694 454.314C229.675 453.249 233.204 450.329 234.689 449.852C233.761 450.711 233.039 451.819 232.448 452.727C231.708 453.862 231.173 454.684 230.694 454.314ZM303.995 439.46C310.352 442.929 322.754 460.44 319.193 462.295C317.351 463.249 315.943 460.09 313.912 455.532C311.745 450.668 308.867 444.211 303.995 439.46ZM307.595 434.771C313.945 438.239 327.774 455.751 324.213 457.605C322.295 458.601 320.484 455.12 317.948 450.244C315.458 445.458 312.27 439.329 307.595 434.771ZM313.018 426.992C319.329 429.794 333.08 443.948 329.539 445.444C327.633 446.251 325.831 443.437 323.307 439.494C320.832 435.627 317.662 430.675 313.018 426.992ZM313.018 400.61C319.329 403.412 333.08 417.566 329.539 419.062C327.633 419.87 325.831 417.055 323.307 413.113C320.832 409.246 317.662 404.294 313.018 400.61ZM314.108 410.538C320.419 413.34 334.17 427.494 330.628 428.99C328.723 429.798 326.921 426.984 324.397 423.041C321.922 419.174 318.752 414.222 314.108 410.538ZM314.108 419.336C320.419 422.138 334.17 436.293 330.628 437.788C328.723 438.596 326.921 435.782 324.397 431.839C321.922 427.972 318.752 423.02 314.108 419.336ZM299.812 443.262C304.722 445.868 314.438 459.147 311.649 460.715C310.219 461.482 309.096 459.03 307.478 455.497C305.779 451.786 303.533 446.882 299.812 443.262ZM294.694 445.666C298.534 447.625 306.298 457.743 304.067 459.121C302.937 459.752 302.02 457.82 300.7 455.043C299.344 452.189 297.564 448.443 294.694 445.666ZM289.55 447.971C292.346 449.31 298.158 456.364 296.484 457.534C295.654 458.029 294.939 456.607 293.916 454.57C292.902 452.551 291.584 449.928 289.55 447.971ZM283.447 448.951C285.574 449.859 290.199 454.83 288.869 455.933C288.22 456.353 287.611 455.245 286.748 453.674C285.946 452.215 284.924 450.357 283.447 448.951ZM277.272 449.852C278.757 450.323 282.286 453.242 281.267 454.314C280.788 454.684 280.253 453.862 279.513 452.727C278.922 451.819 278.2 450.711 277.272 449.852Z" fill="white"/>
<path fill-rule="evenodd" clip-rule="evenodd" d="M176.507 272.53C176.507 272.53 170.254 277.71 157.911 279.702H157.839C145.496 281.694 143.278 285.6 142.013 288.389C141.254 290.061 139.165 292.948 135.176 296.071C140.106 295.489 145.463 295.012 151.016 294.699C156.146 290.76 165.493 286.057 175.67 286.057C175.67 286.057 172.648 283.125 166.414 283.066C172.472 280.081 184.874 279.545 193.838 282.472C193.838 282.472 190.044 277.632 186.185 277.272C199.248 274.105 211.65 283.784 214.796 286.417C213.582 283.329 211.367 281.391 209.275 279.561C207.075 277.635 205.01 275.829 204.392 272.929C206.032 274.925 208.793 276.326 211.974 277.94C216.163 280.066 221.08 282.561 225.128 287.272C224.817 285.999 222.443 280.845 220.225 278.187C222.823 278.881 225.431 281.675 228.225 284.667C230.006 286.575 231.862 288.563 233.839 290.14C233.839 290.14 230.518 285.437 230.992 281.374C233.296 285.552 239.494 291.62 239.915 292.032L239.937 292.054C239.937 292.054 239.223 287.749 237.563 284.085C237.563 284.085 242.395 286.711 244.133 290.937C244.133 290.937 246.189 286.071 245.398 281.133C247.162 285.613 255.439 293.961 255.951 294.47V294.523L255.977 294.496L256.003 294.523V294.47C256.509 293.961 264.792 285.613 266.556 281.133C265.765 286.077 267.821 290.937 267.821 290.937C269.566 286.717 274.392 284.085 274.392 284.085C272.731 287.749 272.018 292.054 272.018 292.054L272.04 292.032C272.461 291.62 278.658 285.552 280.963 281.374C281.436 285.437 278.115 290.14 278.115 290.14C280.093 288.563 281.951 286.574 283.733 284.666C286.527 281.674 289.136 278.881 291.73 278.187C289.518 280.845 287.144 285.999 286.826 287.272C290.874 282.561 295.792 280.066 299.981 277.94C303.162 276.326 305.922 274.925 307.563 272.929C306.944 275.829 304.88 277.635 302.679 279.561C300.588 281.391 298.373 283.329 297.159 286.417C300.305 283.784 312.713 274.105 325.77 277.272C321.917 277.632 318.116 282.472 318.116 282.472C327.08 279.539 339.489 280.074 345.54 283.066C339.313 283.131 336.284 286.057 336.284 286.057C346.507 286.057 355.892 290.806 361.01 294.758C366.614 295.091 372.005 295.594 376.934 296.201C372.841 293.027 370.707 290.088 369.935 288.389C368.671 285.6 366.452 281.694 354.109 279.702C341.765 277.71 335.512 272.53 335.512 272.53C339.79 273.933 344.814 273.731 348.47 273.584C350.635 273.497 352.319 273.429 353.084 273.726C345.884 267.828 337.653 263.125 325.31 265.757C328.241 262.968 337.102 260.819 337.102 260.819C334.266 260.485 331.518 260.703 328.688 260.928C325.433 261.186 322.07 261.453 318.343 260.897C311.383 259.859 307.187 255.796 307.187 255.796C315.574 258.507 327.288 255.796 327.288 255.796C324.752 254.366 314.147 253.092 309.716 254.444C312.33 251.413 319.926 250.218 319.926 250.218C317.156 247.828 304.813 248.226 300.065 250.695C301.414 247.743 305.766 244.32 307.822 244C302.99 244.242 300.616 245.437 295.712 249.578C290.809 253.726 286.534 253.882 286.534 253.882C291.678 250.695 293.896 245.437 293.896 245.437C288.83 249.5 284.322 251.015 278.148 252.21C271.973 253.406 266.278 261.296 266.278 261.296C273.082 256.593 278.621 255.875 278.621 255.875C272.29 260.179 270.39 267.592 270.39 267.592C276.721 260.741 288.668 257.07 297.373 258.905C290.413 259.304 275.06 267.351 271.259 281.694C269.994 278.664 270.786 272.929 270.786 272.929C268.885 273.726 265.72 277.312 265.72 277.312C265.408 273.086 265.642 270.453 267.542 265.992C265.006 267.423 259.467 275.711 259.785 282.406C258.196 278.984 256.34 273.909 256.036 273.059V272.922C256.036 272.922 256.023 272.942 256.01 272.988C255.99 272.948 255.984 272.922 255.984 272.922V273.059C255.679 273.902 253.824 278.984 252.235 282.406C252.546 275.718 247.007 267.429 244.477 265.992C246.378 270.46 246.617 273.086 246.3 277.312C246.3 277.312 243.134 273.726 241.234 272.929C241.234 272.929 242.025 278.664 240.76 281.694C236.966 267.351 221.613 259.304 214.646 258.905C223.351 257.07 235.299 260.741 241.63 267.592C241.63 267.592 239.729 260.179 233.398 255.875C233.398 255.875 238.938 256.593 245.742 261.296C245.742 261.296 240.047 253.406 233.872 252.21C227.697 251.015 223.189 249.5 218.123 245.437C218.123 245.437 220.341 250.695 225.485 253.882C225.485 253.882 221.211 253.719 216.307 249.578C211.397 245.437 209.023 244.242 204.197 244C206.26 244.32 210.612 247.749 211.955 250.695C207.207 248.226 194.863 247.828 192.094 250.218C192.094 250.218 199.689 251.413 202.303 254.444C197.866 253.086 187.261 254.359 184.732 255.796C184.732 255.796 196.446 258.507 204.833 255.796C204.833 255.796 200.643 259.859 193.676 260.897C189.949 261.453 186.584 261.186 183.327 260.928C180.498 260.703 177.75 260.485 174.918 260.819C174.918 260.819 183.785 262.968 186.71 265.757C174.366 263.125 166.135 267.828 158.935 273.726C159.703 273.429 161.389 273.497 163.555 273.584C167.211 273.731 172.234 273.933 176.507 272.53ZM330.687 378.05C338.425 377.971 346.267 376.756 353.544 374.118C357.028 372.85 360.504 371.315 363.585 369.258C366.478 367.325 368.923 364.849 370.824 361.962C374.43 356.482 375.851 350.009 376.629 343.621C375.345 350.519 373.438 357.619 368.846 363.17C366.504 365.999 363.618 368.017 360.407 369.794C357.287 371.518 353.843 372.844 350.412 373.824C343.121 375.907 335.512 376.841 327.923 376.822C325.965 376.815 323.688 376.756 321.729 376.619C322.034 377.031 322.332 377.442 322.624 377.86C325.199 378.024 328.099 378.076 330.687 378.05ZM318.661 584.281C320.146 588.905 319.135 598.05 312.843 603.125C315.749 597.984 318.959 587.965 318.661 584.281ZM300.331 581.139C300.331 581.139 311.494 575.163 311.254 564.523C311.014 553.882 312.973 550.12 316.949 546.175C312.077 547.429 306.856 556.698 307.213 562.792C307.505 567.756 305.909 574.921 300.331 581.139ZM202.926 562.785C203.282 556.691 198.054 547.423 193.19 546.169C197.166 550.114 199.125 553.876 198.885 564.516C198.651 575.156 209.808 581.133 209.808 581.133C204.229 574.921 202.634 567.749 202.926 562.785ZM141.293 363.072C143.79 366.541 147.15 369.062 150.931 371.067L150.925 371.061C163.041 377.475 175.962 379.049 189.557 377.808C189.726 377.586 189.895 377.365 190.063 377.145L190.07 377.136C190.237 376.919 190.403 376.701 190.569 376.482C183.96 377.142 178.368 376.946 171.811 376.149C163.975 375.195 156.082 373.033 149.219 369.127C145.879 367.227 143.051 364.699 140.845 361.583C138.997 358.971 137.693 356.084 136.59 353.105C137.673 356.652 139.107 360.029 141.293 363.072ZM134.822 333.821C134.839 333.708 134.857 333.594 134.871 333.477L134.865 333.458C141.46 331.482 148.805 328.503 156.475 325.394C183.48 314.445 214.505 301.866 230.953 325.653C231.141 325.927 231.543 325.613 231.764 325.391C232.127 326.469 232.374 327.586 232.549 328.709C232.905 331.074 232.99 333.641 232.549 336.018C232.565 336.018 232.579 336.015 232.594 336.012L232.604 336.01C232.615 336.007 232.627 336.005 232.639 336.005C233.489 333.589 233.788 330.911 233.801 328.383C233.814 325.561 233.282 322.89 232.03 320.388C231.907 320.074 231.764 319.787 231.589 319.552C228.631 315.528 223.624 312.681 217.442 310.388C204.651 305.646 175.171 302.687 157.029 304.562C143.278 305.986 136.642 311.969 134.443 322.204C132.757 329.807 133.146 337.449 134.443 345.084C134.326 341.479 134.372 337.86 134.761 334.268C134.776 334.116 134.799 333.969 134.822 333.821ZM156.289 296.913C148.428 297.201 140.573 297.717 132.783 298.82V298.827C126.134 299.767 119.544 301.008 112.986 302.465C120.588 301.479 128.19 300.525 135.831 299.892C149.803 298.735 163.826 298.566 177.824 299.304C185.542 299.709 193.209 300.486 200.889 301.302C205.806 301.827 210.694 302.541 215.581 303.253L215.581 303.254L215.582 303.254L215.583 303.254C217.322 303.508 219.062 303.761 220.802 304.007C213.408 302.269 205.981 300.715 198.463 299.585C184.556 297.494 170.364 296.397 156.289 296.913ZM168.87 294.059L168.853 294.065L168.866 294.059L168.87 294.059ZM168.87 294.059C174.749 292.037 184.524 293.824 184.524 293.824C181.852 291.551 176.87 290.238 172.122 290.414C176.87 288.442 185.478 288.618 194.026 296.391C194.085 293.758 186.723 287.488 184.414 285.933C190.362 286.665 201.713 293.863 204.69 298.18C197.808 296.913 189.985 295.796 180.924 294.986C177.564 294.686 174.12 294.496 170.656 294.398C169.646 294.167 168.932 294.068 168.87 294.059ZM207.531 290.937C205.669 285.639 200.96 281.629 197.438 280.656V280.662C200.331 282.57 205.079 288.866 205.196 291.538C205.196 291.538 200.208 286.874 195.382 285.757C197.153 286.854 203.951 292.694 205.001 298.246C208.472 298.886 211.689 299.565 214.705 300.264C213.219 299.023 209.049 295.261 207.531 290.937ZM223.833 294.8C222.11 293.65 220.797 292.774 220.432 292.21V292.217C220.889 294.916 223.676 297.552 225.822 299.58C227.031 300.723 228.036 301.673 228.307 302.334C218.454 299.062 212.83 293.523 211.488 289.781C211.293 294.013 212.921 296.841 215.029 300.336C222.262 302.016 228.289 303.779 233.598 305.332L233.599 305.332C235.451 305.874 237.215 306.389 238.912 306.867C237.751 301.113 234.981 298.54 232.678 297.769C232.678 297.769 235.208 301.12 234.637 304.405C232.148 300.347 227.205 297.049 223.833 294.8ZM244.724 308.389C245.567 305.404 244.983 302.119 241.085 299.683V299.689C242.557 301.342 243.426 305.039 243.608 308.121C243.978 308.213 244.354 308.304 244.724 308.389ZM250.224 302.491C251.962 301.734 249.154 298.252 247.552 297.651C247.792 297.953 247.988 298.682 248.204 299.488C248.63 301.075 249.136 302.963 250.224 302.491ZM263.83 299.488C264.046 298.682 264.241 297.953 264.481 297.651C262.879 298.246 260.07 301.734 261.808 302.491C262.901 302.968 263.406 301.077 263.83 299.488ZM268.444 307.886C268.652 304.849 269.514 301.302 270.948 299.683C267.14 302.06 266.498 305.254 267.257 308.18L267.345 308.159C267.446 308.134 267.547 308.109 267.649 308.085L267.653 308.084C267.917 308.02 268.18 307.956 268.444 307.886ZM288.202 294.803C284.831 297.054 279.89 300.352 277.402 304.405V304.398C276.831 301.106 279.36 297.762 279.36 297.762C277.09 298.526 274.366 301.022 273.179 306.593C274.625 306.181 276.119 305.744 277.676 305.289L277.68 305.288L277.684 305.287C283.215 303.67 289.524 301.825 297.159 300.088C299.189 296.704 300.739 293.909 300.551 289.774C299.202 293.523 293.585 299.062 283.732 302.328C284.003 301.671 285.004 300.725 286.208 299.587C288.355 297.558 291.15 294.918 291.607 292.21C291.242 292.774 289.928 293.652 288.202 294.803ZM316.646 285.759L316.65 285.757H316.657L316.646 285.759ZM316.646 285.759C314.889 286.843 308.211 292.58 307.064 298.076C303.717 298.683 300.59 299.323 297.665 299.983C299.364 298.52 303.087 294.973 304.508 290.943C306.369 285.646 311.079 281.642 314.601 280.662C311.714 282.576 306.966 288.873 306.843 291.538C306.843 291.538 311.824 286.881 316.646 285.759ZM343.177 294.066L343.186 294.065L343.192 294.072L343.177 294.066ZM327.521 293.83C327.521 293.83 337.298 292.037 343.177 294.066C343.094 294.077 342.452 294.165 341.545 294.372C337.718 294.464 333.917 294.666 330.213 294.993C325.9 295.378 321.872 295.835 318.084 296.345C326.607 288.631 335.182 288.455 339.923 290.421C335.175 290.244 330.187 291.557 327.521 293.83ZM307.492 297.997C310.774 297.41 314.276 296.854 318.025 296.351H318.032C318.051 293.7 325.335 287.488 327.638 285.94C321.774 286.658 310.663 293.66 307.492 297.997ZM340.799 371.877C345.45 371.185 349.86 369.865 354.174 368.024V368.017C358.091 366.345 361.782 364.183 364.831 361.231C367.425 358.716 369.319 355.718 370.733 352.439C368.904 356.142 366.485 359.434 363.242 362.08C359.869 364.83 355.873 366.769 351.793 368.298C347.46 369.918 343.063 370.969 338.47 371.557C333.91 372.138 329.312 372.478 324.719 372.615C324.162 372.632 323.552 372.656 322.918 372.681L322.917 372.681C321.331 372.744 319.598 372.813 318.194 372.785C318.272 372.87 318.343 372.961 318.421 373.046C320.55 373.161 323.133 373.093 325.394 373.033C325.834 373.022 326.262 373.01 326.672 373.001C331.394 372.896 336.122 372.576 340.799 371.877ZM176.961 372.374C181.43 372.687 185.906 372.635 190.368 372.282H190.362C192.003 372.152 193.676 372.008 195.337 371.799C195.349 371.787 195.36 371.774 195.372 371.76C195.384 371.746 195.395 371.732 195.407 371.717C195.42 371.701 195.433 371.684 195.447 371.668C195.572 371.527 195.696 371.393 195.821 371.259C195.904 371.17 195.987 371.08 196.07 370.989C195.896 371.011 195.723 371.036 195.55 371.06L195.549 371.06L195.548 371.06L195.544 371.061L195.541 371.061C195.367 371.086 195.193 371.11 195.019 371.133C192.658 371.446 190.284 371.681 187.91 371.831C180.172 372.315 172.31 372.001 164.689 370.512C168.723 371.472 172.816 372.086 176.961 372.374ZM241.707 311.753C241.124 314.81 241.013 317.997 241.013 321.1C241.02 324.209 241.117 327.39 241.707 330.447C242.298 327.39 242.401 324.202 242.401 321.1C242.395 317.991 242.291 314.816 241.707 311.753ZM269.456 321.1C269.462 324.209 269.56 327.39 270.15 330.447C270.74 327.39 270.844 324.202 270.844 321.1C270.837 317.991 270.734 314.816 270.15 311.753C269.566 314.81 269.456 317.997 269.456 321.1ZM267.004 325.835C267.575 323.726 267.692 321.472 267.698 319.304C267.705 317.057 267.588 314.712 267.004 312.524C266.42 314.705 266.303 317.057 266.31 319.304C266.316 321.472 266.433 323.726 267.004 325.835ZM264.753 318.592C264.753 316.828 264.624 314.967 264.059 313.282C263.495 314.967 263.365 316.828 263.365 318.592C263.365 320.355 263.495 322.217 264.059 323.902C264.63 322.217 264.753 320.355 264.753 318.592ZM265.83 333.36C264.455 333.641 262.989 332.393 261.945 327.906C263.339 329.199 264.559 331.002 265.83 333.36ZM245.463 333.053C245.482 333.066 245.515 333.092 245.515 333.092H245.521C247.156 334.013 249.069 333.059 250.282 327.024C248.466 328.285 246.994 330.264 245.463 333.053ZM245.748 324.444C246.319 322.53 246.442 320.46 246.442 318.481C246.442 316.502 246.319 314.431 245.748 312.517C245.178 314.431 245.054 316.502 245.054 318.481C245.054 320.466 245.178 322.537 245.748 324.444ZM281.838 353.974C293.63 353.895 298.378 360.506 299.17 369.513C303.036 354.751 293.397 346.626 281.365 346.639C276.333 346.642 271.885 348.372 267.624 350.029C263.707 351.552 259.948 353.014 256.042 353.014C252.14 353.014 248.383 351.553 244.465 350.03C240.203 348.373 235.752 346.642 230.72 346.639C218.694 346.632 209.049 354.751 212.915 369.513C213.706 360.506 218.454 353.895 230.246 353.974C242.038 354.059 251.294 361.903 251.138 370.473C251.015 377.083 243.543 379.715 243.543 379.715C243.543 379.715 251.456 373.34 245.521 365.372C246.151 372.785 243.543 376.691 238.477 378.442C233.411 380.192 228.19 379.637 225.102 375.012C226.523 380.114 233.411 383.536 240.611 383.059C247.811 382.583 254.699 377.958 256.042 374.294C257.385 377.958 264.273 382.583 271.473 383.059C278.673 383.536 285.555 380.114 286.982 375.012C283.894 379.637 278.673 380.192 273.607 378.442C268.541 376.691 265.927 372.785 266.563 365.372C260.628 373.34 268.541 379.715 268.541 379.715C268.541 379.715 261.069 377.089 260.946 370.473C260.79 361.903 270.046 354.052 281.838 353.974ZM256.042 397.801C260.55 397.801 264.585 394.379 268.859 390.473C260.401 395.404 256.049 387.057 256.042 387.044C256.036 387.063 251.683 395.411 243.225 390.473C247.493 394.372 251.534 397.801 256.042 397.801ZM242.885 344.075C246.61 345.717 250.407 347.39 256.042 347.201C261.678 347.39 265.476 345.718 269.202 344.077C273.674 342.107 278.042 340.183 285.36 341.583C285.36 341.583 277.46 338.024 269.89 340.826L269.16 341.096C261.458 343.946 260.957 344.131 256.042 344.157C251.134 344.131 250.634 343.947 242.955 341.107L242.194 340.826C234.624 338.03 226.724 341.583 226.724 341.583C234.043 340.179 238.411 342.104 242.885 344.075ZM128.29 309.189L128.29 309.189C128.834 309.262 129.38 309.335 129.929 309.402C126.608 305.626 119.401 305.796 116.048 309.402C116.826 309.324 117.594 309.219 118.36 309.114C119.847 308.911 121.326 308.709 122.859 308.709C124.702 308.709 126.488 308.948 128.29 309.189ZM127.983 352.06C127.561 350.447 127.185 348.775 126.88 346.992L126.8 346.519L126.8 346.518L126.799 346.517C126.377 344.033 125.993 341.773 125.615 339.722C125.102 341.908 124.859 343.854 124.624 345.735C124.153 349.508 123.715 353.018 121.192 357.664C121.192 357.664 124.662 355.541 127.983 352.06ZM267.633 621.779C270.202 630.741 268.6 636.639 266.012 642.099H266.005C263.514 647.357 262.327 655.842 272.537 662.419C272.537 662.419 265.266 652.824 269.333 644.052C273.471 635.13 272.303 628.709 267.633 621.779ZM280.963 335.43C279.36 297.769 378.024 300.101 374.768 325.672L374.774 325.679C374.748 325.894 375.183 325.646 375.364 325.47C376.5 329.297 377.038 333.314 377.317 337.272C377.725 332.197 377.719 327.018 376.623 322.027C376.623 322.01 376.626 321.995 376.63 321.98C376.633 321.967 376.636 321.955 376.636 321.943C376.461 321.152 376.247 320.401 376.013 319.663C375.991 319.594 375.974 319.525 375.957 319.457C375.938 319.383 375.92 319.31 375.896 319.238C375.883 319.245 375.877 319.245 375.87 319.245C373.062 310.826 366.452 305.855 354.096 304.575C335.954 302.7 306.467 305.659 293.682 310.401C285.38 313.477 279.198 317.56 277.246 324.137C276.669 326.449 276.338 329.565 276.896 332.354C276.941 332.596 276.999 332.824 277.058 333.04C277.155 333.569 277.265 334.098 277.389 334.627C277.551 335.313 277.739 335.992 277.933 336.671C278.459 336.822 278.978 336.972 279.503 337.129C279.453 336.786 279.415 336.443 279.376 336.097C279.364 335.995 279.353 335.892 279.341 335.79C279.821 335.848 280.359 335.744 280.963 335.43ZM384.332 346.475L384.244 346.992L384.238 346.985C384.069 347.991 383.875 348.964 383.667 349.911C387.403 354.653 392.32 357.658 392.32 357.658C389.802 353.016 389.365 349.512 388.894 345.744C388.503 342.62 388.09 339.313 386.45 335.025C385.744 338.181 385.105 341.936 384.335 346.459L384.334 346.464L384.334 346.466L384.333 346.472L384.332 346.475ZM394.726 309.402C391.373 305.79 384.166 305.639 380.845 309.402C381.394 309.335 381.939 309.262 382.482 309.19L382.483 309.189L382.484 309.189L382.485 309.189C384.286 308.948 386.072 308.709 387.915 308.709C389.448 308.705 390.928 308.909 392.415 309.113C393.18 309.218 393.948 309.324 394.726 309.402ZM354.647 298.866C362.457 299.036 370.24 299.415 378.017 300.107V300.101C384.783 300.708 391.509 301.577 398.242 302.452C390.737 300.786 383.18 299.376 375.546 298.455C367.749 297.514 359.882 296.907 352.02 296.854C345.761 296.815 339.547 296.985 333.301 297.331C318.83 298.135 304.495 300.702 290.426 304.007C291.268 303.888 292.11 303.769 292.951 303.65C299.616 302.708 306.267 301.768 312.96 301.008C326.762 299.441 340.747 298.566 354.647 298.866ZM161.673 680.414C161.498 673.837 158.112 665.652 154.434 660.63C162.925 666.129 164.403 672.223 161.673 680.414ZM190.401 674.379C190.401 674.379 191.704 667.325 190.517 663.379L190.498 663.353C194.592 666.73 197.017 673.963 199.208 680.5C200.895 685.532 202.443 690.151 204.508 692.282C202.53 688.853 202.26 685.036 202.001 681.371C201.763 678.005 201.534 674.769 200 672.08C198.453 669.367 198.069 667.573 197.738 666.025C197.383 664.369 197.089 662.995 195.492 661.08C192.405 657.377 190.264 651.283 190.148 644.229C190.148 644.229 185.283 652.354 185.64 658.69C184.395 653.509 182.288 648.817 180.245 644.263C177.998 639.257 175.826 634.418 174.957 629.284C174.957 629.284 172.349 643.987 175.197 649.127C166.881 644.104 160.473 625.816 159.999 617.808C157.385 623.902 158.099 632.628 161.66 640.519C155.368 636.214 149.556 616.613 149.316 611.113C147.299 615.411 148.486 627.246 151.807 633.105C144.925 627.847 136.259 603.099 137.446 596.645C135.429 600.826 132.342 607.88 134.599 614.575C125.22 601.903 127.47 576.678 132.815 565.803C132.815 565.803 124.033 574.052 124.149 581.224C124.149 581.224 115.957 557.436 111.683 553.967C111.559 558.272 111.326 569.271 120.465 576.084C108.413 573.417 106.457 564.178 104.886 556.759C104.276 553.876 103.724 551.268 102.66 549.428C102.66 549.428 99.5727 563.536 102.303 571.185C97.3155 564.732 95.2982 556.365 97.5555 546.56C99.8127 536.756 101.116 525.398 98.9825 519.663C99.0359 521.141 97.9431 523.121 96.6177 525.523C95.0501 528.363 93.1572 531.793 92.4507 535.679C82.4813 518.944 79.037 499.219 84.3818 488.82C77.9733 493.484 71.3248 507.227 71.4416 521.453C71.4416 521.453 65.9866 505.548 71.6815 491.329C74.103 485.283 76.9759 480.748 79.4147 476.899C82.7118 471.695 85.2157 467.743 84.7385 463.001C84.0108 466.565 81.1576 469.258 78.1109 472.134C74.2057 475.82 69.9823 479.807 69.5086 486.312C67.3986 479.62 70.4901 473.863 73.7656 467.763C76.3402 462.969 79.0284 457.964 79.3938 452.125C75.1193 454.398 71.5583 462.282 70.6113 468.86C66.2808 453.978 75.6876 441.296 81.9972 432.791C84.505 429.41 86.5235 426.689 86.9957 424.751C86.9957 424.751 80.8208 426.9 78.4468 429.892C78.8724 426.447 81.7124 423.558 85.2835 419.925C90.6376 414.478 97.6352 407.359 100.604 394.189C99.5014 423.673 86.9179 436.43 81.1386 441.766C88.9741 438.735 96.5695 429.572 99.1835 422.321C98.8657 427.664 97.8344 433.079 92.5351 438.5C87.2293 443.915 82.1894 455.11 81.1386 461.289C81.1386 461.289 87.8649 450.61 93.722 444.79C93.722 444.79 89.4411 456.593 88.5006 464.954C88.8984 463.717 90.0398 461.849 91.4716 459.507C94.0314 455.319 97.5196 449.613 99.3457 443.275C99.3457 443.275 98.8657 456.822 95.9404 462.478C98.661 460.03 100.201 454.917 101.619 450.212C102.554 447.109 103.436 444.184 104.567 442.315C103.812 444.72 103.764 448.361 103.707 452.689C103.594 461.269 103.445 472.548 97.6852 482.243C92.1913 491.498 86.7687 504.594 90.4465 516.43C90.2286 514.23 91.8947 510.992 93.7111 507.461C95.8425 503.319 98.1808 498.774 97.9252 495.032C101.077 500.179 102.163 508.111 103.157 515.372C103.848 520.421 104.494 525.146 105.761 528.383C105.364 524.45 106.059 520.497 106.842 516.041C107.94 509.794 109.212 502.558 107.895 493.001C107.895 493.001 111.099 505.548 113.946 512.961C115.181 516.168 115.77 519.776 116.386 523.554C117.195 528.512 118.052 533.762 120.478 538.781C120.381 537.716 120.518 535.749 120.683 533.366C120.927 529.863 121.233 525.458 120.952 521.688C120.76 519.127 120.083 517.64 119.4 516.137C118.392 513.922 117.369 511.675 117.864 505.907C118.694 496.221 118.26 480.244 118.26 480.244C118.26 480.244 113.823 487.174 112.876 494.666C112.876 494.666 111.611 484.072 113.512 477.854C114.369 475.051 116.015 472.279 117.629 469.561C119.592 466.255 121.507 463.029 121.899 459.924C120.712 462.236 114.374 468.853 109.866 467.338C115.768 465.22 118.952 454.063 121.52 445.065C122.43 441.878 123.262 438.963 124.11 436.815C125.851 432.408 128.39 429.449 130.723 426.728C132.738 424.38 134.599 422.21 135.663 419.441C135.322 419.666 134.907 419.932 134.429 420.238C130.358 422.845 121.78 428.337 116.787 436.247C117.144 428.148 126.167 419.363 133.289 415.176C140.411 410.989 150.62 400.349 154.421 394.732C151.156 406.31 145.811 414.426 141.685 420.691C138.91 424.905 136.687 428.281 136.019 431.309C136.019 431.309 142.668 428.559 147.533 420.434C147.533 420.434 145.392 429.879 138.51 437.05C131.622 444.222 129.17 454.183 129.17 454.183C129.17 454.183 133.522 452.426 138.666 445.574C138.666 445.574 136.058 453.621 130.597 460.238C125.135 466.848 123.63 475.777 123.948 482.948C124.5 480.003 138.666 456.73 138.666 456.73C138.666 456.73 133.678 469.957 129.325 481.91C124.973 493.869 123.87 507.174 125.609 512.674C125.646 509.667 127.795 504.781 130.135 499.461C132.756 493.505 135.615 487.005 136.013 481.995C137.528 488.171 135.887 494.242 134.394 499.77C133.662 502.479 132.965 505.058 132.692 507.455C131.862 514.745 133.684 531.002 133.684 531.002C133.684 531.002 138.374 524.457 138.037 521.361C139.142 528.082 137.649 534.211 136.113 540.515C135.009 545.049 133.882 549.673 133.684 554.673C133.684 554.673 139.775 546.619 140.015 542.138C140.815 547.67 139.94 552.774 139.079 557.799C138.069 563.691 137.077 569.475 138.828 575.711C139.859 565.986 146.826 552.204 151.334 547.978C144.374 563.915 150.464 583.68 153.948 587.984C152.527 580.179 153.474 566.867 154.661 562.805C155.088 566.909 156.849 570.786 158.67 574.794C159.888 577.476 161.133 580.218 162.023 583.125C163.069 586.558 163.355 591.808 163.642 597.088C163.962 602.969 164.284 608.887 165.662 612.374C165.662 612.374 165.74 607.116 167.64 604.327C167.64 609.029 171.045 620.029 171.045 620.029C171.045 620.029 172.472 608.154 170.176 601.701C167.88 595.248 165.344 587.997 166.771 579.787C167.343 583.93 169.318 588.177 171.257 592.345C172.265 594.512 173.263 596.657 174.049 598.755C175.008 601.317 175.442 606.048 175.899 611.032C176.536 617.981 177.219 625.422 179.432 628.161C178.083 623.778 179.432 610.395 180.301 605.77C182.521 612.78 182.522 612.792 182.948 618.688L182.993 619.317C183.185 621.966 183.795 623.738 184.488 625.753C185.504 628.706 186.7 632.184 187.028 639.715C187.028 639.715 189.875 629.513 188.766 620.669C190.434 622.805 191.068 624.886 191.771 627.193C192.536 629.705 193.383 632.483 195.732 635.888C197.201 638.016 198.229 640.326 199.248 642.615C201.355 647.35 203.42 651.992 209.263 654.732C205.241 648.504 204.366 641.289 203.607 635.025C203.157 631.309 202.747 627.928 201.745 625.287C202.063 629.513 199.845 635.809 199.845 635.809C199.845 635.809 196.835 624.732 192.483 620.349C188.13 615.966 186.47 609.669 185.756 603.85C185.756 603.85 190.822 611.818 195.57 613.092C186.632 603.288 183.94 583.922 185.996 575.796C182.675 578.984 179.192 588.304 179.192 598.428C178.167 592.063 175.587 587.486 173.44 583.677C171.932 581.001 170.638 578.706 170.248 576.436C169.984 574.905 169.85 572.581 169.694 569.854C169.288 562.79 168.728 553.024 165.344 547.331C165.645 551.448 164.414 556.92 163.217 562.237C162.764 564.25 162.316 566.241 161.958 568.128C162.161 559.033 159.799 552.905 157.665 547.37C156.041 543.159 154.55 539.291 154.421 534.719C154.421 534.719 150.62 541.89 146.586 543.922C148.96 539.976 154.538 522.289 153.468 515.711C152.994 518.344 148.596 525.515 144.199 528.703C149.588 509.283 149.937 492.291 150.167 481.083L150.167 481.081L150.167 481.08C150.207 479.137 150.244 477.367 150.302 475.79C150.302 475.79 144.367 487.821 143.732 498.899C138.114 488.298 147.455 457.854 155.128 446.234C155.128 446.234 153.779 469.885 157.262 476.58C157.262 476.58 158.845 468.69 161.063 465.744C160.554 470.665 160.915 476.83 161.277 483.014C161.648 489.348 162.02 495.7 161.459 500.754C161.459 500.754 165.571 493.765 165.24 487.743C165.521 489.895 166.053 492.149 166.621 494.557C168.295 501.656 170.282 510.083 167.076 521.126C170.799 516.188 174.12 505.666 172.537 500.754C175.343 503.03 175.817 507.32 176.311 511.784C176.722 515.504 177.147 519.345 178.946 522.243C178.946 522.243 181.111 518.095 180.145 514.888C185.097 530.009 192.895 536.835 203.185 541.126C190.894 531.701 182.312 517.723 177.058 498.873C166.135 488.86 165.506 480.943 173.601 458.187C173.595 458.115 173.588 458.047 173.582 457.979L173.582 457.978L173.581 457.977C173.575 457.908 173.569 457.84 173.562 457.769C173.423 457.45 173.261 457.165 173.095 456.872C172.86 456.457 172.616 456.026 172.414 455.463C172.414 455.463 172.096 457.018 167.348 460.819C167.348 460.819 171.026 451.048 170.916 442.439C169.262 442.922 165.091 448.18 162.957 456.188C160.791 445.522 166.168 433.334 171.642 428.455C172.038 419.944 174.088 412.06 179.757 404.157C179.504 397.658 181.411 390.845 185.01 384.425C173.419 384.66 159.39 383.647 151.152 379.526C149.887 378.892 148.674 378.226 147.487 377.54C146.183 379.297 145.548 380.479 145.548 380.479C145.963 379.336 146.41 378.239 146.877 377.187C138.854 372.4 132.796 366.11 129.267 356.28C127.224 359.297 124.435 361.943 120.88 363.85C120.722 363.934 120.565 364.019 120.409 364.102C115.036 366.98 110.548 369.383 104.321 380.884C104.321 380.884 105.508 370.127 108.122 366.423C108.426 365.992 108.791 365.493 109.199 364.936L109.2 364.935C112.299 360.7 117.871 353.088 117.974 346.221C117.261 349.33 108.595 362.955 102.303 364.849C103.524 364.074 105.479 360.312 108.146 355.182C111.858 348.04 116.949 338.247 123.352 330.172C121.477 324.621 118.733 321.603 112.993 319.46C111.722 316.887 110.658 310.27 110.055 305.829C105.8 308.892 102.206 313.771 100.825 316.338C100.468 311.681 105.929 303.19 111.508 299.545C117.086 295.901 122.067 290.225 122.722 288.252C121.098 288.498 117.703 291.279 114.398 293.985C111.3 296.521 108.282 298.992 106.876 299.251C109.724 296.325 115.302 288.553 115.659 285.986C115.659 285.986 102.543 295.306 99.9295 299.911C99.9295 299.911 100.701 292.922 105.391 288.677C102.479 289.212 93.5793 293.458 90.9654 295.907C92.6323 292.027 96.9068 287.122 100.643 285.809C85.4522 287.224 81.3792 297.347 78.6521 304.124C77.9162 305.954 77.2783 307.539 76.5463 308.644C76.9029 307.045 76.9909 305.346 77.0889 303.455C77.251 300.325 77.4402 296.671 78.9203 292.086C80.5259 287.112 84.357 284.546 88.1016 282.038C89.8934 280.837 91.6654 279.651 93.1642 278.219C93.1642 278.219 88.5395 278.095 86.6974 278.755C91.4116 273.338 98.5294 273.587 103.395 273.757C105.451 273.829 107.105 273.887 108.005 273.497C105.566 273.556 101.655 271.524 101.058 270.27C104.666 270.658 106.575 270.416 108.467 270.177C110.654 269.9 112.819 269.625 117.559 270.329C121.711 270.946 126.098 272.605 130.014 274.086C134.439 275.759 138.263 277.205 140.469 276.665C138.592 276.523 136.69 275.303 134.723 274.042C132.522 272.631 130.242 271.169 127.827 271.106C131.592 270.331 134.123 270.812 136.771 271.315C139.633 271.859 142.632 272.429 147.474 271.466C145.506 270.748 143.896 269.003 142.022 266.972C139.373 264.101 136.197 260.659 130.739 258.735C131.373 259.373 132.041 260.346 132.81 261.467C134.492 263.917 136.657 267.071 139.995 268.958C136.574 268.376 133.518 266.821 130.472 265.272C128.184 264.108 125.902 262.946 123.475 262.204C123.475 262.204 126.958 265.907 127.827 267.88C122.126 263.935 114.712 262.498 110.139 264.47C108.85 265.027 107.002 265.623 104.922 266.293C99.6363 267.996 92.8555 270.18 89.96 273.438C88.2587 275.35 86.4113 276.88 84.5501 278.422C81.9906 280.542 79.4048 282.684 77.1365 285.868C75.042 288.808 75.1518 290.998 75.2726 293.404C75.3776 295.498 75.4909 297.755 74.1658 300.813C71.3183 307.383 73.1021 311.211 77.1365 318.383C79.139 321.937 79.5359 325.433 79.8893 328.545C80.2491 331.714 80.5638 334.485 82.4813 336.515C82.4813 336.515 82.4034 325.28 83.9861 319.781C83.9861 319.781 84.9396 329.983 87.4692 334.523C87.4692 334.523 92.1329 323.131 90.9524 319.382C90.9524 319.382 94.7469 328.468 91.8994 335.398C93.9556 332.452 101.078 323.21 104.561 322.57C101.869 323.843 96.6474 335.163 96.6474 335.163C96.6474 335.163 101.953 331.818 107.648 327.592C107.648 327.592 101.473 337.076 96.5695 342.178C91.6594 347.279 88.2606 351.74 83.6683 361.864C89.0519 360.192 97.8798 353.432 99.657 349.434C98.7879 352.857 91.2702 364.895 87.3136 368.637C85.5235 370.334 83.7175 372.878 81.624 375.826C79.0903 379.395 76.1354 383.557 72.2783 387.527C73.1679 386.776 74.9361 385.61 76.8915 384.321C80.3254 382.057 84.3365 379.413 85.1796 377.965C83.5126 381.629 76.1571 389.754 73.4653 392.387C79.147 390.863 82.3022 387.297 85.229 383.99C88.5238 380.268 91.5291 376.872 97.523 377.083C97.523 377.083 90.7967 379.036 87.2357 387.246C84.842 392.765 81.1585 395.026 76.6938 397.766C74.5167 399.102 72.1539 400.552 69.6643 402.55C64.6649 406.564 62.2535 410.047 60.1559 413.076C59.4613 414.08 58.8011 415.033 58.0927 415.94C59.2847 415.549 60.5893 414.691 61.8784 413.842C63.5424 412.747 65.1808 411.669 66.5184 411.636C66.3932 411.846 65.6915 412.65 64.654 413.84C61.286 417.7 54.3791 425.616 52.1577 430.46C53.5545 428.768 56.2573 427.222 59.2708 425.498C64.4578 422.532 70.5654 419.039 72.5183 413.366C72.5183 413.366 71.5064 423.765 64.7996 428.069C58.0927 432.374 51.8204 443.589 51.5026 448.213C51.5026 448.213 60.9402 438.592 63.8461 437.396C63.8461 437.396 57.4311 449.774 53.695 455.15C51.7974 457.88 51.2618 460.565 50.7354 463.204C50.2252 465.761 49.7236 468.275 48 470.747C48 470.747 55.4203 463.51 56.0106 459.807C56.0106 459.807 56.8409 472.654 53.695 477.677C53.695 477.677 56.5425 473.732 58.4235 473.275C58.4235 473.275 54.7847 480.212 55.1025 486.266C55.4203 492.328 53.3642 497.664 49.8032 503.562C56.2182 498.703 63.7293 488.259 63.1002 481.649C65.312 494.797 61.2775 505.633 58.5078 509.937C55.7382 514.242 55.0247 524.359 59.2213 533.046C58.4367 528.751 59.9504 524.167 61.4852 519.52C62.7416 515.715 64.0121 511.868 64.0472 508.102C64.0472 508.102 65.9476 520.055 64.2871 528.102C62.6266 536.155 63.418 543.484 65.4741 550.577C65.4741 550.577 67.1411 538.944 68.8276 536.234C68.62 539.421 71.3313 559.905 77.1106 563.889C74.3409 557.436 75.4501 526.75 78.6933 520.617C92.308 552.811 87.7157 585.483 87.7157 585.483C87.7157 585.483 95.5512 574.327 94.7599 568.108C97.4517 572.178 104.496 598.076 103.704 605.248C106.156 600.623 109.477 581.733 108.608 577.272C111.456 579.506 112.085 587.233 111.929 597.037C111.834 602.784 115.684 610.968 118.95 617.912C121.256 622.815 123.272 627.1 123.403 629.474C125.173 623.806 123.393 617.988 121.571 612.037C119.567 605.49 117.514 598.782 120.082 591.936C120.005 598.951 127.068 611.681 130.688 615.986C134.307 620.29 138.283 639.271 139.944 650.192C140.813 645.809 140.813 628.598 139.347 621.067C139.989 623.209 141.676 625.65 143.701 628.582C147.666 634.323 152.929 641.941 154.188 652.863C154.188 652.863 157.041 647.723 155.971 639.715C156.88 643.116 158.602 645.288 160.41 647.568C162.859 650.657 165.465 653.945 166.421 660.754C166.421 660.754 169.028 654.3 166.894 646.769C169.982 649.637 178.647 663.027 181.138 682.87C181.138 682.87 184.699 668.886 178.764 656.332C178.764 656.332 187.43 665.77 190.401 674.379ZM183.257 555.221C183.316 557.931 183.372 560.541 184.187 563.086H184.193C183.778 561.099 185.223 558.634 186.63 556.236C187.531 554.699 188.416 553.19 188.786 551.851C189.96 547.605 189.097 543.321 188.15 539.977C188.15 544.438 185.932 552.328 185.932 552.328C186.165 542.687 185.03 538.781 181.404 534.875C177.778 530.969 174.139 526.75 174.295 519.336C174.251 519.85 174.206 520.35 174.162 520.84C173.564 527.485 173.147 532.115 179.043 540.133C183.049 545.581 183.157 550.55 183.257 555.221ZM203.963 661.257C202.32 659.72 200.436 657.957 198.171 655.248C201.259 660.517 203.81 666.042 206.21 671.241C209.391 678.131 212.307 684.447 215.859 688.84C215.037 687.002 214.581 684.638 214.064 681.957C213.387 678.443 212.605 674.385 210.755 670.251C208.725 665.712 206.67 663.789 203.963 661.257ZM212.986 623.838C213.754 625.9 214.358 627.519 215.522 626.92V626.926C216.586 626.384 215.444 621.263 212.201 617.521C209.659 614.588 209.931 611.803 210.207 608.975C210.284 608.188 210.362 607.397 210.378 606.6C209.029 607.952 207.842 616.084 210.456 618.951C211.652 620.259 212.371 622.19 212.986 623.838ZM220.251 694.934C219.479 698.043 219.42 700.617 220.964 703.484V703.477C221.584 704.632 222.683 705.593 223.968 706.717C225.882 708.39 228.209 710.425 229.987 714C229.987 714 229.448 707.122 225.414 704.196C221.379 701.27 220.491 697.325 220.251 694.934ZM230.162 676.404C232.062 679.278 231.984 681.988 230.927 690.512C230.927 690.512 235.857 678.317 233.405 675.528C230.953 672.739 230.317 669.787 231.504 667.638C229.293 669.474 228.261 673.536 230.162 676.404ZM230.136 617.788C234.566 622.909 235.15 624.287 234.203 629.389C236.337 627.318 238.711 618.233 236.732 613.21C234.754 608.187 234.281 598.866 235.228 594.562C232.691 598.389 230.797 609.069 232.931 615.045C232.931 615.045 227.314 608.664 224.862 603.726C224.862 603.726 225.42 612.334 230.136 617.788ZM247.072 676.645C253.532 681.825 254.304 691.551 252.008 697.684C255.964 695.45 256.042 680.31 251.372 673.935C246.702 667.56 246.15 662.935 248.207 653.373C244.017 657.919 240.611 671.466 247.072 676.645ZM262.295 711.707C262.295 711.707 263.002 703.34 267.594 697.684C272.187 692.027 273.451 687.325 273.451 681.106C273.451 681.106 271.635 687.958 265.778 695.45C259.921 702.942 262.295 711.707 262.295 711.707ZM276.221 584.281C274.398 578.383 276.617 573.046 276.617 573.046V573.04C274.818 570.996 276.261 563.44 278.201 561.097C270.683 569.904 270.939 576.58 276.221 584.281ZM283.979 710.512C289.68 705.973 289.68 700.473 289.362 694.934C289.045 689.395 291.736 685.091 291.736 685.091C285.444 690.758 285.912 695.209 286.27 698.615C286.3 698.895 286.329 699.168 286.353 699.434C286.787 704.196 283.979 710.512 283.979 710.512ZM282.558 683.497C282.558 683.497 293.637 674.732 291.736 667.638V667.645C289.836 660.551 291.736 655.927 294.902 649.075C290.387 653.693 286.748 659.193 287.858 667.083C288.676 672.889 286.13 677.293 283.685 681.521C283.302 682.182 282.922 682.839 282.558 683.497ZM290.641 630.42L290.627 630.427L290.634 630.421L290.641 630.42ZM290.641 630.42C291.836 629.748 294.737 624.506 293.948 618.233C293.157 611.936 293.643 607.684 299.183 602.184C295.732 608.226 296.082 617.749 297.036 620.381C297.036 620.381 300.992 611.858 305.902 612.413C303.846 612.733 300.837 616.796 299.494 620.538C298.152 624.279 296.013 629.776 290.641 630.42ZM297.968 681.957C297.451 684.638 296.996 687.002 296.173 688.84C299.725 684.444 302.641 678.129 305.821 671.242C308.221 666.043 310.772 660.519 313.861 655.248C311.597 657.957 309.713 659.721 308.069 661.259C305.363 663.792 303.308 665.716 301.278 670.251C299.428 674.388 298.645 678.445 297.968 681.957ZM350.366 680.414C347.635 672.223 349.121 666.129 357.605 660.63C353.927 665.652 350.541 673.837 350.366 680.414ZM456.008 459.922C455.935 461.21 455.36 472.933 458.331 477.677C458.331 477.677 455.484 473.732 453.602 473.275C453.602 473.275 457.241 480.205 456.923 486.266C456.606 492.321 458.662 497.664 462.223 503.562C455.814 498.703 448.303 488.259 448.926 481.649C446.708 494.797 450.748 505.633 453.518 509.937C456.288 514.242 457.001 524.359 452.805 533.046C453.589 528.751 452.075 524.167 450.541 519.52C449.284 515.715 448.014 511.868 447.979 508.102C447.979 508.102 446.078 520.055 447.739 528.102C449.399 536.149 448.608 543.484 446.552 550.577C446.552 550.577 444.891 538.944 443.198 536.234C443.406 539.421 440.695 559.905 434.915 563.889C437.685 557.436 436.576 526.75 433.333 520.617C419.718 552.811 424.31 585.483 424.31 585.483C424.31 585.483 416.475 574.327 417.266 568.108C414.574 572.171 407.53 598.076 408.321 605.248C405.87 600.623 402.542 581.74 403.418 577.272C400.57 579.506 399.935 587.233 400.097 597.037C400.188 602.781 396.343 610.957 393.079 617.898C390.772 622.805 388.754 627.096 388.622 629.474C386.856 623.809 388.637 617.993 390.458 612.044C392.462 605.495 394.516 598.785 391.943 591.936C392.021 598.951 384.958 611.681 381.338 615.986C377.719 620.29 373.743 639.278 372.082 650.192C371.213 645.809 371.213 628.598 372.673 621.067C372.03 623.209 370.343 625.652 368.318 628.584C364.352 634.326 359.09 641.946 357.832 652.863C357.832 652.863 354.984 647.723 356.048 639.715C355.141 643.118 353.419 645.291 351.61 647.573C349.163 650.661 346.557 653.948 345.599 660.754C345.599 660.754 342.985 654.3 345.125 646.769C342.038 649.637 333.372 663.027 330.881 682.87C330.881 682.87 327.32 668.886 333.255 656.332C333.255 656.332 324.59 665.777 321.619 674.379C321.619 674.379 320.315 667.325 321.502 663.379C317.415 666.754 314.992 673.979 312.802 680.512C311.113 685.55 309.561 690.176 307.492 692.308C309.474 688.878 309.743 685.058 310.002 681.391C310.239 678.028 310.467 674.793 312 672.106C313.548 669.391 313.933 667.598 314.265 666.051C314.621 664.396 314.916 663.024 316.508 661.106C319.595 657.403 321.729 651.302 321.852 644.255C321.852 644.255 326.717 652.38 326.36 658.716C327.605 653.535 329.712 648.843 331.755 644.289C334.002 639.283 336.174 634.444 337.043 629.31C337.043 629.31 339.657 644.013 336.803 649.153C345.112 644.131 351.521 625.842 352.001 617.834C354.615 623.928 353.901 632.654 350.34 640.545C356.632 636.24 362.45 616.639 362.684 611.139C364.701 615.444 363.514 627.279 360.193 633.131C367.075 627.873 375.741 603.125 374.554 596.671C376.571 600.858 379.658 607.906 377.401 614.601C386.78 601.929 384.523 576.711 379.185 565.829C379.185 565.829 387.967 574.078 387.851 581.25C387.851 581.25 396.043 557.462 400.317 553.993C400.434 558.298 400.674 569.297 391.535 576.11C403.59 573.442 405.547 564.195 407.118 556.776C407.727 553.896 408.279 551.291 409.34 549.454C409.34 549.454 412.427 563.562 409.697 571.211C414.685 564.758 416.702 556.391 414.445 546.587C412.187 536.783 410.884 525.43 413.018 519.689C412.964 521.168 414.057 523.15 415.383 525.554C416.949 528.393 418.84 531.821 419.549 535.705C429.519 518.971 432.963 499.245 427.618 488.847C434.027 493.51 440.675 507.253 440.558 521.479C440.558 521.479 446.02 505.581 440.318 491.355C437.895 485.307 435.022 480.771 432.584 476.922C429.287 471.716 426.784 467.766 427.261 463.027C427.989 466.587 430.841 469.279 433.887 472.155C437.792 475.843 442.018 479.832 442.491 486.338C444.598 479.646 441.507 473.89 438.233 467.791C435.659 462.997 432.972 457.99 432.606 452.152C436.881 454.425 440.442 462.315 441.389 468.886C445.72 454 436.311 441.316 430.001 432.81C427.495 429.433 425.478 426.714 425.004 424.777C425.004 424.777 431.179 426.926 433.553 429.918C433.125 426.475 430.286 423.586 426.716 419.955C421.361 414.507 414.362 407.388 411.396 394.216C412.505 423.7 425.089 436.449 430.861 441.792C423.026 438.762 415.43 429.598 412.816 422.348C413.134 427.684 414.159 433.105 419.465 438.526C424.764 443.948 429.811 455.143 430.861 461.315C430.861 461.315 424.135 450.636 418.278 444.816C418.278 444.816 422.559 456.619 423.499 464.98C423.101 463.742 421.96 461.873 420.527 459.529C417.969 455.341 414.484 449.637 412.654 443.301C412.654 443.301 413.128 456.848 416.06 462.504C413.344 460.057 411.803 454.946 410.384 450.242C409.448 447.138 408.565 444.21 407.433 442.341C408.19 444.748 408.239 448.394 408.296 452.728C408.409 461.307 408.558 472.579 414.315 482.269C419.815 491.525 425.238 504.621 421.554 516.456C421.771 514.257 420.106 511.021 418.29 507.492C416.158 503.35 413.819 498.804 414.075 495.058C410.923 500.205 409.837 508.137 408.843 515.398C408.152 520.447 407.506 525.172 406.239 528.409C406.633 524.479 405.939 520.529 405.157 516.077C404.059 509.828 402.787 502.589 404.105 493.027C404.105 493.027 400.901 505.581 398.054 512.988C396.824 516.19 396.235 519.793 395.619 523.567C394.808 528.528 393.95 533.784 391.522 538.807C391.619 537.742 391.482 535.775 391.317 533.392C391.073 529.889 390.767 525.484 391.048 521.714C391.24 519.153 391.916 517.667 392.6 516.166C393.608 513.952 394.631 511.705 394.136 505.933C393.306 496.247 393.74 480.27 393.74 480.27C393.74 480.27 398.17 487.201 399.124 494.692C399.124 494.692 400.389 484.091 398.488 477.88C397.63 475.073 395.983 472.299 394.368 469.579C392.406 466.276 390.493 463.053 390.101 459.95C391.288 462.263 397.619 468.873 402.133 467.364C396.232 465.246 393.048 454.089 390.48 445.091C389.57 441.904 388.738 438.989 387.89 436.841C386.149 432.434 383.61 429.475 381.277 426.754C379.262 424.406 377.401 422.236 376.337 419.467C376.677 419.692 377.091 419.957 377.566 420.262L377.571 420.264C381.642 422.871 390.22 428.363 395.213 436.273C394.856 428.174 385.833 419.389 378.711 415.202C371.589 411.015 361.38 400.381 357.579 394.758C360.845 406.341 366.191 414.459 370.317 420.724C373.089 424.935 375.311 428.308 375.981 431.335C375.981 431.335 369.332 428.585 364.467 420.46C364.467 420.46 366.601 429.905 373.49 437.076C380.372 444.248 382.83 454.209 382.83 454.209C382.83 454.209 378.478 452.459 373.334 445.6C373.334 445.6 375.948 453.647 381.403 460.264C386.858 466.88 388.37 475.803 388.052 482.975C387.5 480.029 373.334 456.756 373.334 456.756C373.334 456.756 378.322 469.983 382.675 481.936C387.027 493.889 388.136 507.201 386.391 512.7C386.354 509.693 384.205 504.807 381.865 499.488C379.244 493.531 376.385 487.031 375.987 482.021C374.472 488.197 376.112 494.268 377.606 499.796C378.338 502.505 379.035 505.084 379.308 507.481C380.138 514.771 378.316 531.028 378.316 531.028C378.316 531.028 373.626 524.483 373.963 521.387C372.858 528.109 374.351 534.237 375.887 540.542C376.991 545.075 378.118 549.699 378.316 554.699C378.316 554.699 372.225 546.652 371.985 542.165C371.185 547.692 372.06 552.794 372.921 557.818C373.931 563.711 374.923 569.497 373.172 575.737C372.141 566.018 365.181 552.23 360.666 548.004C367.633 563.941 361.536 583.706 358.052 588.01C359.479 580.199 358.526 566.894 357.339 562.831C356.912 566.935 355.151 570.812 353.33 574.82C352.112 577.502 350.866 580.244 349.977 583.151C348.926 586.587 348.639 591.849 348.351 597.139C348.031 603.012 347.71 608.919 346.338 612.4C346.338 612.4 346.26 607.142 344.36 604.353C344.36 609.056 340.954 620.055 340.954 620.055C340.954 620.055 339.528 608.18 341.824 601.727C344.12 595.274 346.65 588.017 345.229 579.813C344.659 583.944 342.69 588.175 340.757 592.331C339.743 594.51 338.739 596.669 337.951 598.781C336.992 601.343 336.558 606.074 336.101 611.059C335.464 618.008 334.781 625.448 332.568 628.187C333.91 623.804 332.568 610.414 331.699 605.796C329.479 612.806 329.478 612.819 329.052 618.714L329.007 619.343C328.815 621.992 328.205 623.764 327.512 625.779C326.496 628.733 325.3 632.21 324.972 639.741C324.972 639.741 322.125 629.539 323.234 620.695C321.568 622.829 320.934 624.91 320.233 627.214C319.468 629.727 318.622 632.507 316.268 635.914C314.799 638.042 313.771 640.352 312.752 642.641C310.645 647.376 308.579 652.019 302.737 654.758C306.759 648.53 307.634 641.315 308.393 635.051C308.843 631.335 309.252 627.954 310.255 625.313C309.937 629.539 312.155 635.835 312.155 635.835C312.155 635.835 315.165 624.758 319.517 620.375C323.87 615.992 325.53 609.696 326.244 603.876C326.244 603.876 321.178 611.845 316.43 613.118C325.374 603.314 328.066 583.948 326.004 575.822C329.325 579.01 332.808 588.337 332.808 598.455C333.83 592.081 336.414 587.498 338.563 583.686C340.068 581.016 341.36 578.725 341.752 576.462C342.019 574.927 342.154 572.592 342.312 569.853C342.719 562.792 343.282 553.042 346.656 547.357C346.354 551.488 347.591 556.982 348.792 562.316L348.792 562.317L348.792 562.318C349.241 564.312 349.685 566.284 350.042 568.154C349.839 559.057 352.202 552.928 354.336 547.391C355.959 543.181 357.45 539.313 357.579 534.745C357.579 534.745 361.38 541.916 365.414 543.948C363.04 540.003 357.462 522.308 358.532 515.737C359.006 518.37 363.397 525.542 367.801 528.729C362.412 509.309 362.063 492.317 361.833 481.109C361.793 479.165 361.756 477.394 361.698 475.816C361.698 475.816 367.633 487.847 368.268 498.925C373.886 488.324 364.552 457.886 356.872 446.26C356.872 446.26 358.215 469.918 354.738 476.606C354.738 476.606 353.155 468.716 350.937 465.77C351.446 470.69 351.085 476.855 350.723 483.039V483.04C350.352 489.373 349.98 495.727 350.541 500.78C350.541 500.78 346.429 493.791 346.76 487.769C346.479 489.921 345.947 492.175 345.379 494.583C343.705 501.682 341.718 510.109 344.924 521.152C341.207 516.214 337.88 505.692 339.463 500.78C336.657 503.056 336.183 507.346 335.689 511.81C335.277 515.53 334.853 519.371 333.054 522.269C333.054 522.269 330.89 518.123 331.855 514.916C326.876 530.126 319.02 536.94 308.646 541.231C310.333 539.957 311.954 538.605 313.491 537.168C314.4 536.319 315.197 535.541 315.924 534.784C319.653 530.904 323.013 526.378 325.906 521.322C327.541 518.461 329.039 515.444 330.356 512.334C332.094 508.233 333.657 503.713 334.994 498.899C345.917 488.886 346.546 480.969 338.451 458.213C338.47 458.024 338.483 457.847 338.503 457.658C338.628 457.384 338.771 457.132 338.917 456.874C339.147 456.466 339.387 456.041 339.586 455.489C339.586 455.489 339.904 457.044 344.652 460.845C344.652 460.845 340.974 451.067 341.084 442.465C342.738 442.942 346.909 448.2 349.043 456.214C351.203 445.581 345.865 433.432 340.403 428.526C340.014 419.996 337.964 412.106 332.289 404.183C332.548 397.69 330.641 390.878 327.048 384.464C338.444 384.627 351.923 383.556 359.933 379.552C361.438 378.801 362.878 378.01 364.266 377.181C365.765 379.154 366.498 380.506 366.498 380.506C366.024 379.193 365.512 377.945 364.96 376.75C373.289 371.596 379.418 364.712 382.675 353.68C384.744 357.769 388.045 361.427 392.599 363.863C392.749 363.943 392.899 364.024 393.048 364.103C398.431 366.98 402.923 369.381 409.158 380.897C409.158 380.897 407.971 370.14 405.357 366.436C405.053 366.005 404.687 365.506 404.279 364.947C401.179 360.713 395.608 353.101 395.504 346.234C396.218 349.343 404.884 362.968 411.175 364.862C409.959 364.087 408.008 360.334 405.348 355.215C401.324 347.474 395.677 336.61 388.493 328.2C390.354 323.882 393.085 321.342 398.099 319.467C399.422 316.783 400.525 309.689 401.109 305.267C405.727 308.259 409.703 313.608 411.175 316.345C411.532 311.681 406.071 303.197 400.492 299.552C394.914 295.907 389.926 290.231 389.278 288.259C390.903 288.505 394.303 291.288 397.611 293.996C400.705 296.529 403.719 298.996 405.124 299.258C402.276 296.332 396.698 288.559 396.341 285.992C396.341 285.992 409.457 295.313 412.071 299.918C412.071 299.918 411.299 292.922 406.609 288.683C409.515 289.219 418.421 293.464 421.035 295.914C419.374 292.027 415.1 287.129 411.357 285.816C426.55 287.231 430.622 297.353 433.349 304.132C434.085 305.96 434.722 307.545 435.454 308.651C435.097 307.052 435.009 305.352 434.911 303.462C434.749 300.331 434.56 296.678 433.08 292.093C431.474 287.118 427.643 284.552 423.898 282.044C422.107 280.844 420.335 279.657 418.836 278.226C418.836 278.226 423.467 278.108 425.303 278.762C420.588 273.344 413.471 273.593 408.605 273.764C406.549 273.836 404.895 273.894 403.995 273.504C406.427 273.562 410.345 271.531 410.942 270.277C407.335 270.665 405.427 270.423 403.536 270.183C401.349 269.906 399.184 269.632 394.441 270.336C390.289 270.952 385.899 272.612 381.981 274.093C377.556 275.766 373.733 277.212 371.531 276.671C373.408 276.53 375.31 275.31 377.277 274.048C379.478 272.637 381.758 271.175 384.173 271.113C380.408 270.338 377.877 270.819 375.229 271.322C372.367 271.866 369.368 272.436 364.526 271.472C366.494 270.755 368.106 269.009 369.982 266.976C372.631 264.106 375.808 260.665 381.261 258.742C380.628 259.379 379.959 260.353 379.19 261.473C377.508 263.923 375.343 267.077 372.005 268.964C375.426 268.382 378.482 266.828 381.528 265.278C383.816 264.114 386.098 262.953 388.525 262.21C388.525 262.21 385.042 265.914 384.173 267.886C389.868 263.941 397.288 262.504 401.861 264.477C403.15 265.033 404.996 265.627 407.072 266.295C412.36 267.997 419.143 270.181 422.04 273.445C423.744 275.365 425.597 276.899 427.464 278.445C430.019 280.56 432.6 282.698 434.863 285.875C436.957 288.813 436.846 291 436.725 293.404C436.619 295.498 436.505 297.756 437.834 300.819C440.688 307.396 438.904 311.218 434.863 318.389C432.865 321.941 432.468 325.435 432.114 328.546C431.753 331.717 431.437 334.49 429.519 336.521C429.519 336.521 429.597 325.287 428.014 319.787C428.014 319.787 427.067 329.99 424.531 334.529C424.531 334.529 419.867 323.131 421.048 319.389C421.048 319.389 417.247 328.474 420.101 335.404C418.044 332.459 410.922 323.21 407.439 322.576C410.131 323.85 415.353 335.169 415.353 335.169C415.353 335.169 410.053 331.825 404.352 327.599C404.352 327.599 410.527 337.083 415.43 342.184C420.334 347.285 423.739 351.747 428.332 361.871C422.948 360.199 414.127 353.432 412.343 349.441C413.212 352.87 420.73 364.901 424.686 368.644C426.479 370.34 428.289 372.888 430.386 375.843C432.918 379.408 435.87 383.566 439.722 387.534C438.832 386.782 437.064 385.617 435.109 384.328C431.675 382.064 427.664 379.42 426.82 377.971C428.481 381.636 437.821 393.033 440.513 395.666C438.034 394.432 435.43 391.626 432.585 388.558C427.533 383.111 421.718 376.841 414.477 377.096C414.477 377.096 421.281 377.893 424.842 386.103C427.756 392.822 433.281 396.842 438.9 400.931C440.147 401.838 441.399 402.749 442.628 403.693C447.96 407.791 450.121 410.778 452.195 413.644C452.752 414.414 453.303 415.175 453.907 415.946C452.715 415.556 451.411 414.697 450.122 413.849C448.458 412.754 446.819 411.675 445.482 411.642C445.607 411.853 446.308 412.657 447.345 413.845L447.346 413.846C450.714 417.706 457.621 425.623 459.842 430.466C458.445 428.774 455.743 427.228 452.729 425.505C447.542 422.538 441.435 419.045 439.482 413.373C439.482 413.373 440.494 423.771 447.2 428.076C453.907 432.38 460.18 443.595 460.497 448.219C460.497 448.219 451.06 438.598 448.154 437.403C448.154 437.403 454.562 449.774 458.305 455.156C460.208 457.892 460.744 460.581 461.271 463.223C461.781 465.777 462.281 468.288 464 470.754C464 470.754 456.723 463.663 456.008 459.922ZM337.744 519.336C337.899 526.75 334.261 530.969 330.635 534.875H330.641C327.015 538.781 325.874 542.687 326.114 552.328C326.114 552.328 323.895 544.438 323.895 539.977C322.942 543.327 322.086 547.605 323.26 551.851C323.631 553.183 324.512 554.687 325.41 556.219C326.819 558.622 328.268 561.095 327.852 563.086C328.667 560.539 328.723 557.928 328.782 555.218C328.882 550.548 328.99 545.581 332.996 540.133C338.892 532.122 338.475 527.492 337.877 520.842L337.877 520.842C337.833 520.352 337.787 519.851 337.744 519.336ZM150.153 441.995C152.702 432.968 154.486 429.565 157.69 426.992C160.894 424.425 166.239 417.187 166.771 406.129C165.941 410.192 160.006 419.519 154.603 423.758C149.2 428.004 150.153 441.988 150.153 441.988V441.995ZM355.821 426.992C352.618 424.419 347.275 417.191 346.741 406.138C347.573 410.202 353.506 419.52 358.909 423.765C364.305 428.01 363.358 441.995 363.358 441.995C360.809 432.968 359.025 429.558 355.821 426.992ZM392.878 386.489C394.934 387.364 398.735 389.598 400.473 393.902C401.006 386.054 394.873 382.571 389.125 379.307C384.66 376.771 380.428 374.368 379.736 370.153C379.477 377.317 381.425 379.807 384.47 383.698C386.066 385.738 387.965 388.164 390.004 391.851C392.917 397.116 394.165 401.566 395.247 405.423C396.847 411.125 398.083 415.528 403.794 419.343C400.155 416.175 398.787 405.28 398.787 400.094C398.787 397.132 397.141 394.52 395.567 392.022C394.385 390.146 393.244 388.335 392.871 386.489H392.878ZM375.15 401.831C371.109 398.526 361.853 390.715 361.14 381.231H361.146C361.709 385.046 366.659 389.557 372.15 394.563C378.25 400.123 385.018 406.292 387.183 412.792C385.489 409.809 381.718 406.918 378.234 404.246C377.155 403.419 376.104 402.613 375.15 401.831ZM123.507 391.845C125.547 388.157 127.445 385.732 129.042 383.691C132.086 379.8 134.035 377.31 133.775 370.146C133.083 374.362 128.851 376.765 124.386 379.301C118.639 382.564 112.505 386.048 113.038 393.895C114.777 389.591 118.578 387.364 120.634 386.482C120.261 388.329 119.119 390.142 117.937 392.019C116.363 394.518 114.718 397.13 114.718 400.088C114.718 405.267 113.356 416.169 109.711 419.336C115.422 415.522 116.658 411.119 118.258 405.416C119.34 401.56 120.588 397.109 123.501 391.845H123.507ZM88.4292 401.831C88.3125 406.671 80.9505 419.702 75.4306 425.437V425.444C69.9108 431.185 71.2729 436.861 71.2729 436.861C67.8287 432.374 75.1323 419.702 80.7105 413.19C86.2952 406.671 88.4292 401.831 88.4292 401.831ZM138.361 401.831C142.395 398.526 151.658 390.715 152.371 381.231C151.809 385.041 146.864 389.549 141.375 394.551C135.273 400.113 128.5 406.286 126.335 412.792C128.028 409.811 131.79 406.926 135.274 404.254C136.355 403.425 137.41 402.616 138.367 401.831H138.361Z" fill="white"/>
</g>
<defs>
<clipPath id="clip0_2009_2025">
<rect width="512" height="508" rx="98" fill="white"/>
</clipPath>
</defs>
</svg>
