<svg width="95" height="83" viewBox="0 0 95 83" fill="none" xmlns="http://www.w3.org/2000/svg">
<g clip-path="url(#clip0_2021_110)">
<path d="M82.3725 37.7435C82.9426 38.2147 83.937 39.6979 84.411 41.0454C84.411 41.0454 84.1313 38.8375 83.6773 38.0002C83.2234 37.1628 82.2859 36.4055 82.2954 35.2315C82.2954 35.2315 83.2519 36.6369 84.2178 36.9062C84.2178 36.9062 83.7924 36.5496 83.3479 35.7417C82.9035 34.9328 82.8169 33.9903 82.1497 33.1814C82.3524 33.4317 83.463 33.7399 83.8114 33.5758C82.4981 33.1624 81.9755 31.1312 81.3865 30.5916C81.3865 30.5916 82.2268 31.0439 82.8254 30.823C82.8254 30.823 81.7243 30.5243 80.8639 29.0716C80.0045 27.6178 79.3859 27.7241 78.6226 26.4723C78.6226 26.4723 79.6076 27.4443 80.1291 27.3391C79.2698 26.9541 78.3228 23.7005 77.1436 22.2279C77.5975 22.4109 78.6606 23.4796 79.1621 24.3264C78.8718 22.7675 77.2587 21.4673 76.8438 20.9382C76.8438 20.9382 77.5881 21.3811 77.9069 21.4673C77.3368 20.9961 76.583 19.879 76.506 19.4656C76.8153 19.3215 77.2397 18.6472 77.3368 17.9256C77.4339 17.204 77.6947 16.799 78.4959 16.1741C78.4959 16.1741 77.7137 16.2509 77.4719 16.6938C77.3558 15.4809 77.6556 14.4606 77.8868 13.902C77.8868 13.902 77.9839 14.6815 78.592 15.1822C78.592 15.1822 78.3313 14.3543 78.3123 13.8536C78.2933 13.3529 78.7662 12.1212 78.7377 11.6878C78.7092 11.2544 77.9459 10.1383 78.0515 9.70492C78.2838 9.83957 78.6501 10.3308 78.8148 10.8599C78.9594 8.47314 76.4289 7.09619 76.4289 7.09619C76.4289 7.09619 76.9694 7.19297 77.6746 6.88476C77.6746 6.88476 76.2357 6.81744 75.4334 6.03797C74.631 5.25851 73.7527 5.02709 73.0855 4.9503C73.5004 4.76727 74.5635 4.80619 75.2497 5.19119C74.1296 3.90155 72.3803 4.52744 71.5019 4.0646C71.5019 4.0646 72.5935 3.59334 72.7477 3.23675C72.2642 3.55442 71.3953 3.34299 70.7482 3.5155C70.101 3.68907 70.101 3.63121 68.9229 4.50745C68.9419 4.04566 69.8213 2.76549 70.6035 2.64032C69.7442 2.4962 68.2557 3.32406 67.3963 4.18978C67.7436 3.67013 67.4934 2.89067 67.1451 2.43835C67.1451 2.43835 67.2992 3.70905 66.6616 3.99728C66.0239 4.28655 64.9809 4.75781 64.1986 5.66245C63.4448 5.64351 62.4725 4.98186 62.4725 4.98186C62.4725 4.98186 63.7088 4.75044 64.5206 5.12282C63.4385 3.72378 61.6998 4.42961 60.7211 3.67224C61.1719 3.76165 62.3828 3.36403 62.3828 3.36403C62.3828 3.36403 59.923 3.26094 59.4268 2.61928C59.4268 2.61928 60.5089 2.92749 61.3208 2.61928C61.3208 2.61928 60.4509 2.4657 59.4268 1.98393C59.4268 1.98393 60.2577 1.50215 60.4899 0.867852C59.3698 1.65678 55.6791 1.36435 55.6791 1.36435C55.6791 1.36435 56.3168 0.406065 56.9734 0.213566C54.7712 0.0789222 53.4379 1.57999 52.0655 2.31212C52.0655 2.31212 52.967 1.25285 52.8192 0.34821C52.7094 0.848918 52.1235 1.65678 50.7902 2.15749C50.7902 2.15749 51.3888 1.17606 51.1766 0.213566C50.8482 1.36856 49.4758 2.54249 48.9163 2.52355C48.5468 2.51093 48.001 1.51793 48.001 1.51793C48.001 1.51793 47.4531 2.51514 47.0836 2.52776C46.523 2.5467 45.1517 1.37277 44.8234 0.217775C44.6112 1.18027 45.2097 2.1617 45.2097 2.1617C43.8764 1.66099 43.2905 0.853126 43.1807 0.352419C43.0329 1.25706 43.9345 2.31633 43.9345 2.31633C42.5631 1.58525 41.2297 0.0831308 39.0265 0.217775C39.6832 0.410274 40.3208 1.36856 40.3208 1.36856C40.3208 1.36856 36.6301 1.66099 35.51 0.872061C35.7422 1.50741 36.5731 1.98813 36.5731 1.98813C35.549 2.46991 34.6791 2.62349 34.6791 2.62349C35.491 2.93169 36.5731 2.62349 36.5731 2.62349C36.0769 3.26515 33.6171 3.36823 33.6171 3.36823C33.6171 3.36823 34.828 3.76586 35.2788 3.67644C34.3001 4.43382 32.7588 3.61964 31.6778 5.01868C32.4896 4.6463 33.5274 4.98607 33.5274 4.98607C33.5274 4.98607 32.5551 5.64666 31.8013 5.66665C31.019 4.76201 29.976 4.28971 29.3383 4.00148C28.7007 3.71221 28.8548 2.44256 28.8548 2.44256C28.5075 2.89488 28.2563 3.67434 28.6036 4.19398C27.7442 3.32721 26.2557 2.49936 25.3964 2.64452C26.1786 2.7697 27.058 4.04987 27.077 4.51166C25.8989 3.63542 25.8989 3.69327 25.2517 3.51971C24.6046 3.34614 23.7347 3.55863 23.2522 3.24095C23.4064 3.59755 24.498 4.0688 24.498 4.0688C23.6186 4.53059 21.8703 3.90471 20.7502 5.1954C21.4364 4.8104 22.4985 4.77148 22.9144 4.95451C22.2483 5.0313 21.3689 5.26272 20.5665 6.04218C19.7642 6.82165 18.3253 6.88897 18.3253 6.88897C19.0305 7.19718 19.571 7.1004 19.571 7.1004C19.571 7.1004 17.0405 8.47735 17.1851 10.8641C17.3498 10.335 17.7161 9.84378 17.9484 9.70913C18.055 10.1425 17.2918 11.2586 17.2622 11.692C17.2337 12.1254 17.7066 13.3571 17.6876 13.8579C17.6686 14.3586 17.4079 15.1864 17.4079 15.1864C18.016 14.6857 18.1131 13.9062 18.1131 13.9062C18.3453 14.4648 18.6441 15.4852 18.528 16.698C18.2862 16.2551 17.504 16.1784 17.504 16.1784C18.3052 16.8042 18.567 17.2082 18.6631 17.9298C18.7592 18.6514 19.1846 19.3257 19.4939 19.4698C19.4169 19.8832 18.6631 21.0003 18.093 21.4716C18.4119 21.3853 19.1561 20.9424 19.1561 20.9424C18.7412 21.4715 17.1271 22.7717 16.8378 24.3306C17.3403 23.4838 18.4024 22.4151 18.8563 22.2321C17.6781 23.7047 16.7312 26.9583 15.8708 27.3433C16.3923 27.4495 17.3773 26.4765 17.3773 26.4765C16.614 27.7283 15.9954 27.622 15.136 29.0758C14.2767 30.5295 13.1745 30.8272 13.1745 30.8272C13.7731 31.0481 14.6134 30.5958 14.6134 30.5958C14.0244 31.1344 13.5029 33.1656 12.1885 33.5801C12.5358 33.7441 13.6475 33.4359 13.8502 33.1856C13.184 33.9945 13.0964 34.937 12.652 35.7459C12.2075 36.5548 11.7821 36.9104 11.7821 36.9104C12.748 36.6411 13.7045 35.2358 13.7045 35.2358C13.714 36.4097 12.7776 37.1671 12.3226 38.0044C11.8686 38.8417 11.5889 41.0496 11.5889 41.0496C12.0618 39.7021 13.0573 38.22 13.6274 37.7477C13.7721 38.1811 12.6805 39.5191 12.5263 40.308C12.3722 41.097 12.4197 43.5132 12.4197 43.5132C12.748 40.9434 13.5915 40.3491 14.6926 39.0594C14.2091 40.0703 14.3316 40.3943 14.1194 41.1348C13.9072 41.8764 13.4142 42.6265 13.1049 42.7232C13.4817 42.8673 14.0613 42.5307 14.2154 42.3288C14.3316 42.7621 12.9117 44.8986 13.7224 46.1209C13.7319 45.2352 14.6208 44.3979 15.4802 43.8971C14.8035 44.7345 13.8576 46.2261 13.8185 47.5546C13.7794 48.8832 14.6303 50.4326 14.6303 50.4326C14.4181 48.9989 14.737 47.6703 14.737 47.6703C14.6979 48.6623 15.6449 49.8646 15.6449 49.8646C15.6449 49.8646 14.9006 51.8569 16.0313 54.2921C15.875 53.9292 15.8507 51.8348 16.2434 51.1732C16.1727 52.1357 16.3881 53.541 16.6013 54.6382C16.8135 55.7353 17.8186 56.1971 17.8186 56.1971C17.1524 55.466 17.3551 54.513 17.3551 54.513C17.8956 55.1483 18.3506 55.9467 18.3506 56.7651C18.3506 57.5835 17.9357 58.2862 17.5483 58.5649C18.1374 58.5365 19.0073 58.0737 19.229 57.3332C19.1128 58.3051 19.8275 59.2392 20.0112 59.7105C20.1949 60.1817 20.1654 61.5871 20.1654 61.5871C20.7259 60.5089 20.8896 60.1333 20.9191 59.2581C20.9476 58.3819 21.257 58.161 21.257 58.161C21.6719 59.438 20.6964 61.5881 22.0973 63.4258C21.5367 61.039 22.5703 61.5776 22.3391 60.066C22.7064 60.7403 22.4362 62.4728 22.812 63.4931C23.1889 64.5135 24.0197 65.3224 24.0197 65.3224C23.4592 64.1674 23.7199 61.4335 24.1169 60.5678C23.9817 61.809 24.1559 63.3501 24.5708 64.1485C24.9857 64.9479 24.9667 66.5258 24.9667 66.5258C25.4502 65.7168 25.5368 63.6383 25.5368 63.6383C25.7785 64.8795 25.9622 67.8449 26.7149 68.2583C26.3285 67.402 26.6178 65.8231 26.6178 65.8231C26.9852 66.4584 26.8501 67.6261 27.3906 68.9799C27.8899 70.2306 28.6268 70.8281 28.6268 70.8281C27.9797 69.6058 28.3946 68.3445 28.3946 68.3445C28.7999 69.1818 28.7999 69.9613 29.6308 71.0879C30.4616 72.2145 31.1763 72.3775 31.1763 72.3775C30.2779 71.6265 30.2969 70.0959 30.2969 70.0959C31.0602 70.7502 31.852 71.5875 31.6588 72.8972C31.4656 74.2057 31.7358 75.1009 32.2384 75.6984C31.9195 74.5918 32.383 73.8218 32.876 73.4747C33.3669 73.1296 33.5421 73.0707 33.6973 72.4827C34.0067 72.9834 34.6728 74.7832 34.1703 75.832C34.8565 75.1577 35.1848 73.7145 34.9336 72.8288C35.4065 73.4347 35.5712 77.0354 37.5707 77.8727C36.9045 77.1027 36.6237 75.7552 37.1357 74.2636C37.7734 74.7927 37.9476 76.1307 37.937 76.4779C38.3519 75.9866 38.0817 74.3888 38.0817 74.3888C38.4965 75.0525 39.0191 76.8818 38.8154 78.3061C39.3369 77.6897 39.3664 76.0634 39.0666 75.2934C39.7528 75.7941 39.7718 77.17 40.3123 78.3061C40.8529 79.4421 41.6256 80.1932 42.3118 80.2121C41.7998 79.885 41.2783 78.4407 41.2783 78.4407C42.3794 78.9698 43.0656 79.8366 43.1427 80.3468C43.1912 79.317 42.3889 78.1998 41.9835 77.9884C42.6887 78.0946 43.8088 78.9509 44.1667 79.7209C44.5246 80.4909 44.7072 81.4628 46.0606 82.0214C45.2879 81.3187 45.3269 80.5298 45.442 79.4516C46.5726 80.5677 47.7635 81.3829 47.7635 83.0007C47.8712 82.6136 48.2333 81.7185 48.076 80.6613C47.8912 79.419 46.9812 78.7742 47.5608 76.9912C47.6252 78.8268 49.0937 79.3012 49.1581 80.9569C49.6859 79.8787 50.4513 78.7942 50.6139 78.6343C50.73 79.7125 50.6952 81.3166 49.9224 82.0193C51.2747 81.4607 51.4584 80.4888 51.8163 79.7188C52.1742 78.9488 53.2943 78.0925 53.9995 77.9863C53.5941 78.1977 52.7918 79.3149 52.8403 80.3447C52.9174 79.8345 53.6036 78.9677 54.7047 78.4386C54.7047 78.4386 54.1832 79.8829 53.6712 80.21C54.3574 80.1911 55.1302 79.44 55.6707 78.304C56.2112 77.1679 56.2312 75.792 56.9164 75.2913C56.6166 76.0613 56.6461 77.6876 57.1676 78.304C56.965 76.8797 57.4865 75.0504 57.9014 74.3867C57.9014 74.3867 57.6311 75.9845 58.046 76.4757C58.0365 76.1297 58.2107 74.7917 58.8473 74.2615C59.3593 75.7531 59.0795 77.1006 58.4123 77.8706C60.4118 77.0333 60.5765 73.4336 61.0495 72.8267C60.7982 73.7124 61.1265 75.1556 61.8127 75.8299C61.3102 74.7811 61.9774 72.9803 62.2857 72.4806C62.4398 73.0676 62.5401 73.2169 62.8357 73.7387C63.087 74.1815 63.4248 74.2099 63.106 75.3176C64.1881 74.2972 63.3963 72.2955 65.6861 70.0938C65.6861 70.0938 65.7051 71.6244 64.8067 72.3754C64.8067 72.3754 65.5214 72.2113 66.3522 71.0858C67.1831 69.9592 67.1831 69.1797 67.5885 68.3424C67.5885 68.3424 68.0034 69.6036 67.3562 70.826C67.3562 70.826 68.0931 70.2285 68.5924 68.9778C69.1329 67.624 68.9978 66.4563 69.3652 65.821C69.3652 65.821 69.6555 67.3999 69.2681 68.2562C70.0219 67.8428 70.2055 64.8774 70.4462 63.6362C70.4462 63.6362 70.5328 65.7158 71.0163 66.5237C71.0163 66.5237 70.9973 64.9448 71.4122 64.1464C71.8271 63.3469 72.0013 61.8069 71.8662 60.5657C72.262 61.4324 72.5228 64.1653 71.9633 65.3203C71.9633 65.3203 72.7941 64.5114 73.171 63.491C73.5479 62.4707 73.2776 60.7382 73.644 60.0639C73.4117 61.5755 74.4452 61.0359 73.8857 63.4237C75.2866 61.585 74.3112 59.4359 74.726 58.1589C74.726 58.1589 75.0354 58.3798 75.0639 59.256C75.0924 60.1323 75.2571 60.5078 75.8176 61.585C75.8176 61.585 75.7891 60.1796 75.9718 59.7084C76.1544 59.2371 76.8702 58.303 76.754 57.3311C76.9757 58.0726 77.8456 58.5344 78.4347 58.5628C78.0483 58.2841 77.6324 57.5814 77.6324 56.763C77.6324 55.9446 78.0863 55.1462 78.6279 54.5109C78.6279 54.5109 78.8306 55.4639 78.1645 56.195C78.1645 56.195 79.1695 55.7332 79.3817 54.6361C79.5939 53.5389 79.8103 52.1336 79.7396 51.1711C80.1323 51.8317 80.108 53.926 79.9518 54.29C81.0824 51.8548 80.3381 49.8625 80.3381 49.8625C80.3381 49.8625 81.2851 48.6591 81.2461 47.6682C81.2461 47.6682 81.5649 48.9968 81.3527 50.4305C81.3527 50.4305 82.2025 48.8811 82.1645 47.5525C82.1254 46.224 81.1795 44.7324 80.5028 43.895C81.3622 44.3958 82.2511 45.2331 82.2606 46.1188C83.0724 44.8965 81.6525 42.759 81.7676 42.3267C81.9217 42.5286 82.5013 42.8652 82.8782 42.7211C82.5688 42.6243 82.0769 41.8743 81.8636 41.1327C81.6514 40.3911 81.7739 40.0672 81.2904 39.0573C82.3915 40.347 83.235 40.9402 83.5633 43.5111C83.5633 43.5111 83.6119 41.0949 83.4567 40.3059C83.3026 39.517 82.211 38.179 82.3556 37.7456L82.3725 37.7435ZM32.6511 72.2103C32.6226 71.151 32.0716 69.833 31.473 69.024C32.8549 69.9097 33.0956 70.8912 32.6511 72.2103ZM63.3625 72.2103C62.918 70.8912 63.1598 69.9097 64.5407 69.024C63.9421 69.833 63.391 71.151 63.3625 72.2103Z" fill="#212529"/>
<path d="M74.926 27.2498C74.9445 28.016 76.1099 30.0789 76.9838 30.9868C77.8576 31.8947 77.642 32.7943 77.642 32.7943C78.1872 32.0849 77.031 30.0789 76.1479 29.047C75.2649 28.015 74.926 27.2488 74.926 27.2488V27.2498Z" fill="white"/>
<path fill-rule="evenodd" clip-rule="evenodd" d="M58.9514 26.9045C58.4215 26.6139 57.8794 26.3606 57.33 26.1331C57.8044 26.4919 58.2624 26.8714 58.6885 27.2736C58.9011 27.4752 59.1075 27.68 59.2933 27.8951C59.3724 27.9861 59.4474 28.0781 59.5182 28.1711C60.9044 30.1203 60.7093 32.0839 60.4413 34.7786C60.4323 34.867 60.4235 34.9564 60.4147 35.0465L60.4144 35.05C60.4084 35.1116 60.4024 35.1735 60.3962 35.2356C60.2185 35.0764 60.0296 34.9347 59.8458 34.8065C59.801 34.7752 59.7563 34.7442 59.712 34.7133L59.7107 34.7125C59.5031 34.5682 59.2999 34.427 59.1023 34.274C58.8621 34.0889 58.629 33.8903 58.401 33.6835C58.5725 33.9389 58.7512 34.1912 58.9442 34.4353C59.1009 34.6345 59.2693 34.8275 59.4343 35.0165L59.4373 35.02C59.4574 35.043 59.4775 35.066 59.4975 35.089C59.5133 35.1072 59.5291 35.1254 59.5449 35.1436C59.7441 35.3742 59.9218 35.5985 60.0604 35.8446C60.1785 36.0483 60.276 36.2644 60.3664 36.4888C61.4682 39.5847 61.4312 40.5277 60.4537 41.5649C60.4003 41.1047 60.3376 40.6477 60.2688 40.1927C60.1877 40.6466 60.1004 41.0985 60.0039 41.5462C59.9628 41.7386 59.9177 41.9278 59.8714 42.117L59.8684 42.1191L59.8334 42.2494C59.624 43.0208 59.3786 43.7404 59.1034 44.3888C58.9093 44.8469 58.6885 45.2935 58.4472 45.7144C58.0262 46.4506 57.5395 47.1072 57.0004 47.6677C56.8967 47.7752 56.7827 47.8869 56.6513 48.0099C56.0033 48.6138 55.2599 49.1236 54.4425 49.5237L54.3573 49.563C53.9332 49.7657 53.4876 49.9436 53.0214 50.0935L52.9875 50.1038C52.6548 50.2093 52.3149 50.3024 51.976 50.3799L51.8693 50.4016C51.5745 50.4668 51.2634 50.5236 50.9461 50.5722C50.8239 50.5909 50.6987 50.6074 50.5734 50.6239C49.8074 50.7222 48.9972 50.7718 48.1665 50.7718C39.7833 50.7718 37.4924 45.9078 36.4995 42.2494L36.4646 42.1191L36.4615 42.117C36.4153 41.9288 36.3711 41.7386 36.329 41.5462C36.2325 41.0985 36.1452 40.6466 36.0641 40.1927C35.9943 40.6477 35.9316 41.1047 35.8793 41.5649C34.9017 40.5277 34.8647 39.5847 35.9655 36.4888C36.0548 36.2655 36.1534 36.0483 36.2715 35.8446C36.4101 35.5996 36.5878 35.3742 36.787 35.1436C36.8054 35.1223 36.824 35.101 36.8426 35.0796C36.8609 35.0586 36.8793 35.0375 36.8977 35.0164C37.0626 34.8274 37.231 34.6344 37.3877 34.4353C37.5807 34.1912 37.7594 33.9389 37.9309 33.6835C37.7029 33.8893 37.4698 34.0878 37.2296 34.274C37.032 34.427 36.8289 34.5681 36.6214 34.7123L36.6212 34.7124L36.6211 34.7125L36.6174 34.7151C36.595 34.7307 36.5725 34.7463 36.5499 34.762C36.5287 34.7768 36.5074 34.7916 36.4861 34.8065C36.3023 34.9347 36.1144 35.0764 35.9357 35.2356C35.9294 35.1724 35.9233 35.1093 35.9171 35.0465L35.9171 35.0462L35.917 35.0454L35.917 35.0447L35.917 35.0446C35.9082 34.9551 35.8996 34.8663 35.8906 34.7786C35.6215 32.0829 35.4264 30.1192 36.8147 28.1691C36.8856 28.077 36.9605 27.985 37.0386 27.8951C37.2244 27.68 37.4308 27.4742 37.6434 27.2736C38.0695 26.8714 38.5265 26.4919 39.0019 26.1331C38.4525 26.3606 37.9104 26.6139 37.3805 26.9045C37.2542 26.9748 37.1279 27.0461 37.0037 27.1206C37.1392 25.3203 38.4515 23.3909 40.4097 22.1262C40.6191 24.5029 42.2758 25.1406 44.643 26.0517C44.7022 26.0745 44.7619 26.0975 44.822 26.1207C45.5901 26.4166 46.1494 26.8427 46.6291 27.208C47.1818 27.6291 47.6287 27.9696 48.1675 27.9375C48.7054 27.9695 49.1519 27.6294 49.7043 27.2087C50.1842 26.8432 50.7439 26.4168 51.5129 26.1207L51.5926 26.09L51.6887 26.053C54.0576 25.1422 55.7148 24.505 55.9253 22.1262C57.8835 23.3919 59.1958 25.3214 59.3313 27.1206C59.206 27.0461 59.0808 26.9748 58.9545 26.9045H58.9514ZM58.821 41.7448C58.7604 42.5399 58.5889 43.332 58.3199 44.092L58.3158 44.0951C58.1648 44.5273 57.981 44.9503 57.7777 45.3628C57.3906 46.0339 56.946 46.6336 56.4562 47.1434C56.3617 47.2416 56.257 47.344 56.1358 47.4567C55.5423 48.0099 54.8604 48.4773 54.1139 48.8434L54.0985 48.8506C54.0749 48.8609 54.0523 48.8713 54.0297 48.8816C53.6385 49.0688 53.2267 49.2332 52.8088 49.3686L52.7564 49.3841C52.4453 49.4834 52.126 49.5713 51.8066 49.6437L51.7799 49.6489C51.7542 49.654 51.7296 49.6592 51.705 49.6644C51.4267 49.7254 51.132 49.7791 50.8291 49.8257C50.713 49.8433 50.5939 49.8588 50.4738 49.8743C49.7386 49.9684 48.9612 50.0159 48.1613 50.0159C44.8035 50.0159 42.2816 49.2549 40.4497 47.6915C39.7125 47.0617 39.081 46.2903 38.548 45.3659C38.3427 44.9513 38.1588 44.5273 38.0069 44.092C37.7378 43.331 37.5664 42.5389 37.5058 41.7448C37.6536 42.5286 37.9083 43.2824 38.2502 43.9896C38.5901 44.698 39.0101 45.3628 39.4804 45.9843C39.8347 46.4527 40.2177 46.8963 40.6233 47.3171C40.4764 47.0927 40.3337 46.8663 40.1992 46.6357C39.8285 45.9946 39.5225 45.3173 39.2781 44.6245C39.0389 43.9276 38.9013 43.2028 38.8366 42.48C38.9885 43.1914 39.2083 43.879 39.5215 44.5242C39.8398 45.1653 40.2095 45.7754 40.6376 46.3431C40.9755 46.7877 41.338 47.2096 41.721 47.6118C41.5936 47.4081 41.4684 47.2024 41.3513 46.9924C41.0299 46.4041 40.7588 45.7899 40.5452 45.1591C40.3388 44.5253 40.2166 43.8687 40.1653 43.2152C40.3029 43.8594 40.5093 44.4777 40.7886 45.0609C41.0761 45.641 41.4129 46.19 41.7928 46.706C42.1142 47.1331 42.4603 47.5384 42.8258 47.9251C42.7139 47.7369 42.6051 47.5457 42.5034 47.3513C42.2272 46.8177 41.9941 46.2645 41.8113 45.6968C41.6388 45.125 41.532 44.5387 41.494 43.9524C41.6183 44.5273 41.8093 45.0774 42.0557 45.5996C42.3124 46.1177 42.6133 46.6078 42.9491 47.071C43.252 47.4846 43.5837 47.8745 43.9318 48.2478C43.8342 48.0709 43.7408 47.8921 43.6535 47.7101C43.4245 47.2323 43.2263 46.7391 43.0785 46.2335C42.9367 45.7247 42.8474 45.2057 42.8228 44.6876C42.9347 45.1943 43.1072 45.6782 43.3239 46.1383C43.5477 46.5964 43.8137 47.0276 44.1053 47.4391C44.3897 47.8414 44.707 48.2188 45.0377 48.5828C44.9545 48.4142 44.8744 48.2436 44.7994 48.0709C44.6177 47.647 44.4565 47.2158 44.3445 46.7701C44.2336 46.3255 44.1638 45.8726 44.1515 45.4228C44.2511 45.8623 44.4041 46.281 44.592 46.6791C44.781 47.0783 45.013 47.4526 45.2595 47.8135C45.509 48.1743 45.779 48.5166 46.0655 48.8475C46.0693 48.8518 46.073 48.856 46.0768 48.8603C46.0839 48.8683 46.0912 48.8762 46.0984 48.8842C46.1094 48.8963 46.1205 48.9085 46.1313 48.9209C46.0635 48.7606 45.9988 48.5993 45.9392 48.4359C45.6681 47.7028 45.4823 46.9252 45.4802 46.159C45.6589 46.9046 45.9998 47.5777 46.4095 48.1981C46.6139 48.5094 46.8336 48.8082 47.0657 49.0988C47.091 49.1303 47.117 49.1615 47.1429 49.1926C47.1611 49.2144 47.1793 49.2362 47.1971 49.258C47.1499 49.107 47.1068 48.955 47.0657 48.802C46.9034 48.1754 46.7874 47.5291 46.81 46.8942C46.963 47.5084 47.2402 48.0678 47.5514 48.5973C47.6407 48.7462 47.7331 48.892 47.8286 49.0357L48.1634 46.4837L48.4981 49.0357C48.5936 48.892 48.6871 48.7462 48.7754 48.5973C49.0865 48.0678 49.3638 47.5095 49.5168 46.8942C49.5393 47.5291 49.4233 48.1754 49.2611 48.802C49.22 48.955 49.1758 49.107 49.1296 49.258L49.1299 49.2577L49.1301 49.2575L49.1303 49.2572L49.1307 49.2567C49.1745 49.2044 49.2183 49.1521 49.2611 49.0988C49.4931 48.8082 49.7129 48.5094 49.9172 48.1981C50.3269 47.5777 50.6678 46.9046 50.8465 46.159C50.8434 46.9263 50.6586 47.7028 50.3875 48.4359C50.328 48.5993 50.2622 48.7606 50.1955 48.9209C50.2063 48.9085 50.2173 48.8963 50.2284 48.8842C50.2394 48.872 50.2504 48.8599 50.2612 48.8475C50.5477 48.5166 50.8188 48.1733 51.0673 47.8135C51.3148 47.4526 51.5468 47.0783 51.7347 46.6791C51.9226 46.281 52.0756 45.8623 52.1753 45.4228C52.1629 45.8726 52.0941 46.3255 51.9822 46.7701C51.8703 47.2158 51.7091 47.647 51.5273 48.0709C51.4524 48.2436 51.3723 48.4142 51.2891 48.5828C51.6197 48.2198 51.937 47.8414 52.2215 47.4391C52.5131 47.0276 52.779 46.5954 53.0029 46.1383C53.2196 45.6782 53.3921 45.1953 53.504 44.6876C53.4793 45.2057 53.39 45.7247 53.2483 46.2335C53.1004 46.7391 52.9023 47.2313 52.6733 47.7101C52.586 47.8921 52.4925 48.0709 52.395 48.2478C52.7431 47.8745 53.0748 47.4846 53.3777 47.071C53.7124 46.6068 54.0143 46.1177 54.271 45.5996C54.5175 45.0785 54.7085 44.5273 54.8327 43.9524C54.7947 44.5377 54.6879 45.125 54.5154 45.6968C54.3327 46.2645 54.0985 46.8177 53.8233 47.3513C53.7217 47.5457 53.6128 47.7359 53.5009 47.9251C53.8665 47.5384 54.2125 47.1331 54.5339 46.706C54.9138 46.189 55.2506 45.6399 55.5382 45.0609C55.8175 44.4777 56.0228 43.8583 56.1615 43.2152C56.1101 43.8687 55.9879 44.5242 55.7815 45.1591C55.5679 45.7899 55.2969 46.4041 54.9755 46.9924C54.8584 47.2024 54.7341 47.4081 54.6058 47.6118C54.9888 47.2096 55.3513 46.7877 55.6891 46.3431C56.1163 45.7754 56.487 45.1653 56.8053 44.5242C57.1185 43.879 57.3382 43.1914 57.4902 42.48C57.4255 43.2017 57.2879 43.9276 57.0487 44.6245C56.8043 45.3184 56.4983 45.9946 56.1276 46.6357C55.9931 46.8673 55.8503 47.0927 55.7035 47.3171C56.1091 46.8963 56.4921 46.4527 56.8464 45.9843C57.3177 45.3628 57.7366 44.698 58.0765 43.9896C58.4195 43.2824 58.6731 42.5286 58.821 41.7448ZM58.401 40.414C61.3953 40.1493 59.6784 37.6511 58.9647 37.1341C59.6291 38.1185 60.0296 39.4803 58.401 40.414ZM48.6665 28.5682C48.2281 28.682 48.9797 30.4357 48.9797 30.4357C48.9797 30.4357 49.221 28.4245 48.6665 28.5682ZM49.9675 29.7522C49.6995 29.5867 48.8883 28.3542 49.2816 28.1556C49.627 27.9817 49.808 28.9541 49.9025 29.462L49.9025 29.4622C49.9316 29.6186 49.9525 29.731 49.9675 29.7522ZM50.9543 29.0697C50.4183 28.7378 49.5455 28.0378 49.8957 27.7431C50.1702 27.5112 50.5867 28.3478 50.8152 28.8067C50.8782 28.9331 50.9268 29.0309 50.9543 29.0697ZM50.5107 27.3305C50.7695 26.9779 51.7522 28.1163 51.9422 28.3862C51.6772 28.2225 51.3991 28.0957 51.1559 27.9849C50.6621 27.7599 50.3126 27.6007 50.5107 27.3305ZM51.1248 26.9189C51.3035 26.5115 52.6753 27.3439 52.929 27.7038C52.403 27.3788 51.9041 27.3082 51.5592 27.2593C51.2018 27.2087 51.0098 27.1815 51.1248 26.9189ZM54.1037 26.7514C53.659 26.8807 52.0099 27.0896 52.3057 26.5498C52.3871 26.4019 52.8886 26.5115 53.3818 26.6193C53.647 26.6773 53.9098 26.7348 54.1037 26.7514ZM54.7198 25.827C54.4292 25.9997 53.3038 26.4495 53.4147 26.0142C53.4447 25.8945 53.8182 25.8802 54.1858 25.8661C54.3837 25.8584 54.5799 25.8509 54.7198 25.827ZM57.3813 24.9729C57.3074 24.8643 57.2325 24.7547 57.1524 24.6493C57.0675 24.5272 56.9769 24.4102 56.8856 24.2923C56.8609 24.2604 56.8361 24.2285 56.8114 24.1964C56.7432 24.1084 56.6719 24.0232 56.5997 23.937L56.5993 23.9366L56.599 23.9362L56.5987 23.9358C56.5472 23.8745 56.4954 23.8125 56.4438 23.7486L56.4449 23.7466C56.8053 23.9079 57.1185 24.1622 57.3937 24.4435C57.5272 24.5882 57.6596 24.7361 57.7757 24.8954C57.8948 25.0556 58.0005 25.2169 58.1012 25.3969L58.5006 26.1124L57.8332 25.6419L57.4922 25.401L57.1431 25.1632L56.7899 24.9274L56.4264 24.6937C56.5722 24.7061 56.717 24.7371 56.8577 24.7764C56.9973 24.8178 57.1359 24.8664 57.2704 24.9233C57.2951 24.9336 57.3198 24.9449 57.3444 24.9561C57.3567 24.9618 57.369 24.9674 57.3813 24.9729ZM43.251 37.0999C41.5803 37.0999 39.3798 37.2044 37.7728 38.6799C38.903 36.7626 41.6085 36.5413 43.5752 36.3804C43.9313 36.3513 44.2632 36.3241 44.5571 36.2893C46.1918 36.0959 47.6623 35.3473 48.0597 34.7672C48.0864 34.7289 48.1254 34.7103 48.1654 34.7103C48.2055 34.7103 48.2455 34.7289 48.2712 34.7672C48.6686 35.3473 50.139 36.0959 51.7738 36.2893C52.0677 36.3241 52.3996 36.3513 52.7558 36.3804C54.7227 36.5413 57.4288 36.7626 58.5581 38.6799C56.9511 37.2033 54.7506 37.0999 53.0799 37.0999C52.1641 37.0999 51.5617 36.988 50.9358 36.8718C50.215 36.7379 49.4631 36.5982 48.1654 36.6171C46.8676 36.5982 46.1154 36.7379 45.3944 36.8718C44.7685 36.9881 44.1662 37.0999 43.251 37.0999ZM37.9299 40.414C36.3013 39.4803 36.7018 38.1174 37.3661 37.1341C36.6525 37.6511 34.9356 40.1493 37.9299 40.414ZM47.6643 28.5682C47.1098 28.4245 47.3511 30.4357 47.3511 30.4357C47.3511 30.4357 48.1028 28.682 47.6643 28.5682ZM47.0493 28.1556C47.4425 28.3542 46.6313 29.5867 46.3633 29.7522C46.3783 29.731 46.3992 29.6186 46.4283 29.4622L46.4284 29.462C46.5229 28.9541 46.7039 27.9817 47.0493 28.1556ZM46.4352 27.7431C46.7854 28.0388 45.9125 28.7388 45.3765 29.0697C45.404 29.0309 45.4527 28.9331 45.5156 28.8067C45.7441 28.3478 46.1607 27.5112 46.4352 27.7431ZM44.3887 28.3862C44.5787 28.1163 45.5614 26.9789 45.8201 27.3305C46.0183 27.6007 45.6687 27.7599 45.175 27.9849C44.9318 28.0957 44.6537 28.2225 44.3887 28.3862ZM43.4019 27.7038C43.6555 27.345 45.0274 26.5126 45.2061 26.9189C45.3209 27.1808 45.1294 27.2079 44.7727 27.2584C44.4277 27.3072 43.9283 27.378 43.4019 27.7038ZM44.0252 26.5488C44.3209 27.0875 42.6718 26.8796 42.2272 26.7504C42.4211 26.7338 42.6841 26.6763 42.9494 26.6183C43.4428 26.5105 43.9444 26.4008 44.0252 26.5488ZM42.9172 26.0142C43.0292 26.4485 41.9027 25.9997 41.6121 25.827C41.752 25.8509 41.9481 25.8584 42.1459 25.8661C42.5132 25.8802 42.8865 25.8945 42.9172 26.0142ZM51.7799 38.0771C52.1876 38.0699 52.5942 38.0719 53.0039 38.0854H53.0029C54.6458 38.1412 56.2662 38.4359 57.8239 38.9136C57.3228 38.892 56.8247 38.8634 56.3287 38.835C55.4272 38.7833 54.5328 38.732 53.6406 38.7234C53.7217 38.987 53.9312 39.381 54.4785 39.746C54.4785 39.746 53.6272 39.7078 53.3263 39.3045C53.3263 39.746 53.6642 40.1999 53.6642 40.1999C53.6642 40.1999 53.1384 40.0107 53.0255 39.594C53.0255 39.594 52.5993 40.3633 52.7 40.8049C52.5312 40.6409 52.5137 40.4299 52.4945 40.1987C52.4738 39.9503 52.4512 39.6786 52.2369 39.4172C52.3745 40.0986 52.3118 40.6415 51.8107 41.234C51.8107 41.234 52.011 40.414 51.7358 39.897C51.7358 39.897 51.7111 40.8679 51.172 41.4108C51.4103 40.1741 51.1597 39.1649 50.6206 38.9126C50.9506 39.4635 50.8615 39.8064 50.7857 40.0983C50.7436 40.2606 50.7055 40.4072 50.7459 40.565C50.3454 40.4771 50.2448 40.0479 50.2448 40.0479C50.2448 40.0479 49.9562 41.0706 50.445 41.8523C50.0312 41.6507 49.5804 41.2846 49.6554 40.7676C49.6554 40.7676 49.066 41.3477 49.0537 41.8275C48.9115 41.5016 48.9965 41.2328 49.0861 40.95C49.1698 40.6855 49.2574 40.4087 49.1666 40.0614C49.029 40.6415 48.4273 41.1337 48.4273 41.1337C48.4273 41.1337 48.4653 40.8566 48.2897 40.415C48.2897 40.415 48.0145 41.0582 48.1644 41.7013C48.1644 41.7013 46.9897 40.0614 47.0842 39.3986C46.7625 40.1276 46.8935 40.672 47.0056 41.138C47.1161 41.5973 47.2082 41.9804 46.8305 42.389C46.897 41.9688 46.6621 41.6056 46.4691 41.3074C46.4446 41.2694 46.4207 41.2326 46.3982 41.1967C46.2991 41.0382 46.2698 40.8495 46.2389 40.6513C46.185 40.3052 46.1266 39.9299 45.6846 39.6354C46.0132 40.1369 45.9947 41.1399 45.5809 41.6796C45.6373 41.3581 45.4587 40.4781 44.82 40.0045C44.82 40.0045 44.7347 40.8648 45.1455 41.2846C43.8939 40.8973 43.6474 39.9967 43.4415 39.2445C43.4331 39.2135 43.4247 39.1829 43.4163 39.1525C43.3475 39.5601 43.4757 39.9509 43.599 40.327C43.7392 40.7542 43.873 41.1624 43.7048 41.5545C43.6052 40.8907 42.8782 40.1358 42.0639 39.6943C42.0583 39.7782 42.0516 39.8584 42.0452 39.9361L42.0451 39.9365C42.0078 40.3846 41.9775 40.7474 42.2015 41.2205C41.7604 40.964 41.6908 40.6158 41.6174 40.248C41.5574 39.9472 41.4947 39.6333 41.224 39.3458C41.224 39.3458 41.2363 39.7822 41.0361 40.0976C41.0361 39.6599 40.902 39.3618 40.7867 39.1054C40.7402 39.0021 40.6968 38.9054 40.6664 38.8092C40.507 38.8177 40.3474 38.8267 40.1876 38.8357L40.1859 38.8358C39.6296 38.8672 39.0702 38.8987 38.5059 38.9116C40.0606 38.4132 41.684 38.1226 43.3269 38.0771C43.7367 38.0647 44.1443 38.0657 44.5509 38.073C44.9648 38.0812 45.3827 38.1122 45.7955 38.1702C46.0376 38.2022 46.2762 38.2449 46.5105 38.2868L46.5107 38.2869L46.5109 38.2869C46.6769 38.3166 46.8407 38.3459 47.002 38.3708C47.3912 38.4349 47.7752 38.468 48.1654 38.4711C48.5556 38.4669 48.9386 38.4349 49.3288 38.3708C49.4897 38.346 49.6527 38.3167 49.8177 38.2871L49.8178 38.287L49.818 38.287L49.8181 38.287L49.8183 38.287C50.0533 38.2447 50.2924 38.2017 50.5354 38.1702C50.9482 38.1143 51.3651 38.0823 51.7799 38.0771ZM39.9055 24.6948L39.542 24.9284L39.543 24.9305L39.1898 25.1663L38.8407 25.4041L38.4998 25.645L37.8323 26.1155L38.2318 25.4C38.3324 25.22 38.4392 25.0577 38.5573 24.8985C38.6733 24.7392 38.8058 24.5914 38.9393 24.4466C39.2144 24.1643 39.5276 23.9099 39.888 23.7497C39.8409 23.8077 39.7936 23.8639 39.7467 23.9196L39.7466 23.9197C39.6691 24.0119 39.5928 24.1027 39.5204 24.1974C39.503 24.22 39.4855 24.2425 39.468 24.265C39.3694 24.392 39.2711 24.5185 39.1795 24.6503C39.0994 24.7558 39.0245 24.8643 38.9505 24.9739L39.0614 24.9243C39.1949 24.8674 39.3336 24.8188 39.4742 24.7775C39.6149 24.7382 39.7597 24.7072 39.9055 24.6948ZM38.1486 36.8218C37.5848 36.5281 39.5492 33.7559 40.5545 33.2068C39.7832 33.9595 39.3275 34.9819 38.9842 35.7518C38.6625 36.4734 38.4397 36.9734 38.1486 36.8218ZM37.3528 36.0783C36.789 35.7847 38.9783 33.0124 39.9835 32.4634C39.2438 33.1853 38.7391 34.1554 38.3451 34.9129C37.9433 35.6852 37.6566 36.2365 37.3528 36.0783ZM36.5108 34.154C35.9501 33.9172 38.127 31.6765 39.1261 31.2329C38.3911 31.8159 37.8896 32.5996 37.4979 33.2118C37.0983 33.8361 36.8131 34.2819 36.5108 34.154ZM36.5108 29.9776C35.9501 29.7408 38.127 27.5001 39.1261 27.0565C38.3911 27.6395 37.8896 28.4232 37.4979 29.0353C37.0983 29.6597 36.8131 30.1055 36.5108 29.9776ZM36.3383 31.5493C35.7776 31.3125 37.9545 29.0718 38.9536 28.6282C38.2186 29.2112 37.7171 29.9949 37.3254 30.607C36.9258 31.2314 36.6406 31.6772 36.3383 31.5493ZM36.3383 32.9421C35.7776 32.7053 37.9545 30.4646 38.9536 30.021C38.2186 30.604 37.7171 31.3878 37.3254 31.9999C36.9258 32.6243 36.6406 33.0701 36.3383 32.9421ZM39.3428 36.5716C38.9002 36.3234 40.4395 34.2212 41.2168 33.8086C40.6277 34.3817 40.2722 35.158 40.0032 35.7455C39.747 36.3049 39.5692 36.6931 39.3428 36.5716ZM40.5432 36.3193C40.1899 36.1011 41.418 34.4994 42.027 34.1892C41.5727 34.6288 41.2909 35.2219 41.0762 35.6737C40.8673 36.1134 40.722 36.4192 40.5432 36.3193ZM41.7436 36.068C41.4786 35.8829 42.3987 34.7661 42.8412 34.5542C42.5194 34.8639 42.3112 35.2787 42.1508 35.5982C41.9888 35.921 41.8756 36.1464 41.7436 36.068ZM42.9491 35.8147C42.7386 35.6399 43.4707 34.853 43.8075 34.7093C43.5729 34.9321 43.4111 35.2269 43.2842 35.4581C43.1478 35.7066 43.0517 35.8816 42.9491 35.8147ZM44.1525 35.5582C43.9913 35.3897 44.5499 34.9275 44.7851 34.852C44.6382 34.988 44.5239 35.1633 44.4303 35.307C44.3132 35.4867 44.2284 35.6168 44.1525 35.5582ZM55.7569 33.2068C56.7632 33.7559 58.7265 36.5281 58.1628 36.8218C57.8712 36.9729 57.6483 36.4727 57.3268 35.7511C56.9836 34.9811 56.5282 33.959 55.7569 33.2068ZM56.3268 32.4644C57.3321 33.0135 59.5213 35.7857 58.9575 36.0794C58.6539 36.237 58.3672 35.6859 57.9657 34.914C57.5716 34.1564 57.0668 33.1861 56.3268 32.4644ZM57.1852 31.2329C58.1843 31.6765 60.3612 33.9172 59.8006 34.154C59.4989 34.2819 59.2137 33.8363 58.8141 33.2122C58.4223 32.6 57.9204 31.8161 57.1852 31.2329ZM57.1852 27.0565C58.1843 27.5001 60.3612 29.7408 59.8006 29.9776C59.4989 30.1055 59.2137 29.6599 58.8141 29.0358C58.4223 28.4236 57.9204 27.6396 57.1852 27.0565ZM57.3577 28.6282C58.3568 29.0718 60.5338 31.3125 59.9731 31.5493C59.6714 31.6772 59.3862 31.2316 58.9866 30.6075C58.5948 29.9953 58.0929 29.2114 57.3577 28.6282ZM57.3577 30.021C58.3568 30.4646 60.5338 32.7053 59.9731 32.9421C59.6714 33.07 59.3862 32.6245 58.9866 32.0003C58.5948 31.3881 58.0929 30.6042 57.3577 30.021ZM55.0946 33.8086C55.8719 34.2212 57.4101 36.3234 56.9686 36.5716C56.7422 36.6931 56.5644 36.3049 56.3082 35.7455C56.0392 35.158 55.6837 34.3817 55.0946 33.8086ZM54.2844 34.1892C54.8923 34.4994 56.1214 36.1011 55.7682 36.3193C55.5894 36.4192 55.4441 36.1134 55.2351 35.6737C55.0205 35.2219 54.7387 34.6288 54.2844 34.1892ZM53.4701 34.5542C53.9127 34.7661 54.8327 35.8829 54.5678 36.068C54.4363 36.1464 54.3232 35.9212 54.1612 35.5987C54.0006 35.2792 53.7921 34.864 53.4701 34.5542ZM52.5038 34.7093C52.8406 34.853 53.5728 35.6399 53.3623 35.8147C53.2595 35.8811 53.1631 35.7057 53.0264 35.457C52.8994 35.226 52.7377 34.9318 52.5038 34.7093ZM51.5263 34.852C51.7614 34.9264 52.32 35.3886 52.1588 35.5582C52.0829 35.6168 51.9982 35.4867 51.8811 35.307C51.7875 35.1633 51.6732 34.988 51.5263 34.852Z" fill="white"/>
<path fill-rule="evenodd" clip-rule="evenodd" d="M35.5743 6.78029C35.5743 6.78029 34.5844 7.60027 32.6303 7.91565H32.619C30.6649 8.23103 30.3138 8.84937 30.1135 9.2909C29.9934 9.55561 29.6627 10.0126 29.0312 10.5069C29.8116 10.4149 30.6598 10.3394 31.5388 10.2898C32.351 9.66625 33.8307 8.92175 35.4418 8.92175C35.4418 8.92175 34.9633 8.45748 33.9765 8.44817C34.9356 7.97562 36.8989 7.89083 38.318 8.35407C38.318 8.35407 37.7173 7.58786 37.1063 7.53099C39.1744 7.02949 41.1377 8.56191 41.6357 8.97862C41.4436 8.48986 41.0929 8.18304 40.7618 7.89329C40.4134 7.58843 40.0866 7.30247 39.9887 6.84336C40.2484 7.15935 40.6854 7.38113 41.189 7.63668C41.8522 7.9732 42.6307 8.36826 43.2715 9.11408C43.2222 8.91245 42.8464 8.0966 42.4952 7.67575C42.9066 7.78563 43.3194 8.2279 43.7617 8.70162C44.0436 9.00363 44.3375 9.31843 44.6505 9.56802C44.6505 9.56802 44.1248 8.82352 44.1998 8.18036C44.5646 8.84179 45.5457 9.80232 45.6123 9.86756L45.6158 9.87099C45.6158 9.87099 45.5028 9.18956 45.24 8.60948C45.24 8.60948 46.005 9.02516 46.2801 9.69417C46.2801 9.69417 46.6057 8.92382 46.4804 8.1421C46.7597 8.85144 48.0699 10.1729 48.1511 10.2536V10.2618L48.1552 10.2577L48.1593 10.2618V10.2536C48.2394 10.1729 49.5506 8.85144 49.8299 8.1421C49.7047 8.92486 50.0302 9.69417 50.0302 9.69417C50.3064 9.02619 51.0704 8.60948 51.0704 8.60948C50.8075 9.18956 50.6945 9.87099 50.6945 9.87099L50.698 9.86756C50.7647 9.80232 51.7458 8.84179 52.1106 8.18036C52.1855 8.82352 51.6598 9.56802 51.6598 9.56802C51.9729 9.31837 52.267 9.00348 52.5491 8.70141C52.9915 8.22777 53.4045 7.78561 53.8151 7.67575C53.465 8.0966 53.0891 8.91245 53.0388 9.11408C53.6797 8.36826 54.4582 7.9732 55.1213 7.63668C55.6249 7.38113 56.0619 7.15935 56.3216 6.84336C56.2237 7.30247 55.8969 7.58843 55.5485 7.89329C55.2174 8.18304 54.8667 8.48986 54.6746 8.97862C55.1726 8.56191 57.137 7.02949 59.204 7.53099C58.5941 7.58786 57.9923 8.35407 57.9923 8.35407C59.4114 7.8898 61.3758 7.97459 62.3338 8.44817C61.348 8.45851 60.8685 8.92175 60.8685 8.92175C62.4868 8.92175 63.9727 9.67349 64.7828 10.2991C65.67 10.3518 66.5233 10.4314 67.3037 10.5276C66.6558 10.0251 66.318 9.55975 66.1958 9.2909C65.9955 8.84937 65.6444 8.23103 63.6903 7.91565C61.7362 7.60027 60.7463 6.78029 60.7463 6.78029C61.4235 7.00239 62.2189 6.97039 62.7976 6.94711C63.1403 6.93332 63.407 6.92259 63.528 6.96952C62.3882 6.03579 61.0852 5.29129 59.1311 5.70801C59.5952 5.26648 60.9979 4.92628 60.9979 4.92628C60.549 4.87339 60.114 4.90793 59.666 4.94348C59.1506 4.98439 58.6183 5.02665 58.0283 4.93869C56.9265 4.77428 56.2621 4.13112 56.2621 4.13112C57.5898 4.56024 59.4443 4.13112 59.4443 4.13112C59.0428 3.90467 57.3639 3.70303 56.6626 3.91708C57.0764 3.43729 58.2788 3.24806 58.2788 3.24806C57.8403 2.86961 55.8863 2.93269 55.1346 3.32355C55.3482 2.85617 56.0372 2.31434 56.3627 2.26367C55.5977 2.30193 55.2219 2.49116 54.4456 3.14673C53.6693 3.80333 52.9926 3.82815 52.9926 3.82815C53.8069 3.32355 54.1581 2.49116 54.1581 2.49116C53.3561 3.13432 52.6425 3.37421 51.6649 3.56344C50.6874 3.75267 49.7858 5.00177 49.7858 5.00177C50.8629 4.25727 51.7399 4.14353 51.7399 4.14353C50.7377 4.82495 50.4368 5.99857 50.4368 5.99857C51.439 4.91388 53.3305 4.33275 54.7085 4.62331C53.6067 4.68639 51.1761 5.96031 50.5744 8.23103C50.3742 7.75124 50.4994 6.84336 50.4994 6.84336C50.1986 6.96952 49.6975 7.5372 49.6975 7.5372C49.6482 6.86818 49.6852 6.45147 49.986 5.74523C49.5845 5.97168 48.7076 7.28386 48.7579 8.34373C48.5063 7.80191 48.2127 6.99847 48.1644 6.86404V6.84233C48.1644 6.84233 48.1623 6.84543 48.1603 6.85267C48.1572 6.84647 48.1562 6.84233 48.1562 6.84233V6.86404C48.1079 6.99743 47.8143 7.80191 47.5627 8.34373C47.612 7.28489 46.735 5.97272 46.3346 5.74523C46.6354 6.4525 46.6734 6.86818 46.6231 7.5372C46.6231 7.5372 46.122 6.96952 45.8211 6.84336C45.8211 6.84336 45.9464 7.75124 45.7462 8.23103C45.1455 5.96031 42.7149 4.68639 41.6121 4.62331C42.9901 4.33275 44.8816 4.91388 45.8838 5.99857C45.8838 5.99857 45.5829 4.82495 44.5807 4.14353C44.5807 4.14353 45.4576 4.25727 46.5348 5.00177C46.5348 5.00177 45.6332 3.75267 44.6557 3.56344C43.6781 3.37421 42.9645 3.13432 42.1625 2.49116C42.1625 2.49116 42.5137 3.32355 43.328 3.82815C43.328 3.82815 42.6513 3.8023 41.875 3.14673C41.0977 2.49116 40.7218 2.30193 39.9579 2.26367C40.2844 2.31434 40.9734 2.8572 41.186 3.32355C40.4343 2.93269 38.4803 2.86961 38.0418 3.24806C38.0418 3.24806 39.2442 3.43729 39.658 3.91708C38.9557 3.702 37.2768 3.90363 36.8763 4.13112C36.8763 4.13112 38.7308 4.56024 40.0585 4.13112C40.0585 4.13112 39.3952 4.77428 38.2923 4.93869C37.7023 5.02666 37.1695 4.98438 36.654 4.94347C36.206 4.90792 35.771 4.8734 35.3227 4.92628C35.3227 4.92628 36.7264 5.26648 37.1895 5.70801C35.2354 5.29129 33.9324 6.03579 32.7926 6.96952C32.914 6.92259 33.181 6.93333 33.5239 6.94712C34.1027 6.97039 34.8978 7.00237 35.5743 6.78029ZM59.9823 23.4849C61.2074 23.4725 62.4488 23.2802 63.6009 22.8625C64.1523 22.6619 64.7027 22.4189 65.1905 22.0932C65.6485 21.7871 66.0356 21.3952 66.3364 20.9381C66.9074 20.0706 67.1322 19.0459 67.2555 18.0346C67.0522 19.1265 66.7503 20.2505 66.0233 21.1294C65.6526 21.5772 65.1956 21.8967 64.6873 22.1779C64.1934 22.4509 63.6482 22.6608 63.105 22.8159C61.9508 23.1458 60.7463 23.2937 59.5449 23.2905C59.2348 23.2895 58.8744 23.2802 58.5643 23.2585C58.6125 23.3236 58.6598 23.3888 58.706 23.455C59.1136 23.4808 59.5726 23.4891 59.9823 23.4849ZM58.0786 56.1332C58.3137 56.8653 58.1535 58.3129 57.1575 59.1164C57.6175 58.3026 58.1258 56.7164 58.0786 56.1332ZM55.1767 55.6359C55.1767 55.6359 56.9439 54.6897 56.9059 53.0053C56.8679 51.3209 57.178 50.7253 57.8075 50.1007C57.0363 50.2993 56.2097 51.7665 56.2662 52.7313C56.3124 53.5171 56.0598 54.6515 55.1767 55.6359ZM39.7566 52.7302C39.8131 51.7655 38.9855 50.2982 38.2153 50.0997C38.8448 50.7242 39.1549 51.3198 39.1169 53.0043C39.0799 54.6887 40.8461 55.6348 40.8461 55.6348C39.963 54.6515 39.7104 53.5161 39.7566 52.7302ZM29.9996 21.1139C30.3949 21.663 30.9268 22.0621 31.5254 22.3796L31.5244 22.3785C33.4426 23.394 35.488 23.6432 37.6403 23.4467C37.667 23.4115 37.6937 23.3766 37.7204 23.3417L37.7215 23.3403C37.7478 23.3059 37.7741 23.2715 37.8005 23.2368C36.7541 23.3412 35.869 23.3102 34.8309 23.184C33.5904 23.0331 32.3408 22.6908 31.2544 22.0725C30.7255 21.7716 30.2778 21.3714 29.9287 20.8782C29.6361 20.4646 29.4297 20.0075 29.2551 19.536C29.4266 20.0975 29.6535 20.6321 29.9996 21.1139ZM28.9751 16.4832C28.9779 16.4652 28.9807 16.4472 28.983 16.4288L28.982 16.4257C30.026 16.1128 31.1889 15.6413 32.403 15.149C36.6782 13.4157 41.5897 11.4244 44.1936 15.19C44.2234 15.2334 44.287 15.1838 44.322 15.1486C44.3795 15.3193 44.4185 15.4961 44.4462 15.6739C44.5027 16.0482 44.516 16.4546 44.4462 16.831C44.4488 16.831 44.4511 16.8305 44.4534 16.83L44.455 16.8296C44.4568 16.8292 44.4586 16.8289 44.4606 16.8289C44.5951 16.4463 44.6423 16.0224 44.6444 15.6222C44.6464 15.1755 44.5622 14.7526 44.3641 14.3566C44.3445 14.307 44.322 14.2615 44.2942 14.2242C43.826 13.5873 43.0333 13.1364 42.0547 12.7735C40.0298 12.0228 35.3628 11.5544 32.4907 11.8511C30.3138 12.0766 29.2633 13.0237 28.9152 14.644C28.6482 15.8476 28.7098 17.0575 28.9152 18.2662C28.8967 17.6954 28.9039 17.1226 28.9655 16.5539C28.9678 16.5299 28.9715 16.5066 28.9751 16.4832ZM32.3736 10.6403C31.1291 10.6858 29.8856 10.7675 28.6523 10.9422V10.9433C27.5998 11.0922 26.5565 11.2886 25.5184 11.5192C26.7219 11.3631 27.9253 11.2121 29.135 11.1118C31.3468 10.9288 33.5668 10.9019 35.7827 11.0188C37.0047 11.0829 38.2184 11.2059 39.4342 11.3352C40.2125 11.4183 40.9864 11.5312 41.76 11.644L41.7601 11.644L41.7603 11.6441L41.7604 11.6441C42.0357 11.6843 42.3111 11.7244 42.5866 11.7633C41.416 11.4882 40.2403 11.2421 39.0501 11.0632C36.8486 10.7323 34.6019 10.5586 32.3736 10.6403ZM34.3653 10.1885L34.3626 10.1895L34.3647 10.1884L34.3653 10.1885ZM34.3653 10.1885C35.296 9.86844 36.8435 10.1512 36.8435 10.1512C36.4204 9.79137 35.6318 9.58353 34.8801 9.61145C35.6318 9.29917 36.9944 9.32709 38.3478 10.5576C38.357 10.1409 37.1916 9.1482 36.826 8.90211C37.7676 9.01792 39.5646 10.1574 40.0359 10.8409C38.9464 10.6403 37.7081 10.4635 36.2736 10.3353C35.7417 10.2877 35.1964 10.2577 34.6481 10.2422C34.4881 10.2056 34.375 10.1899 34.3653 10.1885ZM40.4857 9.69417C40.191 8.85558 39.4455 8.22068 38.8879 8.06662V8.06765C39.3459 8.36958 40.0975 9.36638 40.116 9.7893C40.116 9.7893 39.3264 9.05101 38.5624 8.87419C38.8427 9.0479 39.9189 9.97232 40.0852 10.8512C40.6346 10.9526 41.1439 11.0601 41.6214 11.1708C41.3862 10.9743 40.726 10.3787 40.4857 9.69417ZM43.0665 10.3057C42.7936 10.1237 42.5857 9.98501 42.5281 9.8958V9.89684C42.6003 10.3242 43.0416 10.7414 43.3813 11.0626C43.5726 11.2434 43.7317 11.3939 43.7747 11.4985C42.2149 10.9805 41.3246 10.1036 41.112 9.51115C41.0812 10.1812 41.339 10.6289 41.6727 11.1821C42.8177 11.4481 43.7719 11.7272 44.6123 11.973L44.6125 11.9731C44.9056 12.0588 45.1848 12.1405 45.4535 12.2162C45.2697 11.3052 44.8313 10.8978 44.4667 10.7758C44.4667 10.7758 44.8672 11.3062 44.7768 11.8263C44.3828 11.1839 43.6003 10.6618 43.0665 10.3057ZM46.3736 12.4571C46.5071 11.9845 46.4147 11.4644 45.7975 11.0787V11.0798C46.0306 11.3414 46.1682 11.9266 46.197 12.4147C46.2555 12.4292 46.3151 12.4436 46.3736 12.4571ZM47.2444 11.5234C47.5195 11.4034 47.0749 10.8523 46.8213 10.7571C46.8594 10.8049 46.8903 10.9203 46.9246 11.048C46.992 11.2992 47.0721 11.5981 47.2444 11.5234ZM49.3984 11.048C49.4325 10.9203 49.4633 10.8049 49.5014 10.7571C49.2477 10.8512 48.8031 11.4034 49.0783 11.5234C49.2513 11.5988 49.3312 11.2995 49.3984 11.048ZM50.1288 12.3775C50.1616 11.8966 50.2982 11.3352 50.5251 11.0787C49.9224 11.4551 49.8207 11.9607 49.9408 12.424L49.9548 12.4206C49.9708 12.4166 49.9868 12.4127 50.0028 12.4089L50.0035 12.4087C50.0453 12.3986 50.087 12.3885 50.1288 12.3775ZM53.2567 10.3063C52.7229 10.6626 51.9408 11.1847 51.5468 11.8263V11.8253C51.4565 11.3041 51.8569 10.7747 51.8569 10.7747C51.4975 10.8957 51.0663 11.2907 50.8784 12.1727C51.1072 12.1076 51.3439 12.0384 51.5903 11.9663L51.591 11.9661L51.5915 11.9659C52.4671 11.7099 53.4659 11.4179 54.6746 11.1428C54.996 10.6072 55.2414 10.1646 55.2116 9.51011C54.998 10.1036 54.1088 10.9805 52.549 11.4975C52.5918 11.3935 52.7503 11.2437 52.941 11.0635C53.2809 10.7423 53.7233 10.3244 53.7956 9.8958C53.7379 9.98506 53.5298 10.124 53.2567 10.3063ZM57.7596 8.87457L57.7603 8.87419H57.7613L57.7596 8.87457ZM57.7596 8.87457C57.4814 9.04615 56.4242 9.95436 56.2426 10.8244C55.7127 10.9205 55.2178 11.0219 54.7547 11.1263C55.0237 10.8947 55.6131 10.3332 55.838 9.6952C56.1327 8.85661 56.8782 8.22275 57.4358 8.06765C56.9788 8.37062 56.2272 9.36742 56.2077 9.7893C56.2077 9.7893 56.9962 9.05207 57.7596 8.87457ZM61.9596 10.1897L61.9611 10.1895L61.9621 10.1905L61.9596 10.1897ZM59.4812 10.1522C59.4812 10.1522 61.0291 9.86838 61.9596 10.1897C61.9466 10.1914 61.8449 10.2053 61.7013 10.2381C61.0954 10.2525 60.4937 10.2846 59.9074 10.3363C59.2245 10.3973 58.5869 10.4697 57.9872 10.5503C59.3365 9.32916 60.6939 9.30124 61.4446 9.61248C60.6929 9.58456 59.9033 9.7924 59.4812 10.1522ZM56.3103 10.8119C56.8299 10.7189 57.3844 10.631 57.9779 10.5514H57.979C57.982 10.1316 59.1352 9.1482 59.4997 8.90314C58.5715 9.01688 56.8125 10.1254 56.3103 10.8119ZM61.5832 22.5078C62.3194 22.3982 63.0177 22.1893 63.7005 21.8977V21.8967C64.3208 21.632 64.905 21.2897 65.3876 20.8223C65.7984 20.4242 66.0982 19.9496 66.3221 19.4305C66.0325 20.0168 65.6495 20.538 65.1361 20.9568C64.6021 21.3921 63.9696 21.6992 63.3237 21.9411C62.6378 22.1976 61.9416 22.3641 61.2146 22.4571C60.4927 22.5492 59.7646 22.6029 59.0376 22.6246C58.9495 22.6273 58.8528 22.6311 58.7525 22.6351L58.7524 22.6351C58.5012 22.6451 58.2269 22.656 58.0046 22.6515C58.017 22.665 58.0283 22.6794 58.0406 22.6929C58.3775 22.7111 58.7865 22.7003 59.1445 22.6908C59.2141 22.689 59.2818 22.6872 59.3467 22.6856C60.0943 22.6691 60.8428 22.6184 61.5832 22.5078ZM35.6462 22.5864C36.3537 22.636 37.0622 22.6277 37.7686 22.5719H37.7676C38.0274 22.5512 38.2923 22.5285 38.5552 22.4954C38.5571 22.4934 38.559 22.4914 38.5608 22.4893C38.5626 22.4871 38.5645 22.4847 38.5664 22.4824C38.5684 22.4799 38.5705 22.4773 38.5727 22.4747C38.5924 22.4524 38.6121 22.4311 38.6318 22.4099C38.645 22.3958 38.6581 22.3816 38.6712 22.3672C38.6438 22.3707 38.6164 22.3746 38.589 22.3784L38.5889 22.3784L38.5887 22.3784L38.5881 22.3785L38.5875 22.3786C38.56 22.3825 38.5324 22.3863 38.5049 22.3899C38.1311 22.4395 37.7553 22.4768 37.3795 22.5006C36.1545 22.5771 34.9099 22.5274 33.7034 22.2917C34.3421 22.4437 34.99 22.5409 35.6462 22.5864ZM45.8961 12.9896C45.8037 13.4735 45.7862 13.9781 45.7862 14.4693C45.7873 14.9615 45.8027 15.4651 45.8961 15.949C45.9896 15.4651 46.006 14.9605 46.006 14.4693C46.005 13.9771 45.9885 13.4746 45.8961 12.9896ZM50.2889 14.4693C50.29 14.9615 50.3054 15.4651 50.3988 15.949C50.4923 15.4651 50.5087 14.9605 50.5087 14.4693C50.5077 13.9771 50.4912 13.4746 50.3988 12.9896C50.3064 13.4735 50.2889 13.9781 50.2889 14.4693ZM49.9008 15.219C49.9912 14.885 50.0096 14.5282 50.0107 14.1849C50.0117 13.8292 49.9932 13.458 49.9008 13.1116C49.8084 13.457 49.7899 13.8292 49.7909 14.1849C49.792 14.5282 49.8104 14.885 49.9008 15.219ZM49.5445 14.0722C49.5445 13.793 49.5239 13.4983 49.4346 13.2316C49.3453 13.4983 49.3247 13.793 49.3247 14.0722C49.3247 14.3514 49.3453 14.6461 49.4346 14.9129C49.525 14.6461 49.5445 14.3514 49.5445 14.0722ZM49.7149 16.4102C49.4972 16.4546 49.2652 16.2571 49.0999 15.5467C49.3206 15.7515 49.5137 16.0369 49.7149 16.4102ZM46.4907 16.3616C46.4937 16.3636 46.4989 16.3678 46.4989 16.3678H46.4999C46.7587 16.5136 47.0616 16.3626 47.2536 15.4071C46.9661 15.6067 46.733 15.92 46.4907 16.3616ZM46.5358 14.9987C46.6262 14.6957 46.6457 14.368 46.6457 14.0546C46.6457 13.7413 46.6262 13.4136 46.5358 13.1106C46.4455 13.4136 46.426 13.7413 46.426 14.0546C46.426 14.369 46.4455 14.6968 46.5358 14.9987ZM52.2492 19.6735C54.116 19.6611 54.8676 20.7076 54.9929 22.1335C55.6049 19.7966 54.079 18.5103 52.1742 18.5123C51.3777 18.5129 50.6735 18.7867 49.999 19.049C49.3788 19.2902 48.7838 19.5215 48.1654 19.5215C47.5477 19.5215 46.9528 19.2903 46.3326 19.0491C45.658 18.7868 44.9533 18.5129 44.1566 18.5123C42.2529 18.5113 40.726 19.7966 41.338 22.1335C41.4632 20.7076 42.2149 19.6611 44.0817 19.6735C45.9485 19.687 47.4138 20.9288 47.3891 22.2855C47.3696 23.3319 46.1867 23.7486 46.1867 23.7486C46.1867 23.7486 47.4395 22.7394 46.4999 21.4779C46.5995 22.6515 46.1867 23.2699 45.3847 23.547C44.5828 23.8241 43.7562 23.7362 43.2674 23.0041C43.4923 23.8117 44.5828 24.3535 45.7226 24.278C46.8624 24.2026 47.9529 23.4705 48.1654 22.8904C48.378 23.4705 49.4685 24.2026 50.6083 24.278C51.7481 24.3535 52.8376 23.8117 53.0635 23.0041C52.5747 23.7362 51.7481 23.8241 50.9461 23.547C50.1442 23.2699 49.7303 22.6515 49.831 21.4779C48.8914 22.7394 50.1442 23.7486 50.1442 23.7486C50.1442 23.7486 48.9612 23.3329 48.9417 22.2855C48.9171 20.9288 50.3824 19.6859 52.2492 19.6735ZM48.1654 26.6118C48.8791 26.6118 49.5178 26.07 50.1945 25.4517C48.8555 26.2323 48.1665 24.9109 48.1654 24.9088C48.1644 24.9119 47.4754 26.2334 46.1364 25.4517C46.812 26.069 47.4518 26.6118 48.1654 26.6118ZM46.0825 18.1065C46.6722 18.3664 47.2734 18.6313 48.1654 18.6013C49.0576 18.6313 49.6589 18.3665 50.2487 18.1067C50.9568 17.7949 51.6483 17.4903 52.8068 17.712C52.8068 17.712 51.5561 17.1484 50.3577 17.592L50.2422 17.6348C49.0227 18.0861 48.9435 18.1154 48.1654 18.1194C47.3884 18.1154 47.3093 18.0861 46.0936 17.6366L45.9731 17.592C44.7748 17.1495 43.5241 17.712 43.5241 17.712C44.6828 17.4897 45.3743 17.7944 46.0825 18.1065ZM27.941 12.5837L27.9411 12.5837C28.0273 12.5953 28.1136 12.6068 28.2005 12.6174C27.6748 12.0197 26.534 12.0466 26.0031 12.6174C26.1263 12.6051 26.2479 12.5884 26.3691 12.5719C26.6045 12.5397 26.8386 12.5077 27.0813 12.5077C27.3731 12.5077 27.6558 12.5456 27.941 12.5837ZM27.8925 19.3706C27.8257 19.1152 27.7662 18.8505 27.7179 18.5682L27.7052 18.4934L27.7052 18.4932L27.7051 18.493C27.6383 18.0998 27.5775 17.7421 27.5177 17.4173C27.4364 17.7633 27.3979 18.0715 27.3608 18.3693C27.2862 18.9666 27.2169 19.5222 26.8174 20.2578C26.8174 20.2578 27.3667 19.9217 27.8925 19.3706ZM50.0004 62.0695C50.407 63.4882 50.1534 64.422 49.7437 65.2864H49.7427C49.3484 66.1188 49.1604 67.462 50.7767 68.5032C50.7767 68.5032 49.6256 66.9843 50.2694 65.5956C50.9246 64.1831 50.7397 63.1666 50.0004 62.0695ZM52.1106 16.7379C51.8569 10.7758 67.4762 11.1449 66.9608 15.1931L66.9618 15.1941C66.9577 15.2283 67.0265 15.189 67.0552 15.1611C67.2349 15.767 67.3202 16.4029 67.3643 17.0295C67.429 16.2261 67.428 15.4061 67.2544 14.6161C67.2544 14.6134 67.255 14.611 67.2556 14.6086C67.256 14.6066 67.2565 14.6046 67.2565 14.6027C67.2288 14.4776 67.1949 14.3587 67.1579 14.2418C67.1545 14.2309 67.1517 14.22 67.149 14.2092C67.1461 14.1975 67.1432 14.1859 67.1394 14.1746C67.1374 14.1756 67.1364 14.1756 67.1353 14.1756C66.6907 12.8428 65.6444 12.0559 63.6882 11.8532C60.8161 11.5564 56.1481 12.0249 54.1242 12.7756C52.8098 13.2626 51.8313 13.9089 51.5222 14.9501C51.4308 15.3162 51.3784 15.8094 51.4667 16.2509C51.4739 16.2892 51.4832 16.3254 51.4924 16.3595C51.5078 16.4432 51.5253 16.527 51.5448 16.6108C51.5704 16.7193 51.6002 16.8269 51.631 16.9344C51.7142 16.9582 51.7963 16.982 51.8795 17.0068C51.8716 16.9525 51.8655 16.8982 51.8594 16.8434C51.8575 16.8273 51.8557 16.8111 51.8539 16.7948C51.9298 16.8041 52.0151 16.7876 52.1106 16.7379ZM68.4749 18.4863L68.461 18.5682L68.46 18.5671C68.4333 18.7264 68.4025 18.8804 68.3696 19.0304C68.9611 19.7811 69.7394 20.2567 69.7394 20.2567C69.3409 19.5219 69.2716 18.9672 69.1971 18.3707C69.1353 17.8761 69.0699 17.3526 68.8101 16.6738C68.6984 17.1734 68.5972 17.7678 68.4753 18.4838L68.4752 18.4846L68.4751 18.485L68.475 18.4859L68.4749 18.4863ZM70.1204 12.6174C69.5895 12.0455 68.4487 12.0218 67.9229 12.6174C68.0097 12.6068 68.096 12.5953 68.182 12.5838L68.1821 12.5838L68.1823 12.5837L68.1824 12.5837C68.4677 12.5456 68.7504 12.5077 69.0422 12.5077C69.2849 12.5071 69.5191 12.5393 69.7545 12.5717C69.8756 12.5883 69.9972 12.6051 70.1204 12.6174ZM63.7755 10.9495C65.0118 10.9764 66.244 11.0363 67.4752 11.1459V11.1449C68.5462 11.2411 69.6111 11.3786 70.6769 11.5172C69.4889 11.2535 68.2926 11.0301 67.084 10.8843C65.8497 10.7354 64.6042 10.6393 63.3596 10.631C62.3687 10.6248 61.385 10.6517 60.3962 10.7065C58.1053 10.8337 55.8359 11.24 53.6087 11.7633C53.742 11.7445 53.8752 11.7256 54.0084 11.7068C55.0636 11.5577 56.1165 11.4089 57.176 11.2886C59.3611 11.0405 61.575 10.9019 63.7755 10.9495ZM33.2259 71.352C33.1982 70.3107 32.6622 69.0151 32.0799 68.2199C33.4241 69.0906 33.6582 70.0553 33.2259 71.352ZM37.7738 70.3965C37.7738 70.3965 37.9802 69.2798 37.7923 68.6552L37.7892 68.6511C38.4373 69.1857 38.8211 70.3308 39.1681 71.3656C39.4351 72.1622 39.6802 72.8935 40.0072 73.2308C39.694 72.688 39.6513 72.0836 39.6102 71.5034C39.5726 70.9706 39.5363 70.4582 39.2935 70.0326C39.0485 69.6031 38.9877 69.3191 38.9353 69.0741C38.8791 68.8119 38.8326 68.5944 38.5799 68.2913C38.0911 67.705 37.7522 66.7402 37.7337 65.6235C37.7337 65.6235 36.9636 66.9098 37.0201 67.9128C36.823 67.0927 36.4895 66.3498 36.166 65.6289C35.8103 64.8364 35.4665 64.0704 35.3289 63.2576C35.3289 63.2576 34.9161 65.5852 35.3669 66.399C34.0505 65.6038 33.0359 62.7086 32.961 61.4409C32.5472 62.4056 32.6601 63.7871 33.2238 65.0362C32.2278 64.3547 31.3078 61.2516 31.2698 60.381C30.9504 61.0614 31.1383 62.935 31.6641 63.8625C30.5746 63.0302 29.2027 59.1122 29.3906 58.0906C29.0713 58.7524 28.5825 59.8691 28.9399 60.929C27.455 58.923 27.8114 54.9296 28.6575 53.208C28.6575 53.208 27.2671 54.5139 27.2856 55.6493C27.2856 55.6493 25.9887 51.8834 25.312 51.3343C25.2925 52.0157 25.2555 53.757 26.7024 54.8355C24.7945 54.4133 24.4848 52.9507 24.2361 51.7762C24.1395 51.3199 24.0521 50.9071 23.8837 50.6157C23.8837 50.6157 23.3949 52.8492 23.8272 54.06C23.0376 53.0384 22.7182 51.7138 23.0756 50.1617C23.4329 48.6097 23.6393 46.8115 23.3015 45.9036C23.3099 46.1376 23.1369 46.4511 22.9271 46.8313C22.6789 47.2809 22.3793 47.8238 22.2674 48.439C20.6892 45.7899 20.1439 42.6671 20.99 41.021C19.9755 41.7593 18.923 43.9348 18.9415 46.1869C18.9415 46.1869 18.0779 43.6691 18.9795 41.418C19.3628 40.4609 19.8176 39.7431 20.2037 39.1337C20.7257 38.3098 21.1221 37.6842 21.0465 36.9335C20.9313 37.4977 20.4796 37.924 19.9973 38.3793C19.3791 38.9629 18.7105 39.594 18.6355 40.6239C18.3014 39.5644 18.7909 38.653 19.3094 37.6875C19.717 36.9285 20.1425 36.136 20.2004 35.2118C19.5237 35.5717 18.96 36.8197 18.81 37.861C18.1245 35.505 19.6137 33.4975 20.6125 32.1509C21.0095 31.6157 21.3291 31.185 21.4038 30.8782C21.4038 30.8782 20.4263 31.2184 20.0505 31.692C20.1179 31.1467 20.5674 30.6893 21.1328 30.1141C21.9804 29.2518 23.0882 28.1248 23.5582 26.04C23.3836 30.7076 21.3915 32.7271 20.4766 33.5719C21.717 33.0921 22.9195 31.6413 23.3333 30.4936C23.283 31.3394 23.1197 32.1966 22.2808 33.0548C21.4408 33.912 20.643 35.6844 20.4766 36.6626C20.4766 36.6626 21.5414 34.9719 22.4687 34.0506C22.4687 34.0506 21.791 35.9191 21.6421 37.2426C21.7051 37.0468 21.8858 36.7512 22.1124 36.3804C22.5177 35.7174 23.0699 34.814 23.359 33.8107C23.359 33.8107 23.283 35.9553 22.8199 36.8507C23.2506 36.4631 23.4944 35.6538 23.7189 34.9089C23.8669 34.4177 24.0064 33.9545 24.1856 33.6587C24.0661 34.0394 24.0585 34.6159 24.0494 35.301C24.0315 36.6593 24.008 38.4449 23.0961 39.9797C22.2263 41.4449 21.3679 43.5181 21.9501 45.3918C21.9156 45.0435 22.1794 44.5309 22.4669 43.972C22.8044 43.3161 23.1746 42.5966 23.1341 42.0043C23.6331 42.8191 23.805 44.0749 23.9623 45.2243C24.0717 46.0237 24.174 46.7717 24.3745 47.284C24.3117 46.6615 24.4217 46.0357 24.5457 45.3302C24.7195 44.3413 24.9209 43.1957 24.7123 41.6827C24.7123 41.6827 25.2196 43.6691 25.6704 44.8427C25.8658 45.3503 25.959 45.9215 26.0566 46.5196C26.1847 47.3044 26.3204 48.1356 26.7044 48.9302C26.689 48.7615 26.7107 48.4503 26.7369 48.073C26.7755 47.5184 26.824 46.8211 26.7794 46.2242C26.7491 45.8188 26.6419 45.5833 26.5337 45.3454C26.3742 44.9948 26.2123 44.639 26.2906 43.726C26.422 42.1925 26.3532 39.6633 26.3532 39.6633C26.3532 39.6633 25.6509 40.7604 25.501 41.9464C25.501 41.9464 25.3007 40.2692 25.6016 39.2848C25.7373 38.8412 25.9979 38.4023 26.2533 37.9721C26.5641 37.4487 26.8673 36.9379 26.9293 36.4464C26.7414 36.8125 25.7382 37.86 25.0245 37.6201C25.9587 37.2848 26.4629 35.5185 26.8694 34.0941C27.0134 33.5896 27.1452 33.128 27.2794 32.7881C27.555 32.0904 27.9569 31.6219 28.3263 31.1912C28.6452 30.8194 28.9399 30.4759 29.1083 30.0376C29.0544 30.0733 28.9886 30.1154 28.913 30.1638C28.2685 30.5764 26.9105 31.4459 26.1201 32.6981C26.1766 31.4159 27.605 30.0252 28.7324 29.3623C29.8599 28.6995 31.4762 27.0151 32.0779 26.1258C31.561 27.9588 30.7148 29.2437 30.0617 30.2354C29.6224 30.9025 29.2704 31.4369 29.1647 31.9164C29.1647 31.9164 30.2172 31.4811 30.9874 30.1947C30.9874 30.1947 30.6485 31.6899 29.559 32.8253C28.4685 33.9606 28.0804 35.5375 28.0804 35.5375C28.0804 35.5375 28.7694 35.2594 29.5837 34.1747C29.5837 34.1747 29.1709 35.4486 28.3063 36.4961C27.4417 37.5425 27.2035 38.956 27.2538 40.0914C27.3411 39.625 29.5837 35.9408 29.5837 35.9408C29.5837 35.9408 28.794 38.0347 28.105 39.927C27.416 41.8203 27.2415 43.9266 27.5166 44.7972C27.5225 44.3212 27.8628 43.5476 28.2332 42.7055C28.6481 41.7625 29.1008 40.7336 29.1637 39.9404C29.4035 40.9182 29.1439 41.8792 28.9074 42.7543C28.7915 43.1832 28.6812 43.5915 28.638 43.971C28.5065 45.125 28.7951 47.6987 28.7951 47.6987C28.7951 47.6987 29.5375 46.6626 29.4841 46.1725C29.6591 47.2365 29.4227 48.2068 29.1796 49.2048C29.0048 49.9224 28.8264 50.6544 28.7951 51.446C28.7951 51.446 29.7593 50.171 29.7973 49.4617C29.9239 50.3374 29.7854 51.1454 29.6491 51.9408C29.4892 52.8737 29.3322 53.7893 29.6094 54.7766C29.7726 53.2369 30.8755 51.0551 31.5891 50.3861C30.4873 52.9091 31.4515 56.0381 32.0029 56.7195C31.778 55.4838 31.928 53.3765 32.1159 52.7334C32.1835 53.3831 32.4623 53.9969 32.7505 54.6313C32.9434 55.056 33.1405 55.49 33.2813 55.9502C33.447 56.4937 33.4922 57.3248 33.5377 58.1607C33.5884 59.0917 33.6394 60.0286 33.8574 60.5806C33.8574 60.5806 33.8697 59.7482 34.1706 59.3066C34.1706 60.0511 34.7097 61.7924 34.7097 61.7924C34.7097 61.7924 34.9356 59.9126 34.5721 58.891C34.2086 57.8693 33.8071 56.7216 34.033 55.4218C34.1235 56.0776 34.4363 56.75 34.7432 57.4098C34.9028 57.7528 35.0608 58.0925 35.1851 58.4246C35.3369 58.8302 35.4056 59.5792 35.478 60.3682C35.5789 61.4683 35.687 62.6463 36.0374 63.0798C35.8238 62.386 36.0374 60.2672 36.175 59.5352C36.5264 60.6448 36.5266 60.6469 36.5939 61.5802L36.6011 61.6797C36.6315 62.0992 36.728 62.3796 36.8378 62.6987C36.9986 63.1662 37.1879 63.7167 37.2398 64.909C37.2398 64.909 37.6906 63.2938 37.515 61.8938C37.779 62.2319 37.8794 62.5614 37.9907 62.9266C38.1118 63.3242 38.2459 63.764 38.6178 64.303C38.8504 64.6399 39.0131 65.0057 39.1743 65.368C39.5079 66.1177 39.8349 66.8526 40.7598 67.2862C40.1231 66.3004 39.9847 65.1581 39.8645 64.1665C39.7933 63.5782 39.7284 63.043 39.5697 62.6248C39.62 63.2938 39.2689 64.2906 39.2689 64.2906C39.2689 64.2906 38.7924 62.5369 38.1034 61.8431C37.4144 61.1493 37.1515 60.1525 37.0386 59.2312C37.0386 59.2312 37.8405 60.4927 38.5922 60.6943C37.1772 59.1422 36.751 56.0763 37.0766 54.79C36.5508 55.2946 35.9994 56.7702 35.9994 58.3729C35.8372 57.3653 35.4287 56.6406 35.0888 56.0376C34.8501 55.6141 34.6452 55.2506 34.5834 54.8914C34.5416 54.6489 34.5205 54.281 34.4957 53.8493C34.4315 52.7311 34.3427 51.185 33.8071 50.2837C33.8548 50.9355 33.6598 51.8017 33.4704 52.6435C33.3987 52.9621 33.3278 53.2774 33.2711 53.5761C33.3032 52.1362 32.9292 51.1662 32.5914 50.29C32.3344 49.6233 32.0983 49.0109 32.0779 48.287C32.0779 48.287 31.4762 49.4224 30.8375 49.744C31.2133 49.1194 32.0964 46.3193 31.9269 45.278C31.852 45.6947 31.1558 46.8301 30.4596 47.3347C31.3128 44.2603 31.368 41.5704 31.4045 39.796L31.4045 39.7958L31.4045 39.7955C31.4108 39.4879 31.4166 39.2079 31.4258 38.9581C31.4258 38.9581 30.4863 40.8628 30.3856 42.6165C29.4964 40.9382 30.9751 36.1187 32.1898 34.2791C32.1898 34.2791 31.9762 38.0233 32.5276 39.0832C32.5276 39.0832 32.7782 37.8341 33.1294 37.3678C33.0487 38.1467 33.1059 39.1228 33.1632 40.1017C33.222 41.1044 33.2809 42.1101 33.192 42.9101C33.192 42.9101 33.843 41.8037 33.7907 40.8503C33.8351 41.191 33.9193 41.548 34.0092 41.9291C34.2742 43.0529 34.5889 44.3871 34.0813 46.1352C34.6707 45.3535 35.1964 43.6877 34.9459 42.9101C35.39 43.2705 35.4651 43.9496 35.5433 44.6563C35.6084 45.2452 35.6757 45.8533 35.9604 46.3121C35.9604 46.3121 36.3031 45.6554 36.1502 45.1477C36.9342 47.5414 38.1686 48.6222 39.7977 49.3014C37.8518 47.8093 36.4933 45.5965 35.6616 42.6123C33.9324 41.0272 33.8328 39.7739 35.1143 36.1714C35.1132 36.1601 35.1122 36.1493 35.1112 36.1385L35.1112 36.1383L35.1112 36.1381C35.1101 36.1273 35.1091 36.1165 35.1081 36.1052C35.086 36.0548 35.0604 36.0096 35.0342 35.9633C34.9969 35.8975 34.9583 35.8294 34.9263 35.7402C34.9263 35.7402 34.876 35.9863 34.1244 36.5881C34.1244 36.5881 34.7066 35.0412 34.6891 33.6784C34.4273 33.7549 33.767 34.5873 33.4292 35.855C33.0862 34.1664 33.9375 32.2369 34.8042 31.4645C34.8668 30.1172 35.1913 28.8691 36.0887 27.6179C36.0487 26.5891 36.3506 25.5106 36.9205 24.4942C35.0855 24.5314 32.8644 24.3711 31.5604 23.7186C31.3601 23.6183 31.1681 23.5129 30.9802 23.4043C30.7738 23.6824 30.6732 23.8696 30.6732 23.8696C30.7389 23.6887 30.8097 23.5149 30.8837 23.3485C29.6135 22.5905 28.6544 21.5948 28.0958 20.0385C27.7723 20.5163 27.3308 20.935 26.7681 21.237C26.7431 21.2504 26.7182 21.2637 26.6935 21.2769C25.8429 21.7325 25.1324 22.113 24.1465 23.9337C24.1465 23.9337 24.3345 22.2307 24.7483 21.6444C24.7964 21.5762 24.8542 21.4972 24.9188 21.4089L24.919 21.4087C25.4096 20.7384 26.2917 19.5333 26.3081 18.4461C26.1951 18.9383 24.8232 21.0953 23.8272 21.3952C24.0203 21.2724 24.3299 20.6769 24.7521 19.8648C25.3398 18.7341 26.1457 17.1838 27.1593 15.9056C26.8625 15.0266 26.4282 14.5489 25.5194 14.2098C25.3182 13.8023 25.1498 12.7549 25.0543 12.0517C24.3807 12.5367 23.8118 13.3091 23.5931 13.7155C23.5366 12.9782 24.4012 11.634 25.2843 11.057C26.1674 10.48 26.956 9.58146 27.0597 9.26919C26.8026 9.30815 26.2651 9.74829 25.7419 10.1767C25.2515 10.5782 24.7737 10.9695 24.5511 11.0105C25.0019 10.5472 25.885 9.31675 25.9415 8.91038C25.9415 8.91038 23.8652 10.3859 23.4514 11.1149C23.4514 11.1149 23.5736 10.0085 24.316 9.3364C23.8549 9.42119 22.4461 10.0933 22.0323 10.4811C22.2962 9.86685 22.9729 9.0903 23.5643 8.88246C21.1595 9.10639 20.5147 10.7089 20.083 11.7819C19.9665 12.0715 19.8655 12.3225 19.7496 12.4974C19.8061 12.2443 19.82 11.9752 19.8355 11.6759C19.8612 11.1804 19.8911 10.602 20.1254 9.87616C20.3796 9.08867 20.9861 8.68243 21.5789 8.28538C21.8626 8.09538 22.1431 7.90749 22.3804 7.68092C22.3804 7.68092 21.6482 7.66128 21.3566 7.76571C22.1029 6.90807 23.2297 6.94753 23.9999 6.9745C24.3255 6.9859 24.5873 6.99507 24.7298 6.93332C24.3437 6.94263 23.7245 6.62105 23.63 6.42252C24.2012 6.48391 24.5034 6.44563 24.803 6.40768C25.1492 6.36381 25.492 6.32039 26.2423 6.43182C26.8995 6.52941 27.594 6.79206 28.2141 7.02655C28.9146 7.29144 29.52 7.52039 29.8691 7.43483C29.572 7.41238 29.2708 7.21923 28.9595 7.01957C28.6111 6.79621 28.2501 6.5647 27.8678 6.55487C28.4639 6.43215 28.8645 6.5083 29.2837 6.58795C29.7368 6.67408 30.2116 6.7643 30.9781 6.61174C30.6666 6.49818 30.4117 6.22191 30.115 5.90029C29.6957 5.4459 29.1929 4.90098 28.3289 4.59643C28.4291 4.69735 28.5349 4.85142 28.6567 5.0288C28.9229 5.41666 29.2657 5.91597 29.7942 6.21468C29.2525 6.12258 28.7687 5.87645 28.2866 5.6312C27.9243 5.44689 27.563 5.26307 27.1788 5.1455C27.1788 5.1455 27.7302 5.73179 27.8678 6.04406C26.9652 5.41951 25.7916 5.19203 25.0676 5.5043C24.8635 5.59247 24.571 5.68673 24.2418 5.79279C23.405 6.0624 22.3315 6.40826 21.8731 6.92402C21.6038 7.22658 21.3113 7.46885 21.0167 7.71293C20.6115 8.04858 20.2021 8.38768 19.843 8.89177C19.5115 9.35725 19.5289 9.70392 19.548 10.0847C19.5646 10.4162 19.5825 10.7735 19.3728 11.2576C18.922 12.2978 19.2044 12.9038 19.843 14.0391C20.1601 14.6017 20.2229 15.1552 20.2788 15.6479C20.3358 16.1496 20.3856 16.5883 20.6892 16.9096C20.6892 16.9096 20.6768 15.1311 20.9274 14.2604C20.9274 14.2604 21.0783 15.8756 21.4788 16.5942C21.4788 16.5942 22.2171 14.7909 22.0302 14.1973C22.0302 14.1973 22.6309 15.6357 22.1801 16.7328C22.5057 16.2664 23.6331 14.8033 24.1845 14.7019C23.7584 14.9036 22.9318 16.6955 22.9318 16.6955C22.9318 16.6955 23.7717 16.1661 24.6733 15.4971C24.6733 15.4971 23.6958 16.9985 22.9195 17.8061C22.1421 18.6137 21.6041 19.3199 20.8771 20.9226C21.7294 20.6579 23.1269 19.5877 23.4082 18.9549C23.2707 19.4967 22.0805 21.4024 21.4542 21.9949C21.1708 22.2634 20.8849 22.6662 20.5535 23.133C20.1523 23.6979 19.6846 24.3568 19.0739 24.9853C19.2148 24.8664 19.4947 24.6818 19.8043 24.4778C20.3479 24.1194 20.9829 23.7008 21.1163 23.4715C20.8524 24.0516 19.688 25.3379 19.2619 25.7546C20.1613 25.5134 20.6608 24.949 21.1242 24.4254C21.6457 23.8361 22.1215 23.2985 23.0704 23.3319C23.0704 23.3319 22.0056 23.6411 21.4418 24.9409C21.0629 25.8146 20.4798 26.1725 19.773 26.6063C19.4283 26.8178 19.0543 27.0473 18.6601 27.3636C17.8687 27.999 17.4869 28.5504 17.1549 29.03C17.0449 29.1888 16.9404 29.3398 16.8282 29.4833C17.0169 29.4215 17.2235 29.2856 17.4275 29.1512C17.691 28.9779 17.9503 28.8071 18.1621 28.8019C18.1423 28.8353 18.0312 28.9626 17.8669 29.1508C17.3338 29.762 16.2403 31.0152 15.8887 31.782C16.1098 31.5141 16.5377 31.2694 17.0147 30.9965C17.8359 30.5269 18.8028 29.9739 19.1119 29.0759C19.1119 29.0759 18.9517 30.7221 17.89 31.4035C16.8282 32.0849 15.8353 33.8603 15.785 34.5924C15.785 34.5924 17.279 33.0693 17.739 32.8801C17.739 32.8801 16.7235 34.8396 16.132 35.6906C15.8316 36.1228 15.7468 36.5478 15.6635 36.9656C15.5827 37.3705 15.5033 37.7685 15.2305 38.1598C15.2305 38.1598 16.4052 37.0141 16.4986 36.4278C16.4986 36.4278 16.6301 38.4618 16.132 39.2569C16.132 39.2569 16.5828 38.6324 16.8806 38.56C16.8806 38.56 16.3045 39.6581 16.3549 40.6167C16.4052 41.5762 16.0797 42.421 15.5159 43.3548C16.5315 42.5854 17.7206 40.932 17.621 39.8856C17.9711 41.9671 17.3324 43.6825 16.894 44.364C16.4555 45.0454 16.3425 46.6471 17.0069 48.0223C16.8827 47.3423 17.1223 46.6167 17.3653 45.881C17.5642 45.2787 17.7653 44.6697 17.7709 44.0734C17.7709 44.0734 18.0717 45.9657 17.8089 47.2396C17.546 48.5145 17.6713 49.6747 17.9968 50.7977C17.9968 50.7977 18.2607 48.9561 18.5277 48.5269C18.4948 49.0315 18.924 52.2742 19.8389 52.905C19.4005 51.8834 19.5761 47.0255 20.0895 46.0546C22.2448 51.1513 21.5178 56.3235 21.5178 56.3235C21.5178 56.3235 22.7583 54.5574 22.633 53.573C23.0591 54.2172 24.1743 58.3171 24.049 59.4524C24.4371 58.7203 24.9629 55.7299 24.8253 55.0237C25.2761 55.3773 25.3757 56.6006 25.351 58.1527C25.336 59.0624 25.9454 60.358 26.4625 61.4573C26.8276 62.2335 27.1467 62.9119 27.1675 63.2876C27.4477 62.3905 27.1658 61.4694 26.8774 60.5272C26.5602 59.4908 26.2352 58.4289 26.6418 57.3451C26.6295 58.4556 27.7477 60.4709 28.3207 61.1524C28.8936 61.8338 29.5231 64.8387 29.786 66.5676C29.9236 65.8737 29.9236 63.1491 29.6915 61.9568C29.7932 62.2959 30.0602 62.6824 30.3808 63.1465C31.0086 64.0553 31.8418 65.2614 32.0409 66.9905C32.0409 66.9905 32.4927 66.1767 32.3233 64.909C32.4672 65.4474 32.7398 65.7912 33.026 66.1522C33.4137 66.6412 33.8263 67.1616 33.9775 68.2396C33.9775 68.2396 34.3903 67.218 34.0525 66.0257C34.5413 66.4797 35.9131 68.5994 36.3075 71.7408C36.3075 71.7408 36.8712 69.5269 35.9316 67.5395C35.9316 67.5395 37.3035 69.0337 37.7738 70.3965ZM36.6429 51.5328C36.6522 51.9618 36.6611 52.375 36.7901 52.7778H36.7911C36.7254 52.4633 36.9542 52.0731 37.1768 51.6934C37.3195 51.4502 37.4596 51.2113 37.5181 50.9993C37.704 50.3272 37.5674 49.6489 37.4175 49.1194C37.4175 49.8257 37.0663 51.0748 37.0663 51.0748C37.1033 49.5486 36.9236 48.9302 36.3496 48.3119C35.7755 47.6935 35.1995 47.0255 35.2241 45.8519C35.2172 45.9332 35.2101 46.0124 35.2031 46.0899C35.1084 47.142 35.0423 47.8749 35.9758 49.1443C36.61 50.0067 36.627 50.7934 36.6429 51.5328ZM39.9209 68.3193C39.6607 68.0759 39.3624 67.7969 39.0039 67.3679C39.4928 68.2022 39.8966 69.0768 40.2766 69.8998C40.7801 70.9905 41.2417 71.9905 41.8041 72.6859C41.6739 72.3949 41.6018 72.0207 41.52 71.5962C41.4128 71.04 41.2889 70.3975 40.996 69.743C40.6747 69.0244 40.3493 68.7201 39.9209 68.3193ZM41.3492 62.3954C41.4709 62.7219 41.5664 62.9782 41.7507 62.8833V62.8844C41.9191 62.7985 41.7384 61.9879 41.225 61.3954C40.8226 60.9311 40.8656 60.4902 40.9094 60.0425C40.9215 59.9179 40.9338 59.7928 40.9365 59.6665C40.7229 59.8805 40.535 61.1679 40.9488 61.6218C41.138 61.8289 41.252 62.1346 41.3492 62.3954ZM42.4993 73.6506C42.3771 74.1428 42.3679 74.5502 42.6123 75.0042V75.0031C42.7105 75.1859 42.8844 75.338 43.0879 75.5159C43.3908 75.7808 43.7593 76.1029 44.0406 76.6689C44.0406 76.6689 43.9554 75.5801 43.3167 75.1169C42.678 74.6536 42.5373 74.0291 42.4993 73.6506ZM44.0683 70.7171C44.3692 71.1721 44.3569 71.6012 44.1895 72.9506C44.1895 72.9506 44.9699 71.0201 44.5817 70.5785C44.1936 70.137 44.093 69.6696 44.2809 69.3294C43.9307 69.62 43.7675 70.2632 44.0683 70.7171ZM44.0642 61.4378C44.7656 62.2484 44.858 62.4666 44.708 63.2742C45.0459 62.9464 45.4217 61.5081 45.1085 60.7129C44.7953 59.9177 44.7204 58.4422 44.8703 57.7608C44.4688 58.3667 44.169 60.0573 44.5068 61.0035C44.5068 61.0035 43.6175 59.9932 43.2294 59.2115C43.2294 59.2115 43.3177 60.5744 44.0642 61.4378ZM46.7453 70.7554C47.768 71.5753 47.8902 73.115 47.5267 74.0859C48.1531 73.7323 48.1654 71.3354 47.4261 70.3262C46.6868 69.317 46.5995 68.5849 46.925 67.0711C46.2617 67.7908 45.7226 69.9354 46.7453 70.7554ZM49.1553 76.306C49.1553 76.306 49.2672 74.9814 49.9942 74.0859C50.7212 73.1905 50.9215 72.446 50.9215 71.4616C50.9215 71.4616 50.634 72.5463 49.7067 73.7323C48.7795 74.9183 49.1553 76.306 49.1553 76.306ZM51.3599 56.1332C51.0714 55.1995 51.4226 54.3547 51.4226 54.3547V54.3537C51.1378 54.0301 51.3662 52.834 51.6734 52.4631C50.4833 53.8572 50.5238 54.9141 51.3599 56.1332ZM52.588 76.1168C53.4906 75.3981 53.4906 74.5275 53.4403 73.6506C53.39 72.7738 53.8161 72.0923 53.8161 72.0923C52.82 72.9895 52.8941 73.6941 52.9508 74.2333C52.9555 74.2777 52.96 74.3209 52.9639 74.3631C53.0327 75.1169 52.588 76.1168 52.588 76.1168ZM52.3632 71.84C52.3632 71.84 54.117 70.4524 53.8161 69.3294V69.3305C53.5153 68.2075 53.8161 67.4754 54.3172 66.3907C53.6026 67.1218 53.0265 67.9924 53.2021 69.2415C53.3317 70.1607 52.9285 70.8579 52.5415 71.5272C52.481 71.6319 52.4208 71.7359 52.3632 71.84ZM53.6427 63.4374L53.6406 63.4386L53.6416 63.4376L53.6427 63.4374ZM53.6427 63.4374C53.8319 63.331 54.2911 62.5012 54.1663 61.5081C54.041 60.5113 54.118 59.8381 54.995 58.9675C54.4487 59.9239 54.5041 61.4316 54.6551 61.8483C54.6551 61.8483 55.2815 60.4989 56.0588 60.5868C55.7333 60.6374 55.2568 61.2806 55.0443 61.8731C54.8318 62.4653 54.4931 63.3355 53.6427 63.4374ZM54.8027 71.5963C54.7209 72.0207 54.6488 72.3949 54.5185 72.6859C55.0808 71.99 55.5424 70.9903 56.0458 69.9C56.4259 69.077 56.8297 68.2023 57.3187 67.3679C56.9602 67.7969 56.662 68.076 56.4018 68.3196C55.9733 68.7206 55.648 69.0251 55.3266 69.743C55.0338 70.398 54.9099 71.0403 54.8027 71.5963ZM63.0978 71.352C62.6655 70.0553 62.9006 69.0906 64.2437 68.2199C63.6615 69.0151 63.1255 70.3107 63.0978 71.352ZM79.8219 36.4461C79.8103 36.65 79.7192 38.5059 80.1896 39.2569C80.1896 39.2569 79.7388 38.6324 79.441 38.56C79.441 38.56 80.0171 39.6571 79.9668 40.6167C79.9165 41.5752 80.242 42.421 80.8057 43.3548C79.7912 42.5854 78.6021 40.932 78.7007 39.8856C78.3495 41.9671 78.9892 43.6825 79.4277 44.364C79.8661 45.0454 79.9791 46.6471 79.3147 48.0223C79.4389 47.3423 79.1993 46.6167 78.9563 45.881C78.7574 45.2787 78.5563 44.6696 78.5507 44.0734C78.5507 44.0734 78.2499 45.9657 78.5128 47.2396C78.7756 48.5135 78.6503 49.6747 78.3248 50.7977C78.3248 50.7977 78.062 48.9561 77.794 48.5269C77.8268 49.0315 77.3976 52.2742 76.4827 52.905C76.9211 51.8834 76.7456 47.0255 76.2321 46.0546C74.0768 51.1513 74.8038 56.3235 74.8038 56.3235C74.8038 56.3235 73.5634 54.5574 73.6887 53.573C73.2625 54.2161 72.1474 58.3171 72.2726 59.4524C71.8845 58.7203 71.3577 55.731 71.4963 55.0237C71.0456 55.3773 70.9449 56.6006 70.9706 58.1527C70.985 59.0619 70.3764 60.3562 69.8597 61.4551C69.4943 62.232 69.1749 62.9112 69.1541 63.2876C68.8745 62.3909 69.1564 61.4702 69.4446 60.5284C69.762 59.4916 70.0872 58.4293 69.6798 57.3451C69.6922 58.4556 68.5739 60.4709 68.001 61.1524C67.428 61.8338 66.7985 64.8397 66.5356 66.5676C66.3981 65.8737 66.3981 63.1491 66.6291 61.9568C66.5274 62.2959 66.2603 62.6826 65.9397 63.1468C65.3119 64.0559 64.4788 65.2622 64.2797 66.9905C64.2797 66.9905 63.8289 66.1767 63.9973 64.909C63.8537 65.4477 63.5811 65.7917 63.2948 66.1529C62.9073 66.6417 62.4948 67.1622 62.3431 68.2396C62.3431 68.2396 61.9292 67.218 62.2681 66.0257C61.7793 66.4797 60.4075 68.5994 60.0131 71.7408C60.0131 71.7408 59.4494 69.5269 60.389 67.5395C60.389 67.5395 59.0171 69.0347 58.5468 70.3965C58.5468 70.3965 58.3404 69.2798 58.5283 68.6552C57.8813 69.1895 57.4977 70.3333 57.151 71.3676C56.8836 72.165 56.638 72.8973 56.3103 73.2349C56.6242 72.6919 56.6668 72.0872 56.7077 71.5067C56.7452 70.9742 56.7813 70.4622 57.024 70.0367C57.2691 69.607 57.3301 69.3231 57.3827 69.0781C57.439 68.8162 57.4856 68.5989 57.7377 68.2954C58.2264 67.7091 58.5643 66.7433 58.5838 65.6276C58.5838 65.6276 59.3539 66.9139 59.2974 67.917C59.4946 67.0969 59.828 66.354 60.1515 65.633C60.5072 64.8405 60.851 64.0745 60.9886 63.2618C60.9886 63.2618 61.4025 65.5894 60.9507 66.4031C62.266 65.608 63.2806 62.7127 63.3566 61.445C63.7704 62.4097 63.6574 63.7912 63.0937 65.0403C64.0897 64.3589 65.0108 61.2558 65.0478 60.3851C65.3671 61.0666 65.1792 62.9402 64.6534 63.8667C65.7429 63.0343 67.1148 59.1164 66.9269 58.0948C67.2462 58.7576 67.735 59.8733 67.3777 60.9332C68.8625 58.9271 68.5051 54.9348 67.66 53.2121C67.66 53.2121 69.0504 54.5181 69.0319 55.6534C69.0319 55.6534 70.3288 51.8875 71.0055 51.3385C71.024 52.0199 71.062 53.7612 69.6152 54.8397C71.5236 54.4173 71.8335 52.9535 72.0821 51.7789C72.1786 51.323 72.2659 50.9107 72.4338 50.6198C72.4338 50.6198 72.9226 52.8533 72.4903 54.0641C73.28 53.0425 73.5993 51.7179 73.242 50.1659C72.8846 48.6138 72.6782 46.8167 73.0161 45.9078C73.0076 46.142 73.1806 46.4557 73.3906 46.8363C73.6385 47.2857 73.9378 47.8284 74.0501 48.4432C75.6284 45.794 76.1736 42.6713 75.3275 41.0251C76.342 41.7634 77.3945 43.939 77.376 46.1911C77.376 46.1911 78.2406 43.6743 77.338 41.4222C76.9543 40.4648 76.4996 39.7467 76.1136 39.1373C75.5916 38.3132 75.1955 37.6878 75.271 36.9376C75.3862 37.5012 75.8376 37.9274 76.3198 38.3826C76.9382 38.9664 77.607 39.598 77.682 40.628C78.0155 39.5686 77.5263 38.6574 77.0079 37.6919C76.6005 36.9328 76.175 36.1403 76.1171 35.2159C76.7938 35.5758 77.3576 36.8249 77.5075 37.8651C78.1932 35.5086 76.7036 33.5006 75.7046 32.154C75.308 31.6193 74.9887 31.1889 74.9137 30.8824C74.9137 30.8824 75.8912 31.2226 76.2671 31.6961C76.1993 31.151 75.7498 30.6938 75.1846 30.119C74.3368 29.2566 73.2289 28.1295 72.7594 26.0442C72.9349 30.7117 74.927 32.7302 75.8409 33.576C74.6005 33.0962 73.3981 31.6455 72.9842 30.4977C73.0346 31.3425 73.1968 32.2007 74.0368 33.059C74.8757 33.9172 75.6746 35.6895 75.8409 36.6667C75.8409 36.6667 74.7761 34.9761 73.8488 34.0547C73.8488 34.0547 74.5265 35.9232 74.6754 37.2468C74.6124 37.0508 74.4317 36.755 74.2049 36.3838C73.8 35.7209 73.2482 34.8178 72.9586 33.8148C72.9586 33.8148 73.0335 35.9594 73.4977 36.8549C73.0677 36.4674 72.8237 35.6584 72.5991 34.9137C72.4509 34.4223 72.3112 33.9588 72.132 33.6628C72.2519 34.0439 72.2595 34.6211 72.2686 35.3072C72.2865 36.6653 72.31 38.4498 73.2214 39.9838C74.0922 41.4491 74.9506 43.5223 74.3674 45.3959C74.4019 45.0477 74.1382 44.5355 73.8508 43.9768C73.5133 43.3211 73.143 42.6014 73.1834 42.0085C72.6844 42.8232 72.5126 44.079 72.3553 45.2284C72.2459 46.0278 72.1435 46.7758 71.943 47.2882C72.0054 46.6661 71.8955 46.0408 71.7717 45.3359C71.5979 44.3466 71.3965 43.2006 71.6052 41.6869C71.6052 41.6869 71.0979 43.6743 70.6471 44.8469C70.4524 45.3538 70.3592 45.9243 70.2617 46.5216C70.1334 47.3071 69.9975 48.1391 69.6131 48.9343C69.6285 48.7656 69.6068 48.4544 69.5806 48.0771C69.542 47.5225 69.4935 46.8252 69.5381 46.2283C69.5684 45.8229 69.6756 45.5876 69.7838 45.3499C69.9433 44.9995 70.1052 44.6438 70.0269 43.7301C69.8955 42.1967 69.9643 39.6674 69.9643 39.6674C69.9643 39.6674 70.6656 40.7645 70.8166 41.9505C70.8166 41.9505 71.0168 40.2723 70.7159 39.289C70.5801 38.8446 70.3193 38.4054 70.0637 37.9749C69.7531 37.4519 69.4502 36.9418 69.3882 36.4506C69.5761 36.8166 70.5783 37.8631 71.293 37.6242C70.3588 37.289 69.8547 35.5226 69.4481 34.0982C69.3041 33.5937 69.1724 33.1321 69.0381 32.7922C68.7625 32.0946 68.3606 31.626 67.9912 31.1953C67.6723 30.8235 67.3777 30.48 67.2093 30.0417C67.263 30.0773 67.3285 30.1193 67.4038 30.1675L67.4045 30.1679C68.049 30.5806 69.407 31.45 70.1974 32.7022C70.1409 31.42 68.7126 30.0293 67.5851 29.3665C66.4576 28.7037 64.8414 27.0203 64.2396 26.13C64.7567 27.9637 65.603 29.2488 66.2561 30.2407C66.695 30.9073 67.0467 31.4414 67.1528 31.9205C67.1528 31.9205 66.1003 31.4852 65.3301 30.1989C65.3301 30.1989 65.668 31.6941 66.7585 32.8294C67.848 33.9648 68.2371 35.5417 68.2371 35.5417C68.2371 35.5417 67.5481 35.2645 66.7338 34.1788C66.7338 34.1788 67.1477 35.4527 68.0112 36.5002C68.8748 37.5477 69.1141 38.9602 69.0637 40.0955C68.9765 39.6292 66.7338 35.9449 66.7338 35.9449C66.7338 35.9449 67.5235 38.0388 68.2125 39.9311C68.9015 41.8234 69.0771 43.9307 68.8009 44.8014C68.7951 44.3253 68.4547 43.5517 68.0843 42.7097C67.6694 41.7667 67.2167 40.7377 67.1538 39.9445C66.914 40.9223 67.1737 41.8833 67.4101 42.7585C67.526 43.1874 67.6363 43.5957 67.6796 43.9752C67.811 45.1291 67.5225 47.7028 67.5225 47.7028C67.5225 47.7028 66.78 46.6667 66.8334 46.1766C66.6584 47.2406 66.8948 48.2109 67.1379 49.2089C67.3128 49.9266 67.4911 50.6586 67.5225 51.4501C67.5225 51.4501 66.5582 50.1762 66.5203 49.4658C66.3936 50.3409 66.5321 51.1486 66.6684 51.9439C66.8283 52.8768 66.9853 53.7927 66.7082 54.7807C66.5449 53.2421 65.4431 51.0593 64.7284 50.3903C65.8312 52.9133 64.866 56.0422 64.3146 56.7236C64.5405 55.4869 64.3895 53.3806 64.2016 52.7375C64.134 53.3872 63.8552 54.001 63.567 54.6354C63.3741 55.0601 63.177 55.4941 63.0362 55.9543C62.8697 56.4983 62.8244 57.3313 62.7788 58.1688C62.7282 59.0985 62.6773 60.0336 62.4601 60.5847C62.4601 60.5847 62.4478 59.7523 62.1469 59.3108C62.1469 60.0553 61.6078 61.7966 61.6078 61.7966C61.6078 61.7966 61.3819 59.9167 61.7454 58.8951C62.1089 57.8735 62.5094 56.7247 62.2845 55.4259C62.1943 56.0798 61.8826 56.7497 61.5766 57.4076C61.4161 57.7526 61.2571 58.0944 61.1324 58.4287C60.9806 58.8343 60.9119 59.5833 60.8395 60.3724C60.7386 61.4725 60.6305 62.6504 60.2801 63.0839C60.4927 62.3901 60.2801 60.2704 60.1425 59.5393C59.7911 60.649 59.7909 60.651 59.7236 61.5843L59.7164 61.6839C59.686 62.1033 59.5895 62.3837 59.4798 62.7028C59.3189 63.1703 59.1296 63.7208 59.0777 64.9131C59.0777 64.9131 58.6269 63.298 58.8025 61.8979C58.5387 62.2358 58.4385 62.5651 58.3274 62.93C58.2064 63.3278 58.0724 63.7678 57.6997 64.3072C57.4672 64.6441 57.3044 65.0098 57.1432 65.3721C56.8096 66.1218 56.4826 66.8567 55.5577 67.2903C56.1944 66.3045 56.3328 65.1622 56.453 64.1706C56.5243 63.5823 56.5891 63.0471 56.7478 62.629C56.6975 63.298 57.0487 64.2948 57.0487 64.2948C57.0487 64.2948 57.5251 62.5411 58.2141 61.8472C58.9031 61.1534 59.166 60.1566 59.279 59.2353C59.279 59.2353 58.477 60.4968 57.7253 60.6984C59.1414 59.1464 59.5675 56.0805 59.241 54.7942C59.7667 55.2988 60.3181 56.7753 60.3181 58.377C60.48 57.3681 60.889 56.6425 61.2292 56.039C61.4675 55.6164 61.672 55.2536 61.7341 54.8955C61.7763 54.6524 61.7977 54.2828 61.8227 53.8491C61.8872 52.7313 61.9763 51.1878 62.5104 50.2879C62.4626 50.9418 62.6584 51.8116 62.8485 52.6559L62.8486 52.6562L62.8486 52.6563C62.9197 52.972 62.99 53.2842 63.0464 53.5802C63.0144 52.1401 63.3884 51.1697 63.7263 50.2933C63.9832 49.6267 64.2192 49.0144 64.2396 48.2912C64.2396 48.2912 64.8414 49.4265 65.4801 49.7481C65.1042 49.1236 64.2211 46.3224 64.3906 45.2822C64.4655 45.6989 65.1607 46.8342 65.8579 47.3389C65.0048 44.2644 64.9495 41.5745 64.913 39.8001C64.9067 39.4924 64.9009 39.2121 64.8917 38.9622C64.8917 38.9622 65.8312 40.8669 65.9319 42.6206C66.8211 40.9424 65.3435 36.1238 64.1277 34.2833C64.1277 34.2833 64.3403 38.0285 63.7899 39.0873C63.7899 39.0873 63.5393 37.8382 63.1881 37.3719C63.2688 38.1508 63.2116 39.1268 63.1543 40.1056V40.1058C63.0956 41.1085 63.0367 42.1143 63.1255 42.9143C63.1255 42.9143 62.4745 41.8079 62.5269 40.8545C62.4824 41.1952 62.3982 41.5521 62.3083 41.9332C62.0433 43.057 61.7286 44.3912 62.2363 46.1394C61.6479 45.3577 61.1211 43.6918 61.3717 42.9143C60.9275 43.2747 60.8524 43.9538 60.7742 44.6605C60.7091 45.2494 60.6419 45.8575 60.3571 46.3162C60.3571 46.3162 60.0145 45.6598 60.1673 45.1522C59.3791 47.5601 58.1355 48.6387 56.4931 49.318C56.7601 49.1163 57.0168 48.9023 57.2602 48.6748C57.4039 48.5404 57.5302 48.4173 57.6452 48.2974C58.2357 47.6832 58.7676 46.9666 59.2256 46.1663C59.4843 45.7134 59.7215 45.2356 59.93 44.7434C60.2052 44.0941 60.4526 43.3785 60.6642 42.6165C62.3934 41.0313 62.493 39.7781 61.2115 36.1755C61.2146 36.1455 61.2166 36.1176 61.2197 36.0876C61.2396 36.0443 61.2621 36.0044 61.2852 35.9635C61.3217 35.8989 61.3597 35.8317 61.3912 35.7443C61.3912 35.7443 61.4415 35.9904 62.1931 36.5922C62.1931 36.5922 61.6109 35.0443 61.6284 33.6825C61.8902 33.758 62.5505 34.5904 62.8883 35.8591C63.2302 34.1757 62.3852 32.2524 61.5206 31.4759C61.4589 30.1255 61.1345 28.8763 60.236 27.6221C60.277 26.5943 59.9752 25.5158 59.4063 24.5004C61.2104 24.5262 63.3442 24.3566 64.6124 23.7228C64.8506 23.6039 65.0786 23.4787 65.2983 23.3474C65.5355 23.6597 65.6515 23.8737 65.6515 23.8737C65.5766 23.6659 65.4955 23.4684 65.4082 23.2792C66.7266 22.4633 67.697 21.3735 68.2125 19.627C68.5401 20.2743 69.0627 20.8534 69.7836 21.239C69.8074 21.2518 69.8311 21.2645 69.8547 21.2771C70.7069 21.7326 71.4179 22.1126 72.4051 23.9358C72.4051 23.9358 72.2172 22.2327 71.8034 21.6465C71.7552 21.5782 71.6973 21.4991 71.6326 21.4108C71.142 20.7404 70.2599 19.5354 70.2436 18.4482C70.3565 18.9404 71.7284 21.0974 72.7244 21.3973C72.5319 21.2746 72.2231 20.6804 71.8019 19.87C71.1649 18.6446 70.2709 16.9246 69.1336 15.5933C69.4283 14.9098 69.8606 14.5076 70.6543 14.2108C70.8638 13.7858 71.0384 12.6629 71.1308 11.9628C71.8619 12.4364 72.4913 13.2833 72.7244 13.7165C72.7809 12.9782 71.9163 11.635 71.0332 11.058C70.1502 10.4811 69.3605 9.58249 69.2578 9.27022C69.5151 9.30922 70.0534 9.74981 70.577 10.1785C71.0669 10.5795 71.544 10.97 71.7664 11.0115C71.3156 10.5483 70.4325 9.31778 70.3761 8.91141C70.3761 8.91141 72.4523 10.387 72.8661 11.116C72.8661 11.116 72.744 10.0085 72.0015 9.33743C72.4616 9.42222 73.8714 10.0943 74.2852 10.4821C74.0224 9.86685 73.3457 9.09133 72.7532 8.88349C75.1584 9.10746 75.803 10.7099 76.2348 11.7831C76.3512 12.0725 76.4521 12.3234 76.5679 12.4984C76.5115 12.2453 76.4975 11.9763 76.482 11.677C76.4564 11.1814 76.4264 10.6031 76.1921 9.87719C75.9379 9.0897 75.3314 8.68347 74.7386 8.28641C74.455 8.09641 74.1744 7.90852 73.9371 7.68196C73.9371 7.68196 74.6703 7.66335 74.9609 7.76675C74.2146 6.90911 73.0878 6.94857 72.3176 6.97554C71.992 6.98694 71.7302 6.99611 71.5877 6.93436C71.9728 6.94366 72.593 6.62208 72.6875 6.42355C72.1164 6.48494 71.8144 6.44667 71.515 6.40872C71.1689 6.36485 70.8261 6.32142 70.0752 6.43286C69.4179 6.53047 68.723 6.7932 68.1027 7.02771C67.4022 7.29255 66.7969 7.52141 66.4484 7.43586C66.7455 7.41341 67.0467 7.22027 67.3581 7.0206C67.7064 6.79725 68.0675 6.56573 68.4497 6.55591C67.8537 6.43318 67.453 6.50933 67.0338 6.58899C66.5807 6.67511 66.1059 6.76533 65.3394 6.61278C65.651 6.49918 65.9061 6.22278 66.2031 5.90104C66.6225 5.44671 67.1254 4.90195 67.9886 4.59746C67.8884 4.69838 67.7827 4.85244 67.6609 5.02981C67.3946 5.41767 67.0518 5.917 66.5233 6.21571C67.065 6.12362 67.5488 5.87749 68.0309 5.63223C68.3932 5.44792 68.7545 5.2641 69.1387 5.14653C69.1387 5.14653 68.5873 5.73282 68.4497 6.0451C69.3513 5.42055 70.526 5.19306 71.2499 5.50534C71.454 5.59338 71.7462 5.68743 72.0749 5.79323C72.912 6.06266 73.9858 6.40829 74.4444 6.92505C74.7141 7.22898 75.0075 7.47187 75.3031 7.71665C75.7075 8.05148 76.1162 8.38984 76.4745 8.8928C76.8059 9.35803 76.7884 9.70427 76.7692 10.0847C76.7524 10.4163 76.7344 10.7738 76.9448 11.2586C77.3966 12.2999 77.1142 12.9048 76.4745 14.0402C76.1582 14.6025 76.0952 15.1556 76.0392 15.6481C75.982 16.1501 75.9321 16.5891 75.6284 16.9106C75.6284 16.9106 75.6407 15.1321 75.3901 14.2615C75.3901 14.2615 75.2402 15.8766 74.8387 16.5952C74.8387 16.5952 74.1004 14.7909 74.2873 14.1984C74.2873 14.1984 73.6856 15.6367 74.1374 16.7338C73.8119 16.2675 72.6844 14.8033 72.133 14.703C72.5591 14.9046 73.3857 16.6966 73.3857 16.6966C73.3857 16.6966 72.5468 16.1672 71.6442 15.4981C71.6442 15.4981 72.6218 16.9995 73.398 17.8071C74.1743 18.6147 74.7134 19.3209 75.4404 20.9237C74.5882 20.659 73.1917 19.5877 72.9093 18.9559C73.0469 19.4988 74.237 21.4035 74.8634 21.996C75.1472 22.2645 75.4336 22.6678 75.7657 23.1356C76.1665 23.7 76.6338 24.3582 77.2436 24.9863C77.1027 24.8674 76.8228 24.6829 76.5133 24.4788C75.9697 24.1204 75.3347 23.7018 75.2012 23.4725C75.4641 24.0526 76.9427 25.857 77.3689 26.2737C76.9763 26.0785 76.5642 25.6342 76.1138 25.1485C75.314 24.2862 74.3934 23.2936 73.2471 23.334C73.2471 23.334 74.3243 23.4601 74.888 24.7599C75.3493 25.8236 76.224 26.46 77.1135 27.1072C77.3109 27.2509 77.5091 27.395 77.7036 27.5445C78.5478 28.1933 78.8899 28.6661 79.2182 29.1198C79.3064 29.2417 79.3936 29.3622 79.4893 29.4844C79.3006 29.4225 79.0941 29.2866 78.89 29.1523C78.6265 28.9789 78.3672 28.8082 78.1554 28.8029C78.1752 28.8363 78.2863 28.9635 78.4504 29.1517L78.4506 29.1519C78.9837 29.7629 80.0772 31.0162 80.4288 31.783C80.2077 31.5151 79.7799 31.2704 79.3028 30.9976C78.4816 30.5279 77.5148 29.9749 77.2056 29.0769C77.2056 29.0769 77.3658 30.7231 78.4275 31.4045C79.4893 32.086 80.4822 33.8614 80.5326 34.5935C80.5326 34.5935 79.0385 33.0703 78.5785 32.8811C78.5785 32.8811 79.593 34.8396 80.1855 35.6916C80.4867 36.1248 80.5716 36.5505 80.655 36.9687C80.7357 37.3731 80.815 37.7705 81.0871 38.1608C81.0871 38.1608 79.935 37.0383 79.8219 36.4461ZM61.0995 45.8519C61.1242 47.0255 60.5481 47.6935 59.9741 48.3119H59.9752C59.4011 48.9302 59.2204 49.5486 59.2584 51.0748C59.2584 51.0748 58.9072 49.8257 58.9072 49.1194C58.7563 49.6499 58.6207 50.3272 58.8066 50.9993C58.8654 51.2102 59.0049 51.4482 59.147 51.6907C59.37 52.0712 59.5995 52.4627 59.5336 52.7778C59.6626 52.3746 59.6715 51.9614 59.6807 51.5324C59.6967 50.793 59.7137 50.0067 60.3479 49.1443C61.2813 47.8759 61.2153 47.1431 61.1206 46.0903L61.1206 46.0902C61.1136 46.0126 61.1065 45.9333 61.0995 45.8519ZM31.4022 33.608C31.8058 32.179 32.0882 31.6403 32.5954 31.2329C33.1027 30.8265 33.9488 29.6808 34.033 27.9302C33.9016 28.5734 32.962 30.05 32.1066 30.721C31.2513 31.3932 31.4022 33.607 31.4022 33.607V33.608ZM63.9614 31.2329C63.4542 30.8256 62.6084 29.6814 62.5238 27.9316C62.6555 28.5749 63.5949 30.0501 64.4501 30.7221C65.3045 31.3942 65.1545 33.608 65.1545 33.608C64.751 32.179 64.4686 31.6393 63.9614 31.2329ZM69.8277 24.8209C70.1532 24.9595 70.755 25.3131 71.0302 25.9945C71.1145 24.7521 70.1436 24.2007 69.2337 23.684C68.5269 23.2826 67.8569 22.9021 67.7473 22.2348C67.7062 23.3689 68.0147 23.7631 68.4967 24.3791C68.7495 24.7021 69.05 25.0861 69.3728 25.6698C69.8339 26.5033 70.0316 27.2079 70.2029 27.8184C70.4562 28.7211 70.6517 29.4181 71.5559 30.022C70.9798 29.5205 70.7632 27.7958 70.7632 26.9748C70.7632 26.5059 70.5026 26.0923 70.2535 25.6969C70.0664 25.3999 69.8857 25.1132 69.8267 24.8209H69.8277ZM67.0214 27.2498C66.3816 26.7266 64.9163 25.4899 64.8034 23.9885H64.8044C64.8934 24.5925 65.677 25.3067 66.5464 26.0991C67.5121 26.9793 68.5835 27.9559 68.9262 28.9849C68.658 28.5127 68.0611 28.055 67.5095 27.6321C67.3387 27.5011 67.1723 27.3735 67.0214 27.2498ZM27.1839 25.6688C27.5068 25.0851 27.8073 24.7011 28.0601 24.378C28.5421 23.7621 28.8505 23.3679 28.8094 22.2338C28.6999 22.9011 28.0299 23.2816 27.323 23.683C26.4132 24.1997 25.4423 24.7511 25.5266 25.9935C25.8018 25.3121 26.4035 24.9595 26.7291 24.8199C26.67 25.1122 26.4893 25.3992 26.3021 25.6964C26.053 26.092 25.7926 26.5055 25.7926 26.9737C25.7926 27.7937 25.5769 29.5195 24.9999 30.021C25.904 29.4171 26.0996 28.7201 26.3529 27.8173C26.5242 27.2068 26.7219 26.5023 27.1829 25.6688H27.1839ZM21.6308 27.2498C21.6123 28.016 20.4468 30.0789 19.573 30.9868V30.9878C18.6991 31.8967 18.9148 32.7953 18.9148 32.7953C18.3695 32.0849 19.5258 30.0789 20.4088 29.048C21.293 28.016 21.6308 27.2498 21.6308 27.2498ZM29.5354 27.2498C30.1741 26.7266 31.6404 25.4899 31.7534 23.9885C31.6644 24.5917 30.8815 25.3053 30.0126 26.0973C29.0466 26.9777 27.9744 27.9549 27.6317 28.9849C27.8996 28.5131 28.4953 28.0563 29.0467 27.6334C29.2179 27.5021 29.3849 27.374 29.5364 27.2498H29.5354Z" fill="white"/>
</g>
<defs>
<clipPath id="clip0_2021_110">
<rect width="95" height="83" fill="white"/>
</clipPath>
</defs>
</svg>
