<svg width="242" height="211" viewBox="0 0 242 211" fill="none" xmlns="http://www.w3.org/2000/svg">
<path d="M81.0747 1.45801V49.9191L121.131 70.8889L81.0747 1.45801Z" stroke="#2E2E2E" stroke-linejoin="round"/>
<path d="M81.0746 1.45825L40.9902 70.8891L81.0746 49.9193V1.45825Z" stroke="#2E2E2E" stroke-linejoin="round"/>
<path d="M81.0746 49.9192L121.131 70.889H40.9902L81.0746 49.9192Z" stroke="#2E2E2E" stroke-linejoin="round"/>
<path d="M40.9902 22.4281L55.9446 14.5855L81.0746 1.45825L74.8905 12.168L51.0254 53.5174L44.7288 64.3958L40.9902 70.8891V22.4281Z" stroke="#2E2E2E" stroke-linejoin="round"/>
<path d="M0.934082 1.45801L40.9904 70.8889V22.4278L0.934082 1.45801Z" stroke="#2E2E2E" stroke-linejoin="round"/>
<path d="M0.934082 1.45801L40.9904 22.4278L81.0748 1.45801H0.934082Z" stroke="#2E2E2E" stroke-linejoin="round"/>
<path d="M121.131 70.8889L81.0747 140.292L121.131 119.322V70.8889Z" stroke="#2E2E2E" stroke-linejoin="round"/>
<path d="M121.131 119.35L161.215 140.292L121.131 70.8889V119.35Z" stroke="#2E2E2E" stroke-linejoin="round"/>
<path d="M121.131 119.35L81.0747 140.292H161.215L121.131 119.35Z" stroke="#2E2E2E" stroke-linejoin="round"/>
<path d="M81.0747 140.292L121.131 70.8889L81.0747 91.8306V140.292Z" stroke="#2E2E2E" stroke-linejoin="round"/>
<path d="M81.0746 91.8306L40.9902 70.8889L54.3668 94.0494L81.0746 140.292V91.8306Z" stroke="#2E2E2E" stroke-linejoin="round"/>
<path d="M81.0746 91.8306L121.131 70.8889H40.9902L81.0746 91.8306Z" stroke="#2E2E2E" stroke-linejoin="round"/>
<path d="M161.215 1.45801V49.9191L201.3 70.8889L161.215 1.45801Z" stroke="#2E2E2E" stroke-linejoin="round"/>
<path d="M161.215 1.45825L121.131 70.8891L161.215 49.9193V1.45825Z" stroke="#2E2E2E" stroke-linejoin="round"/>
<path d="M161.216 49.9192L201.3 70.889H121.131L161.216 49.9192Z" stroke="#2E2E2E" stroke-linejoin="round"/>
<path d="M201.3 70.8889V22.4278L161.215 1.45801L201.3 70.8889Z" stroke="#2E2E2E" stroke-linejoin="round"/>
<path d="M241.356 1.45825L201.3 22.4281V70.8891L241.356 1.45825Z" stroke="#2E2E2E" stroke-linejoin="round"/>
<path d="M161.215 1.45801L201.3 22.4278L241.356 1.45801L161.215 1.45801Z" stroke="#2E2E2E" stroke-linejoin="round"/>
<path d="M161.215 140.292L121.131 70.8889L161.215 91.8306V140.292Z" stroke="#2E2E2E" stroke-linejoin="round"/>
<path d="M161.215 91.8309L201.299 70.8892L161.215 140.292V91.8309Z" stroke="#2E2E2E" stroke-linejoin="round"/>
<path d="M161.215 91.8306L121.131 70.8889H201.299L161.215 91.8306Z" stroke="#2E2E2E" stroke-linejoin="round"/>
<path d="M121.131 209.723L161.215 140.292L121.131 161.262V209.723Z" stroke="#2E2E2E" stroke-linejoin="round"/>
<path d="M121.131 161.262L81.0747 140.292L121.131 209.723V161.262Z" stroke="#2E2E2E" stroke-linejoin="round"/>
<path d="M121.131 161.262L161.215 140.292H81.0747L121.131 161.262Z" stroke="#2E2E2E" stroke-linejoin="round"/>
</svg>
